AddisMustafa-Regular.ufo
<glyph name="numbersign" format="2">
  <advance width="749"/>
  <unicode hex="0023"/>
  <note>
numbersign
</note>
  <outline>
    <contour>
      <point x="198" y="-29" type="line"/>
      <point x="268" y="167" type="line"/>
      <point x="389" y="167" type="line"/>
      <point x="321" y="-23" type="line"/>
      <point x="345" y="-29" type="line"/>
      <point x="415" y="167" type="line"/>
      <point x="569" y="167" type="line"/>
      <point x="597" y="235" type="line"/>
      <point x="439" y="235" type="line"/>
      <point x="483" y="362" type="line"/>
      <point x="632" y="362" type="line"/>
      <point x="660" y="431" type="line"/>
      <point x="508" y="431" type="line"/>
      <point x="577" y="622" type="line"/>
      <point x="553" y="628" type="line"/>
      <point x="482" y="431" type="line"/>
      <point x="363" y="431" type="line"/>
      <point x="430" y="622" type="line"/>
      <point x="406" y="628" type="line"/>
      <point x="335" y="431" type="line"/>
      <point x="181" y="431" type="line"/>
      <point x="154" y="362" type="line"/>
      <point x="311" y="362" type="line"/>
      <point x="266" y="235" type="line"/>
      <point x="119" y="235" type="line"/>
      <point x="91" y="167" type="line"/>
      <point x="242" y="167" type="line"/>
      <point x="174" y="-23" type="line"/>
    </contour>
    <contour>
      <point x="288" y="235" type="line"/>
      <point x="335" y="362" type="line"/>
      <point x="460" y="362" type="line"/>
      <point x="415" y="235" type="line"/>
    </contour>
  </outline>
</glyph>
<glyph name="dollar" format="2">
  <advance width="482"/>
  <unicode hex="0024"/>
  <note>
dollar
</note>
  <outline>
    <contour>
      <point x="199" y="-145" type="line"/>
      <point x="218" y="-145" type="line"/>
      <point x="217" y="-5" type="line"/>
      <point x="239" y="-5" type="line" smooth="yes"/>
      <point x="243.667" y="-5"/>
      <point x="248.333" y="-5"/>
      <point x="253" y="-5" type="curve" smooth="yes"/>
      <point x="257.667" y="-5"/>
      <point x="262.333" y="-4.667"/>
      <point x="267" y="-4" type="curve"/>
      <point x="266" y="-145" type="line"/>
      <point x="285" y="-145" type="line"/>
      <point x="284" y="-2" type="line"/>
      <point x="376" y="10"/>
      <point x="438" y="69"/>
      <point x="438" y="145" type="curve" smooth="yes"/>
      <point x="438" y="213"/>
      <point x="395" y="261.333"/>
      <point x="323" y="284" type="curve"/>
      <point x="308.333" y="288"/>
      <point x="298.667" y="291.667"/>
      <point x="284" y="297" type="curve"/>
      <point x="284" y="514" type="line"/>
      <point x="322.667" y="502"/>
      <point x="338" y="468.667"/>
      <point x="338" y="430" type="curve" smooth="yes"/>
      <point x="338" y="415.333"/>
      <point x="336" y="406.667"/>
      <point x="332" y="396" type="curve"/>
      <point x="337.333" y="376"/>
      <point x="353.333" y="361"/>
      <point x="376" y="361" type="curve" smooth="yes"/>
      <point x="404" y="361"/>
      <point x="425" y="385"/>
      <point x="425" y="413" type="curve" smooth="yes"/>
      <point x="425" y="478.333"/>
      <point x="364" y="519.333"/>
      <point x="284" y="530" type="curve"/>
      <point x="285" y="648" type="line"/>
      <point x="266" y="648" type="line"/>
      <point x="267" y="532" type="line"/>
      <point x="263" y="532.667"/>
      <point x="258.667" y="533"/>
      <point x="254" y="533" type="curve" smooth="yes"/>
      <point x="250" y="533"/>
      <point x="246" y="533"/>
      <point x="242" y="533" type="curve" smooth="yes"/>
      <point x="238" y="533"/>
      <point x="233.667" y="533"/>
      <point x="229" y="533" type="curve" smooth="yes"/>
      <point x="225" y="533"/>
      <point x="221" y="532.667"/>
      <point x="217" y="532" type="curve"/>
      <point x="218" y="648" type="line"/>
      <point x="199" y="648" type="line"/>
      <point x="200" y="530" type="line"/>
      <point x="116.974" y="516.609"/>
      <point x="53" y="464.81"/>
      <point x="53" y="380" type="curve" smooth="yes"/>
      <point x="53" y="314.667"/>
      <point x="99" y="269.667"/>
      <point x="159" y="247" type="curve"/>
      <point x="163.667" y="245.667"/>
      <point x="169.833" y="243.5"/>
      <point x="177.5" y="240.5" type="curve" smooth="yes"/>
      <point x="185.167" y="237.5"/>
      <point x="192.667" y="235"/>
      <point x="200" y="233" type="curve"/>
      <point x="200" y="11" type="line"/>
      <point x="146.667" y="21.667"/>
      <point x="132" y="58"/>
      <point x="132" y="98" type="curve" smooth="yes"/>
      <point x="132" y="112.667"/>
      <point x="134" y="121.333"/>
      <point x="138" y="132" type="curve"/>
      <point x="132.667" y="152"/>
      <point x="114.667" y="167"/>
      <point x="92" y="167" type="curve" smooth="yes"/>
      <point x="65.333" y="167"/>
      <point x="42" y="143"/>
      <point x="42" y="115" type="curve" smooth="yes"/>
      <point x="42" y="47"/>
      <point x="104" y="3.667"/>
      <point x="200" y="-3" type="curve"/>
    </contour>
    <contour>
      <point x="227" y="8" type="curve" smooth="yes"/>
      <point x="223.667" y="8"/>
      <point x="220.333" y="8.333"/>
      <point x="217" y="9" type="curve"/>
      <point x="217" y="228" type="line"/>
      <point x="234.333" y="224"/>
      <point x="249.667" y="220.667"/>
      <point x="267" y="214" type="curve"/>
      <point x="267" y="10" type="line"/>
      <point x="259" y="8.667"/>
      <point x="248.667" y="8"/>
      <point x="238" y="8" type="curve" smooth="yes"/>
      <point x="234.667" y="8"/>
      <point x="231" y="8"/>
    </contour>
    <contour>
      <point x="284" y="14" type="curve"/>
      <point x="284" y="209" type="line"/>
      <point x="325.333" y="194.333"/>
      <point x="359" y="168"/>
      <point x="359" y="116" type="curve" smooth="yes"/>
      <point x="359" y="68"/>
      <point x="333.333" y="28.667"/>
    </contour>
    <contour>
      <point x="200" y="321" type="line"/>
      <point x="157.333" y="338.333"/>
      <point x="127" y="366.333"/>
      <point x="127" y="417" type="curve" smooth="yes"/>
      <point x="127" y="467.667"/>
      <point x="154.667" y="500.667"/>
      <point x="200" y="514" type="curve"/>
    </contour>
    <contour>
      <point x="267" y="301" type="line"/>
      <point x="250.333" y="305.667"/>
      <point x="233.667" y="310.667"/>
      <point x="217" y="316" type="curve"/>
      <point x="217" y="517" type="line"/>
      <point x="223.667" y="518.333"/>
      <point x="233" y="519"/>
      <point x="241" y="519" type="curve" smooth="yes"/>
      <point x="250.333" y="519"/>
      <point x="260.333" y="518.333"/>
      <point x="267" y="517" type="curve"/>
    </contour>
  </outline>
</glyph>
<glyph name="parenleft" format="2">
  <advance width="313"/>
  <unicode hex="0028"/>
  <note>
parenleft
</note>
  <outline>
    <contour>
      <point x="280" y="-141" type="curve"/>
      <point x="293" y="-128" type="line"/>
      <point x="239.667" y="-90.667"/>
      <point x="185.5" y="-39.167"/>
      <point x="143.5" y="29.5" type="curve" smooth="yes"/>
      <point x="101.5" y="98.167"/>
      <point x="73" y="187"/>
      <point x="73" y="295" type="curve" smooth="yes"/>
      <point x="73" y="401.667"/>
      <point x="99.833" y="485.833"/>
      <point x="140.5" y="554.5" type="curve" smooth="yes"/>
      <point x="181.167" y="623.167"/>
      <point x="237" y="676.667"/>
      <point x="293" y="718" type="curve"/>
      <point x="279" y="731" type="line"/>
      <point x="217.667" y="685.667"/>
      <point x="157.333" y="632.5"/>
      <point x="112" y="562.5" type="curve" smooth="yes"/>
      <point x="66.667" y="492.5"/>
      <point x="36" y="407"/>
      <point x="36" y="295" type="curve" smooth="yes"/>
      <point x="36" y="179"/>
      <point x="68.5" y="91.167"/>
      <point x="114.5" y="22.5" type="curve" smooth="yes"/>
      <point x="160.5" y="-46.167"/>
      <point x="222.667" y="-98.333"/>
    </contour>
  </outline>
</glyph>
<glyph name="parenright" format="2">
  <advance width="313"/>
  <unicode hex="0029"/>
  <note>
parenright
</note>
  <outline>
    <contour>
      <point x="33" y="-141" type="line"/>
      <point x="91.667" y="-98.333"/>
      <point x="152.5" y="-46.167"/>
      <point x="198.5" y="22.5" type="curve" smooth="yes"/>
      <point x="244.5" y="91.167"/>
      <point x="277" y="179"/>
      <point x="277" y="295" type="curve" smooth="yes"/>
      <point x="277" y="407"/>
      <point x="246.333" y="492.5"/>
      <point x="201" y="562.5" type="curve" smooth="yes"/>
      <point x="155.667" y="632.5"/>
      <point x="95.333" y="685.667"/>
      <point x="34" y="731" type="curve"/>
      <point x="20" y="718" type="line"/>
      <point x="76" y="676.667"/>
      <point x="131.833" y="623.167"/>
      <point x="172.5" y="554.5" type="curve" smooth="yes"/>
      <point x="213.167" y="485.833"/>
      <point x="240" y="401.667"/>
      <point x="240" y="295" type="curve" smooth="yes"/>
      <point x="240" y="187"/>
      <point x="211.5" y="98.167"/>
      <point x="169.5" y="29.5" type="curve" smooth="yes"/>
      <point x="127.5" y="-39.167"/>
      <point x="73.333" y="-90.667"/>
      <point x="20" y="-128" type="curve"/>
    </contour>
  </outline>
</glyph>
<glyph name="plus" format="2">
  <advance width="700"/>
  <unicode hex="002B"/>
  <note>
plus
</note>
  <outline>
    <contour>
      <point x="330" y="35" type="line"/>
      <point x="370" y="35" type="line"/>
      <point x="370" y="241" type="line"/>
      <point x="575" y="241" type="line"/>
      <point x="575" y="280" type="line"/>
      <point x="370" y="280" type="line"/>
      <point x="370" y="485" type="line"/>
      <point x="330" y="485" type="line"/>
      <point x="330" y="280" type="line"/>
      <point x="125" y="280" type="line"/>
      <point x="125" y="241" type="line"/>
      <point x="330" y="241" type="line"/>
    </contour>
  </outline>
</glyph>
<glyph name="zero" format="2">
  <advance width="533"/>
  <unicode hex="0030"/>
  <note>
zero
</note>
  <outline>
    <contour>
      <point x="269" y="-3" type="curve" smooth="yes"/>
      <point x="397.551" y="-3"/>
      <point x="506" y="100.121"/>
      <point x="506" y="243" type="curve" smooth="yes"/>
      <point x="506" y="387.909"/>
      <point x="396.826" y="482"/>
      <point x="272" y="482" type="curve" smooth="yes"/>
      <point x="131.938" y="482"/>
      <point x="27" y="373.669"/>
      <point x="27" y="246" type="curve" smooth="yes"/>
      <point x="27" y="82.024"/>
      <point x="148.774" y="-3"/>
    </contour>
    <contour>
      <point x="269" y="37" type="curve" smooth="yes"/>
      <point x="158.289" y="37"/>
      <point x="75" y="130.706"/>
      <point x="75" y="238" type="curve" smooth="yes"/>
      <point x="75" y="346.043"/>
      <point x="157.477" y="440"/>
      <point x="267" y="440" type="curve" smooth="yes"/>
      <point x="378.541" y="440"/>
      <point x="458" y="346.722"/>
      <point x="458" y="238" type="curve" smooth="yes"/>
      <point x="458" y="129.819"/>
      <point x="380.853" y="37"/>
    </contour>
  </outline>
</glyph>
<glyph name="two" format="2">
  <advance width="436"/>
  <unicode hex="0032"/>
  <note>
two
</note>
  <outline>
    <contour>
      <point x="46" y="0" type="line"/>
      <point x="387" y="0" type="line"/>
      <point x="437" y="134" type="line"/>
      <point x="427" y="137" type="line"/>
      <point x="410.474" y="100.642"/>
      <point x="395.905" y="84"/>
      <point x="334" y="84" type="curve" smooth="yes"/>
      <point x="154" y="84" type="line"/>
      <point x="154" y="86" type="line"/>
      <point x="190.153" y="119.893"/>
      <point x="251.532" y="175.802"/>
      <point x="283.5" y="214.5" type="curve" smooth="yes"/>
      <point x="321.5" y="260.5"/>
      <point x="349" y="311"/>
      <point x="349" y="367" type="curve" smooth="yes"/>
      <point x="349" y="439"/>
      <point x="298.667" y="483"/>
      <point x="232" y="483" type="curve" smooth="yes"/>
      <point x="138.824" y="483"/>
      <point x="57.086" y="384.975"/>
      <point x="23" y="323" type="curve"/>
      <point x="33" y="317" type="line"/>
      <point x="65" y="369"/>
      <point x="111" y="411"/>
      <point x="179" y="411" type="curve" smooth="yes"/>
      <point x="240.437" y="411"/>
      <point x="274" y="361.524"/>
      <point x="274" y="304" type="curve" smooth="yes"/>
      <point x="274" y="204.536"/>
      <point x="129.732" y="81.977"/>
      <point x="43" y="8" type="curve"/>
    </contour>
  </outline>
</glyph>
<glyph name="three" format="2">
  <advance width="396"/>
  <unicode hex="0033"/>
  <note>
three
</note>
  <outline>
    <contour>
      <point x="75" y="-250" type="curve" smooth="yes"/>
      <point x="231.686" y="-250"/>
      <point x="370" y="-149.483"/>
      <point x="370" y="-1" type="curve" smooth="yes"/>
      <point x="370" y="87.219"/>
      <point x="289.558" y="152.215"/>
      <point x="201" y="171" type="curve"/>
      <point x="277.202" y="229.995"/>
      <point x="340" y="283.597"/>
      <point x="340" y="355" type="curve" smooth="yes"/>
      <point x="340" y="431"/>
      <point x="276.667" y="483"/>
      <point x="186" y="483" type="curve" smooth="yes"/>
      <point x="105.464" y="483"/>
      <point x="51.577" y="422.713"/>
      <point x="21" y="356" type="curve"/>
      <point x="30" y="351" type="line"/>
      <point x="59.333" y="396.333"/>
      <point x="95.667" y="412"/>
      <point x="153" y="412" type="curve" smooth="yes"/>
      <point x="211.667" y="412"/>
      <point x="258" y="377.667"/>
      <point x="258" y="323" type="curve" smooth="yes"/>
      <point x="258" y="226.507"/>
      <point x="166.019" y="160.937"/>
      <point x="92" y="104" type="curve"/>
      <point x="95" y="98" type="line"/>
      <point x="108" y="98" type="line" smooth="yes"/>
      <point x="203.467" y="98"/>
      <point x="287" y="36.621"/>
      <point x="287" y="-57" type="curve" smooth="yes"/>
      <point x="287" y="-175.835"/>
      <point x="190.473" y="-224"/>
      <point x="142" y="-224" type="curve" smooth="yes"/>
      <point x="86.826" y="-224"/>
      <point x="71.421" y="-150"/>
      <point x="26" y="-150" type="curve" smooth="yes"/>
      <point x="-0.667" y="-150"/>
      <point x="-9" y="-166.667"/>
      <point x="-9" y="-188" type="curve" smooth="yes"/>
      <point x="-9" y="-229.211"/>
      <point x="32.873" y="-250"/>
    </contour>
  </outline>
</glyph>
<glyph name="four" format="2">
  <advance width="551"/>
  <unicode hex="0034"/>
  <note>
four
</note>
  <outline>
    <contour>
      <point x="301" y="-226" type="line"/>
      <point x="389" y="-226" type="line"/>
      <point x="389" y="5" type="line"/>
      <point x="525" y="5" type="line"/>
      <point x="525" y="82" type="line"/>
      <point x="387" y="82" type="line"/>
      <point x="387" y="483" type="line"/>
      <point x="358" y="483" type="line"/>
      <point x="46" y="84" type="line"/>
      <point x="0" y="17" type="line"/>
      <point x="-6.667" y="6.333"/>
      <point x="-2.333" y="5"/>
      <point x="7" y="5" type="curve" smooth="yes"/>
      <point x="301" y="5" type="line"/>
    </contour>
    <contour>
      <point x="66" y="82" type="line"/>
      <point x="301" y="379" type="line"/>
      <point x="301" y="82" type="line"/>
    </contour>
  </outline>
</glyph>
<glyph name="five" format="2">
  <advance width="393"/>
  <unicode hex="0035"/>
  <note>
five
</note>
  <outline>
    <contour>
      <point x="138" y="-250" type="curve" smooth="yes"/>
      <point x="252.453" y="-250"/>
      <point x="373" y="-142.209"/>
      <point x="373" y="-5" type="curve" smooth="yes"/>
      <point x="373" y="112.362"/>
      <point x="292.001" y="197"/>
      <point x="155" y="197" type="curve" smooth="yes"/>
      <point x="128.333" y="197"/>
      <point x="110" y="195"/>
      <point x="86" y="191" type="curve"/>
      <point x="103" y="377" type="line"/>
      <point x="342" y="377" type="line"/>
      <point x="360.667" y="439.667"/>
      <point x="375.667" y="487"/>
      <point x="385" y="511" type="curve"/>
      <point x="373" y="515" type="line"/>
      <point x="361" y="487"/>
      <point x="353" y="473"/>
      <point x="309" y="473" type="curve" smooth="yes"/>
      <point x="96" y="473" type="line"/>
      <point x="52" y="42" type="line"/>
      <point x="62" y="40" type="line"/>
      <point x="78.433" y="86.56"/>
      <point x="104.923" y="108"/>
      <point x="162" y="108" type="curve" smooth="yes"/>
      <point x="231.606" y="108"/>
      <point x="292" y="58.366"/>
      <point x="292" y="-47" type="curve" smooth="yes"/>
      <point x="292" y="-134.954"/>
      <point x="253.552" y="-227"/>
      <point x="167" y="-227" type="curve" smooth="yes"/>
      <point x="86.314" y="-227"/>
      <point x="100.764" y="-128"/>
      <point x="36" y="-128" type="curve" smooth="yes"/>
      <point x="14.667" y="-128"/>
      <point x="0" y="-145.667"/>
      <point x="0" y="-167" type="curve" smooth="yes"/>
      <point x="0" y="-226.92"/>
      <point x="72.397" y="-250"/>
    </contour>
  </outline>
</glyph>
<glyph name="seven" format="2">
  <advance width="444"/>
  <unicode hex="0037"/>
  <note>
seven
</note>
  <outline>
    <contour>
      <point x="170" y="-248" type="line"/>
      <point x="190" y="-196"/>
      <point x="210.667" y="-142.667"/>
      <point x="232" y="-88" type="curve" smooth="yes"/>
      <point x="266.351" y="0.024"/>
      <point x="324.599" y="141.999"/>
      <point x="355" y="218" type="curve" smooth="yes"/>
      <point x="382.311" y="286.278"/>
      <point x="445.248" y="440.913"/>
      <point x="459" y="473" type="curve"/>
      <point x="69" y="473" type="line"/>
      <point x="4" y="305" type="line"/>
      <point x="16" y="301" type="line"/>
      <point x="34.345" y="345.027"/>
      <point x="58.886" y="388"/>
      <point x="135" y="388" type="curve" smooth="yes"/>
      <point x="406" y="388" type="line"/>
      <point x="392" y="354"/>
      <point x="375.167" y="315.667"/>
      <point x="355.5" y="273" type="curve" smooth="yes"/>
      <point x="316.167" y="187.667"/>
      <point x="272.667" y="96.5"/>
      <point x="230" y="10.5" type="curve" smooth="yes"/>
      <point x="198.072" y="-53.855"/>
      <point x="121.902" y="-207.196"/>
      <point x="103" y="-245" type="curve"/>
    </contour>
  </outline>
</glyph>
<glyph name="eight" format="2">
  <advance width="486"/>
  <unicode hex="0038"/>
  <note>
eight
</note>
  <outline>
    <contour>
      <point x="234" y="-4" type="curve" smooth="yes"/>
      <point x="353.685" y="-4"/>
      <point x="453" y="75.514"/>
      <point x="453" y="193" type="curve" smooth="yes"/>
      <point x="453" y="296.109"/>
      <point x="358.621" y="349.931"/>
      <point x="292" y="388" type="curve"/>
      <point x="368.714" y="435.616"/>
      <point x="443" y="490.475"/>
      <point x="443" y="571" type="curve" smooth="yes"/>
      <point x="443" y="662.17"/>
      <point x="359.513" y="727"/>
      <point x="243" y="727" type="curve" smooth="yes"/>
      <point x="141.572" y="727"/>
      <point x="44" y="643.876"/>
      <point x="44" y="540" type="curve" smooth="yes"/>
      <point x="44" y="446.974"/>
      <point x="107.758" y="391.014"/>
      <point x="180" y="341" type="curve"/>
      <point x="111.762" y="294.598"/>
      <point x="36" y="239.262"/>
      <point x="36" y="158" type="curve" smooth="yes"/>
      <point x="36" y="57.629"/>
      <point x="136.514" y="-4"/>
    </contour>
    <contour>
      <point x="250" y="11" type="curve" smooth="yes"/>
      <point x="167.333" y="11"/>
      <point x="108" y="67"/>
      <point x="108" y="163" type="curve" smooth="yes"/>
      <point x="108" y="220.014"/>
      <point x="139.424" y="300.457"/>
      <point x="197" y="333" type="curve"/>
      <point x="297.042" y="285.48"/>
      <point x="371" y="230.225"/>
      <point x="371" y="138" type="curve" smooth="yes"/>
      <point x="371" y="70.423"/>
      <point x="332.84" y="11"/>
    </contour>
    <contour>
      <point x="275" y="397" type="curve"/>
      <point x="202.289" y="439.415"/>
      <point x="117" y="490.018"/>
      <point x="117" y="591" type="curve" smooth="yes"/>
      <point x="117" y="664.604"/>
      <point x="175.62" y="710"/>
      <point x="245" y="710" type="curve" smooth="yes"/>
      <point x="326.858" y="710"/>
      <point x="375" y="649.045"/>
      <point x="375" y="571" type="curve" smooth="yes"/>
      <point x="375" y="491"/>
      <point x="343" y="435.667"/>
    </contour>
  </outline>
</glyph>
<glyph name="nine" format="2">
  <advance width="512"/>
  <unicode hex="0039"/>
  <note>
nine
</note>
  <outline>
    <contour>
      <point x="51" y="-257" type="line"/>
      <point x="148.333" y="-231.667"/>
      <point x="256.833" y="-171.167"/>
      <point x="341.5" y="-86.5" type="curve" smooth="yes"/>
      <point x="426.167" y="-1.833"/>
      <point x="486" y="107"/>
      <point x="486" y="231" type="curve" smooth="yes"/>
      <point x="486" y="365.355"/>
      <point x="384.762" y="483"/>
      <point x="254" y="483" type="curve" smooth="yes"/>
      <point x="126.7" y="483"/>
      <point x="26" y="375.293"/>
      <point x="26" y="250" type="curve" smooth="yes"/>
      <point x="26" y="124.851"/>
      <point x="111.467" y="31"/>
      <point x="246" y="31" type="curve" smooth="yes"/>
      <point x="276.667" y="31"/>
      <point x="302.667" y="34"/>
      <point x="332" y="46" type="curve"/>
      <point x="263.51" y="-106.786"/>
      <point x="169.369" y="-188.699"/>
      <point x="45" y="-242" type="curve"/>
    </contour>
    <contour>
      <point x="273" y="52" type="curve" smooth="yes"/>
      <point x="165.582" y="52"/>
      <point x="113" y="184.949"/>
      <point x="113" y="296" type="curve" smooth="yes"/>
      <point x="113" y="404"/>
      <point x="168.667" y="467"/>
      <point x="254" y="467" type="curve" smooth="yes"/>
      <point x="349.686" y="467"/>
      <point x="393" y="362.684"/>
      <point x="393" y="261" type="curve" smooth="yes"/>
      <point x="393" y="193"/>
      <point x="382.667" y="131.667"/>
      <point x="340" y="77" type="curve" smooth="yes"/>
      <point x="324" y="57"/>
      <point x="301" y="52"/>
    </contour>
  </outline>
</glyph>
<glyph name="colon" format="2">
  <advance width="263"/>
  <unicode hex="003A"/>
  <note>
colon
</note>
  <outline>
    <contour>
      <point x="134" y="307" type="curve" smooth="yes"/>
      <point x="164.667" y="307"/>
      <point x="192" y="330.667"/>
      <point x="192" y="364" type="curve" smooth="yes"/>
      <point x="192" y="394.667"/>
      <point x="164.667" y="421"/>
      <point x="134" y="421" type="curve" smooth="yes"/>
      <point x="103.333" y="421"/>
      <point x="75" y="398.667"/>
      <point x="75" y="364" type="curve" smooth="yes"/>
      <point x="75" y="329.333"/>
      <point x="103.333" y="307"/>
    </contour>
    <contour>
      <point x="134" y="-1" type="curve" smooth="yes"/>
      <point x="164.667" y="-1"/>
      <point x="192" y="20.667"/>
      <point x="192" y="54" type="curve" smooth="yes"/>
      <point x="192" y="84.667"/>
      <point x="164.667" y="111"/>
      <point x="134" y="111" type="curve" smooth="yes"/>
      <point x="103.333" y="111"/>
      <point x="75" y="88.667"/>
      <point x="75" y="54" type="curve" smooth="yes"/>
      <point x="75" y="18"/>
      <point x="103.333" y="-1"/>
    </contour>
  </outline>
</glyph>
<glyph name="A" format="2">
  <advance width="704"/>
  <unicode hex="0041"/>
  <note>
A
</note>
  <outline>
    <contour>
      <point x="-32" y="-4" type="line"/>
      <point x="181" y="-4" type="line"/>
      <point x="181" y="6" type="line"/>
      <point x="145" y="12"/>
      <point x="98" y="19"/>
      <point x="98" y="54" type="curve" smooth="yes"/>
      <point x="98" y="69"/>
      <point x="105" y="94"/>
      <point x="119" y="130" type="curve" smooth="yes"/>
      <point x="128" y="153"/>
      <point x="138" y="177"/>
      <point x="147" y="200" type="curve" smooth="yes"/>
      <point x="156" y="223"/>
      <point x="166" y="247"/>
      <point x="176" y="272" type="curve"/>
      <point x="442" y="272" type="line"/>
      <point x="462" y="220"/>
      <point x="480" y="171"/>
      <point x="493" y="132" type="curve" smooth="yes"/>
      <point x="504" y="100"/>
      <point x="514" y="65"/>
      <point x="514" y="52" type="curve" smooth="yes"/>
      <point x="514" y="19"/>
      <point x="462" y="6"/>
      <point x="444" y="6" type="curve"/>
      <point x="444" y="-4" type="line"/>
      <point x="736" y="-4" type="line"/>
      <point x="736" y="8" type="line"/>
      <point x="683" y="10"/>
      <point x="651" y="48"/>
      <point x="640" y="70" type="curve" smooth="yes"/>
      <point x="632" y="87"/>
      <point x="625" y="103"/>
      <point x="619" y="117" type="curve" smooth="yes"/>
      <point x="612" y="130"/>
      <point x="605" y="147"/>
      <point x="598" y="168" type="curve" smooth="yes"/>
      <point x="566" y="252"/>
      <point x="535" y="337"/>
      <point x="501" y="429" type="curve" smooth="yes"/>
      <point x="473" y="503"/>
      <point x="420" y="644"/>
      <point x="388" y="730" type="curve"/>
      <point x="380" y="730" type="line"/>
      <point x="366" y="705"/>
      <point x="336" y="666"/>
      <point x="292" y="647" type="curve"/>
      <point x="302" y="625" type="line"/>
      <point x="275" y="562"/>
      <point x="227" y="447"/>
      <point x="197" y="377" type="curve" smooth="yes"/>
      <point x="160" y="292"/>
      <point x="124" y="209"/>
      <point x="96" y="146" type="curve" smooth="yes"/>
      <point x="81" y="112"/>
      <point x="68" y="86"/>
      <point x="57" y="69" type="curve" smooth="yes"/>
      <point x="46" y="52"/>
      <point x="39" y="41"/>
      <point x="34" y="36" type="curve"/>
      <point x="32" y="33"/>
      <point x="25" y="28"/>
      <point x="13" y="21" type="curve" smooth="yes"/>
      <point x="0" y="14"/>
      <point x="-15" y="9"/>
      <point x="-32" y="7" type="curve"/>
    </contour>
    <contour>
      <point x="185" y="293" type="line"/>
      <point x="210" y="356"/>
      <point x="248" y="448"/>
      <point x="267" y="493" type="curve" smooth="yes"/>
      <point x="285" y="535"/>
      <point x="305" y="586"/>
      <point x="313" y="602" type="curve"/>
      <point x="324" y="575"/>
      <point x="348" y="515"/>
      <point x="366" y="470" type="curve" smooth="yes"/>
      <point x="388" y="414"/>
      <point x="411" y="353"/>
      <point x="434" y="293" type="curve"/>
    </contour>
  </outline>
</glyph>
<glyph name="B" format="2">
  <advance width="745"/>
  <unicode hex="0042"/>
  <note>
B
</note>
  <outline>
    <contour>
      <point x="39" y="-1" type="line"/>
      <point x="384" y="-1" type="line" smooth="yes"/>
      <point x="443" y="-1"/>
      <point x="509" y="0"/>
      <point x="560" y="19" type="curve" smooth="yes"/>
      <point x="625" y="43"/>
      <point x="684" y="108"/>
      <point x="684" y="196" type="curve" smooth="yes"/>
      <point x="684" y="300"/>
      <point x="590" y="365"/>
      <point x="490" y="376" type="curve"/>
      <point x="490" y="380" type="line"/>
      <point x="581" y="399"/>
      <point x="643" y="453"/>
      <point x="643" y="541" type="curve" smooth="yes"/>
      <point x="643" y="621"/>
      <point x="594" y="673"/>
      <point x="526" y="698" type="curve" smooth="yes"/>
      <point x="483" y="714"/>
      <point x="438" y="719"/>
      <point x="387" y="719" type="curve" smooth="yes"/>
      <point x="50" y="719" type="line"/>
      <point x="50" y="709" type="line"/>
      <point x="86" y="705"/>
      <point x="102" y="700"/>
      <point x="122" y="679" type="curve" smooth="yes"/>
      <point x="138" y="663"/>
      <point x="142" y="595"/>
      <point x="142" y="557" type="curve" smooth="yes"/>
      <point x="142" y="537"/>
      <point x="142" y="519"/>
      <point x="143" y="504" type="curve" smooth="yes"/>
      <point x="143" y="489"/>
      <point x="143" y="474"/>
      <point x="143" y="459" type="curve" smooth="yes"/>
      <point x="143" y="445"/>
      <point x="143" y="430"/>
      <point x="143" y="415" type="curve" smooth="yes"/>
      <point x="143" y="400"/>
      <point x="143" y="382"/>
      <point x="143" y="362" type="curve" smooth="yes"/>
      <point x="143" y="344"/>
      <point x="143" y="325"/>
      <point x="143" y="304" type="curve" smooth="yes"/>
      <point x="143" y="269"/>
      <point x="141" y="180"/>
      <point x="141" y="155" type="curve" smooth="yes"/>
      <point x="141" y="120"/>
      <point x="136" y="63"/>
      <point x="123" y="47" type="curve" smooth="yes"/>
      <point x="104" y="26"/>
      <point x="72" y="14"/>
      <point x="39" y="9" type="curve"/>
    </contour>
    <contour>
      <point x="350" y="14" type="curve" smooth="yes"/>
      <point x="305" y="14"/>
      <point x="283" y="25"/>
      <point x="271" y="40" type="curve"/>
      <point x="255" y="61"/>
      <point x="254" y="92"/>
      <point x="253" y="143" type="curve" smooth="yes"/>
      <point x="253" y="154"/>
      <point x="253" y="168"/>
      <point x="253" y="184" type="curve" smooth="yes"/>
      <point x="252" y="199"/>
      <point x="252" y="216"/>
      <point x="252" y="235" type="curve" smooth="yes"/>
      <point x="252" y="254"/>
      <point x="252" y="275"/>
      <point x="252" y="296" type="curve" smooth="yes"/>
      <point x="252" y="317"/>
      <point x="252" y="339"/>
      <point x="252" y="360" type="curve"/>
      <point x="349" y="360" type="line" smooth="yes"/>
      <point x="388" y="360"/>
      <point x="414" y="357"/>
      <point x="443" y="348" type="curve" smooth="yes"/>
      <point x="514" y="324"/>
      <point x="567" y="261"/>
      <point x="567" y="185" type="curve" smooth="yes"/>
      <point x="567" y="117"/>
      <point x="535" y="68"/>
      <point x="479" y="39" type="curve" smooth="yes"/>
      <point x="436" y="16"/>
      <point x="389" y="14"/>
    </contour>
    <contour>
      <point x="252" y="375" type="curve"/>
      <point x="252" y="378"/>
      <point x="252" y="389"/>
      <point x="252" y="407" type="curve" smooth="yes"/>
      <point x="252" y="425"/>
      <point x="252" y="446"/>
      <point x="252" y="471" type="curve" smooth="yes"/>
      <point x="252" y="522"/>
      <point x="253" y="581"/>
      <point x="254" y="628" type="curve" smooth="yes"/>
      <point x="255" y="653"/>
      <point x="256" y="677"/>
      <point x="260" y="699" type="curve"/>
      <point x="272" y="703"/>
      <point x="296" y="706"/>
      <point x="324" y="706" type="curve" smooth="yes"/>
      <point x="371" y="706"/>
      <point x="409" y="699"/>
      <point x="439" y="686" type="curve" smooth="yes"/>
      <point x="490" y="663"/>
      <point x="528" y="608"/>
      <point x="528" y="541" type="curve" smooth="yes"/>
      <point x="528" y="450"/>
      <point x="465" y="383"/>
      <point x="345" y="376" type="curve" smooth="yes"/>
      <point x="336" y="375"/>
      <point x="323" y="375"/>
      <point x="308" y="375" type="curve" smooth="yes"/>
      <point x="293" y="375"/>
      <point x="274" y="375"/>
    </contour>
  </outline>
</glyph>
<glyph name="C" format="2">
  <advance width="776"/>
  <unicode hex="0043"/>
  <note>
C
</note>
  <outline>
    <contour>
      <point x="432" y="-4" type="curve" smooth="yes"/>
      <point x="506.667" y="-4"/>
      <point x="564" y="10.833"/>
      <point x="604" y="27.5" type="curve" smooth="yes"/>
      <point x="630.905" y="38.71"/>
      <point x="665.937" y="61"/>
      <point x="668" y="61" type="curve" smooth="yes"/>
      <point x="671.333" y="61"/>
      <point x="677.333" y="56.333"/>
      <point x="686" y="47" type="curve" smooth="yes"/>
      <point x="694.667" y="37.667"/>
      <point x="703" y="27.333"/>
      <point x="711" y="16" type="curve"/>
      <point x="723" y="16" type="line"/>
      <point x="726" y="236" type="line"/>
      <point x="714" y="236" type="line"/>
      <point x="689.144" y="117.243"/>
      <point x="575.337" y="12"/>
      <point x="442" y="12" type="curve" smooth="yes"/>
      <point x="354" y="12"/>
      <point x="280.667" y="50.5"/>
      <point x="230" y="112.5" type="curve" smooth="yes"/>
      <point x="179.333" y="174.5"/>
      <point x="151" y="261"/>
      <point x="151" y="357" type="curve" smooth="yes"/>
      <point x="151" y="447.667"/>
      <point x="177.833" y="537"/>
      <point x="226.5" y="605" type="curve" smooth="yes"/>
      <point x="275.167" y="673"/>
      <point x="348" y="718"/>
      <point x="440" y="718" type="curve" smooth="yes"/>
      <point x="572.161" y="718"/>
      <point x="680.185" y="616.549"/>
      <point x="715" y="488" type="curve"/>
      <point x="727" y="489" type="line"/>
      <point x="727" y="713" type="line"/>
      <point x="716" y="713" type="line"/>
      <point x="707.59" y="700.385"/>
      <point x="678.317" y="665"/>
      <point x="670" y="665" type="curve" smooth="yes"/>
      <point x="668.216" y="665"/>
      <point x="632.261" y="688.62"/>
      <point x="606" y="700" type="curve" smooth="yes"/>
      <point x="566" y="717.333"/>
      <point x="506" y="735"/>
      <point x="426" y="735" type="curve" smooth="yes"/>
      <point x="264.307" y="735"/>
      <point x="149.145" y="664.615"/>
      <point x="87" y="564" type="curve" smooth="yes"/>
      <point x="43.568" y="494.026"/>
      <point x="28" y="416.502"/>
      <point x="28" y="362" type="curve" smooth="yes"/>
      <point x="28" y="254"/>
      <point x="66.5" y="162.167"/>
      <point x="136.5" y="97.5" type="curve" smooth="yes"/>
      <point x="206.5" y="32.833"/>
      <point x="308" y="-4"/>
    </contour>
  </outline>
</glyph>
<glyph name="E" format="2">
  <advance width="711"/>
  <unicode hex="0045"/>
  <note>
E
</note>
  <outline>
    <contour>
      <point x="41" y="0" type="line"/>
      <point x="653" y="0" type="line"/>
      <point x="703" y="191" type="line"/>
      <point x="692" y="194" type="line"/>
      <point x="631.211" y="89.444"/>
      <point x="573.718" y="32.215"/>
      <point x="484" y="21" type="curve" smooth="yes"/>
      <point x="445.333" y="15.667"/>
      <point x="407.667" y="15"/>
      <point x="385" y="15" type="curve" smooth="yes"/>
      <point x="265.674" y="15"/>
      <point x="256.834" y="21.296"/>
      <point x="253" y="144" type="curve" smooth="yes"/>
      <point x="253" y="150.667"/>
      <point x="252.833" y="158.833"/>
      <point x="252.5" y="168.5" type="curve" smooth="yes"/>
      <point x="252.167" y="178.167"/>
      <point x="252" y="188.333"/>
      <point x="252" y="199" type="curve" smooth="yes"/>
      <point x="252" y="210.333"/>
      <point x="252" y="221.667"/>
      <point x="252" y="233" type="curve" smooth="yes"/>
      <point x="252" y="244.333"/>
      <point x="252" y="254.333"/>
      <point x="252" y="263" type="curve" smooth="yes"/>
      <point x="252" y="282.333"/>
      <point x="252" y="301"/>
      <point x="252" y="319" type="curve" smooth="yes"/>
      <point x="252" y="337"/>
      <point x="252.667" y="350.667"/>
      <point x="254" y="360" type="curve"/>
      <point x="264.667" y="360"/>
      <point x="273.333" y="360"/>
      <point x="280" y="360" type="curve" smooth="yes"/>
      <point x="287.333" y="360"/>
      <point x="294" y="360"/>
      <point x="300" y="360" type="curve" smooth="yes"/>
      <point x="313.333" y="360"/>
      <point x="325" y="359.333"/>
      <point x="345" y="358" type="curve" smooth="yes"/>
      <point x="385" y="355.333"/>
      <point x="414.667" y="342.667"/>
      <point x="436" y="324" type="curve"/>
      <point x="460" y="301.333"/>
      <point x="484.333" y="249.667"/>
      <point x="495" y="207" type="curve"/>
      <point x="507" y="207" type="line"/>
      <point x="507" y="522" type="line"/>
      <point x="495" y="522" type="line"/>
      <point x="478.527" y="445.128"/>
      <point x="458.234" y="402.488"/>
      <point x="379" y="384" type="curve" smooth="yes"/>
      <point x="355.413" y="378.557"/>
      <point x="296.982" y="376"/>
      <point x="273" y="376" type="curve" smooth="yes"/>
      <point x="263" y="376"/>
      <point x="256.333" y="376"/>
      <point x="253" y="376" type="curve"/>
      <point x="253" y="378"/>
      <point x="253" y="381.667"/>
      <point x="253" y="387" type="curve" smooth="yes"/>
      <point x="253" y="393"/>
      <point x="252.833" y="401.5"/>
      <point x="252.5" y="412.5" type="curve" smooth="yes"/>
      <point x="252.167" y="423.5"/>
      <point x="252" y="437.667"/>
      <point x="252" y="455" type="curve" smooth="yes"/>
      <point x="252" y="472.333"/>
      <point x="252" y="493.667"/>
      <point x="252" y="519" type="curve" smooth="yes"/>
      <point x="252" y="563"/>
      <point x="252.5" y="601.667"/>
      <point x="253.5" y="635" type="curve" smooth="yes"/>
      <point x="254.5" y="668.333"/>
      <point x="255.667" y="690.333"/>
      <point x="257" y="701" type="curve"/>
      <point x="270.333" y="703.667"/>
      <point x="305" y="706"/>
      <point x="333" y="706" type="curve" smooth="yes"/>
      <point x="377" y="706"/>
      <point x="414.333" y="704"/>
      <point x="445" y="700" type="curve" smooth="yes"/>
      <point x="475.667" y="696"/>
      <point x="496.667" y="691.333"/>
      <point x="508" y="686" type="curve" smooth="yes"/>
      <point x="555.333" y="662.667"/>
      <point x="606" y="617.333"/>
      <point x="660" y="550" type="curve"/>
      <point x="670" y="555" type="line"/>
      <point x="602" y="720" type="line"/>
      <point x="50" y="720" type="line"/>
      <point x="50" y="710" type="line"/>
      <point x="86" y="704.667"/>
      <point x="106" y="702.333"/>
      <point x="126" y="681" type="curve" smooth="yes"/>
      <point x="142.15" y="664.85"/>
      <point x="143" y="597.599"/>
      <point x="143" y="558" type="curve" smooth="yes"/>
      <point x="143" y="363" type="line" smooth="yes"/>
      <point x="143" y="345"/>
      <point x="143" y="325.667"/>
      <point x="143" y="305" type="curve" smooth="yes"/>
      <point x="143" y="269.869"/>
      <point x="141" y="181.48"/>
      <point x="141" y="156" type="curve" smooth="yes"/>
      <point x="141" y="120.988"/>
      <point x="136.201" y="63.841"/>
      <point x="123" y="48" type="curve" smooth="yes"/>
      <point x="104.333" y="26.667"/>
      <point x="74.333" y="15.333"/>
      <point x="41" y="10" type="curve"/>
    </contour>
  </outline>
</glyph>
<glyph name="H" format="2">
  <advance width="900"/>
  <unicode hex="0048"/>
  <note>
H
</note>
  <outline>
    <contour>
      <point x="44" y="0" type="line"/>
      <point x="339" y="0" type="line"/>
      <point x="339" y="10" type="line"/>
      <point x="311" y="12.667"/>
      <point x="278" y="24.333"/>
      <point x="262" y="47" type="curve" smooth="yes"/>
      <point x="251.333" y="61.667"/>
      <point x="252" y="102.333"/>
      <point x="252" y="141" type="curve" smooth="yes"/>
      <point x="252" y="356" type="line"/>
      <point x="647" y="356" type="line"/>
      <point x="647" y="349.333"/>
      <point x="647" y="337.667"/>
      <point x="647" y="321" type="curve" smooth="yes"/>
      <point x="647" y="305"/>
      <point x="647" y="286.333"/>
      <point x="647" y="265" type="curve" smooth="yes"/>
      <point x="647" y="244.333"/>
      <point x="647" y="222"/>
      <point x="647" y="198" type="curve" smooth="yes"/>
      <point x="647" y="174.667"/>
      <point x="646.667" y="152"/>
      <point x="646" y="130" type="curve" smooth="yes"/>
      <point x="646" y="104.133"/>
      <point x="644.577" y="56.865"/>
      <point x="638" y="47" type="curve"/>
      <point x="627.333" y="29.667"/>
      <point x="592.333" y="14"/>
      <point x="543" y="10" type="curve"/>
      <point x="543" y="0" type="line"/>
      <point x="850" y="0" type="line"/>
      <point x="850" y="10" type="line"/>
      <point x="815.333" y="14"/>
      <point x="784.333" y="22.333"/>
      <point x="767" y="49" type="curve" smooth="yes"/>
      <point x="759" y="61"/>
      <point x="758" y="97.333"/>
      <point x="758" y="136" type="curve" smooth="yes"/>
      <point x="758" y="160"/>
      <point x="757.833" y="182"/>
      <point x="757.5" y="202" type="curve" smooth="yes"/>
      <point x="757.167" y="222"/>
      <point x="757" y="241.333"/>
      <point x="757" y="260" type="curve" smooth="yes"/>
      <point x="757" y="279.333"/>
      <point x="757" y="298.667"/>
      <point x="757" y="318" type="curve" smooth="yes"/>
      <point x="757" y="338"/>
      <point x="757" y="360.333"/>
      <point x="757" y="385" type="curve" smooth="yes"/>
      <point x="757" y="556" type="line" smooth="yes"/>
      <point x="757" y="566"/>
      <point x="757" y="576.333"/>
      <point x="757" y="587" type="curve" smooth="yes"/>
      <point x="757" y="612.286"/>
      <point x="759.703" y="653.23"/>
      <point x="767" y="666" type="curve" smooth="yes"/>
      <point x="781.667" y="692.667"/>
      <point x="816" y="706"/>
      <point x="848" y="710" type="curve"/>
      <point x="848" y="720" type="line"/>
      <point x="547" y="720" type="line"/>
      <point x="547" y="710" type="line"/>
      <point x="577.667" y="708.667"/>
      <point x="610" y="705"/>
      <point x="634" y="669" type="curve"/>
      <point x="644.667" y="651.667"/>
      <point x="644.667" y="621.333"/>
      <point x="646" y="596" type="curve" smooth="yes"/>
      <point x="646.667" y="574"/>
      <point x="647" y="554.333"/>
      <point x="647" y="537" type="curve" smooth="yes"/>
      <point x="647" y="519.667"/>
      <point x="647" y="502.667"/>
      <point x="647" y="486" type="curve" smooth="yes"/>
      <point x="647" y="469.333"/>
      <point x="647" y="452"/>
      <point x="647" y="434" type="curve" smooth="yes"/>
      <point x="647" y="416.667"/>
      <point x="647" y="397.333"/>
      <point x="647" y="376" type="curve"/>
      <point x="252" y="376" type="line"/>
      <point x="252" y="382.667"/>
      <point x="252" y="395"/>
      <point x="252" y="413" type="curve" smooth="yes"/>
      <point x="252" y="431.667"/>
      <point x="252" y="453"/>
      <point x="252" y="477" type="curve" smooth="yes"/>
      <point x="252" y="526.333"/>
      <point x="252.667" y="583.333"/>
      <point x="254" y="630" type="curve" smooth="yes"/>
      <point x="256.529" y="688.173"/>
      <point x="299.66" y="703.523"/>
      <point x="345" y="710" type="curve"/>
      <point x="345" y="720" type="line"/>
      <point x="47" y="720" type="line"/>
      <point x="47" y="710" type="line"/>
      <point x="81.667" y="706"/>
      <point x="109.333" y="697.667"/>
      <point x="128" y="675" type="curve" smooth="yes"/>
      <point x="139.257" y="661.866"/>
      <point x="143" y="622.204"/>
      <point x="143" y="594" type="curve" smooth="yes"/>
      <point x="143" y="582"/>
      <point x="143" y="570"/>
      <point x="143" y="558" type="curve" smooth="yes"/>
      <point x="143" y="363" type="line" smooth="yes"/>
      <point x="143" y="345"/>
      <point x="143" y="325.667"/>
      <point x="143" y="305" type="curve" smooth="yes"/>
      <point x="143" y="269.869"/>
      <point x="141" y="181.48"/>
      <point x="141" y="156" type="curve" smooth="yes"/>
      <point x="141" y="120.613"/>
      <point x="137.224" y="59.78"/>
      <point x="127" y="47" type="curve" smooth="yes"/>
      <point x="111" y="28.333"/>
      <point x="77.333" y="15.333"/>
      <point x="44" y="10" type="curve"/>
    </contour>
  </outline>
</glyph>
<glyph name="J" format="2">
  <advance width="399"/>
  <unicode hex="004A"/>
  <note>
J
</note>
  <outline>
    <contour>
      <point x="96" y="-15" type="curve" smooth="yes"/>
      <point x="134.667" y="-15"/>
      <point x="183.333" y="-1.333"/>
      <point x="226" y="32" type="curve" smooth="yes"/>
      <point x="260.667" y="58.667"/>
      <point x="284" y="88"/>
      <point x="284" y="132" type="curve" smooth="yes"/>
      <point x="284" y="367" type="line" smooth="yes"/>
      <point x="284" y="387.667"/>
      <point x="284" y="406.667"/>
      <point x="284" y="424" type="curve" smooth="yes"/>
      <point x="284" y="442"/>
      <point x="284" y="459.333"/>
      <point x="284" y="476" type="curve" smooth="yes"/>
      <point x="284" y="492.667"/>
      <point x="284.167" y="509.167"/>
      <point x="284.5" y="525.5" type="curve" smooth="yes"/>
      <point x="284.833" y="541.833"/>
      <point x="285" y="558.333"/>
      <point x="285" y="575" type="curve"/>
      <point x="285.667" y="590.333"/>
      <point x="286.333" y="606.833"/>
      <point x="287" y="624.5" type="curve" smooth="yes"/>
      <point x="287.667" y="642.167"/>
      <point x="290.667" y="656.333"/>
      <point x="296" y="667" type="curve" smooth="yes"/>
      <point x="313.333" y="699"/>
      <point x="352" y="706"/>
      <point x="380" y="710" type="curve"/>
      <point x="380" y="720" type="line"/>
      <point x="72" y="720" type="line"/>
      <point x="72" y="710" type="line"/>
      <point x="106.667" y="706"/>
      <point x="142.333" y="700.667"/>
      <point x="161" y="678" type="curve" smooth="yes"/>
      <point x="171.425" y="665.837"/>
      <point x="175" y="622.022"/>
      <point x="175" y="594" type="curve" smooth="yes"/>
      <point x="175" y="582"/>
      <point x="175" y="570"/>
      <point x="175" y="558" type="curve" smooth="yes"/>
      <point x="175" y="363" type="line" smooth="yes"/>
      <point x="175" y="345"/>
      <point x="175" y="325.667"/>
      <point x="175" y="305" type="curve" smooth="yes"/>
      <point x="175" y="285"/>
      <point x="175" y="265.333"/>
      <point x="175" y="246" type="curve" smooth="yes"/>
      <point x="175" y="227.333"/>
      <point x="174.833" y="210"/>
      <point x="174.5" y="194" type="curve" smooth="yes"/>
      <point x="174.167" y="178"/>
      <point x="174" y="165.333"/>
      <point x="174" y="156" type="curve"/>
      <point x="172.667" y="118.667"/>
      <point x="170" y="79.333"/>
      <point x="162" y="50" type="curve" smooth="yes"/>
      <point x="152.667" y="19.333"/>
      <point x="132.333" y="-5"/>
      <point x="99" y="-5" type="curve" smooth="yes"/>
      <point x="88.333" y="-5"/>
      <point x="74.667" y="-0.333"/>
      <point x="68" y="9" type="curve"/>
      <point x="68" y="12" type="line"/>
      <point x="96" y="16"/>
      <point x="117" y="28.333"/>
      <point x="117" y="59" type="curve" smooth="yes"/>
      <point x="117" y="85.667"/>
      <point x="94.667" y="108"/>
      <point x="68" y="108" type="curve" smooth="yes"/>
      <point x="37.333" y="108"/>
      <point x="9" y="86"/>
      <point x="9" y="54" type="curve" smooth="yes"/>
      <point x="9" y="5.854"/>
      <point x="49.543" y="-15"/>
    </contour>
  </outline>
</glyph>
<glyph name="K" format="2">
  <advance width="767"/>
  <unicode hex="004B"/>
  <note>
K
</note>
  <outline>
    <contour>
      <point x="44" y="0" type="line"/>
      <point x="365" y="0" type="line"/>
      <point x="365" y="10" type="line"/>
      <point x="336.864" y="12.814"/>
      <point x="286.846" y="23.506"/>
      <point x="269" y="49" type="curve"/>
      <point x="255.667" y="66.333"/>
      <point x="253.333" y="102.333"/>
      <point x="252" y="141" type="curve" smooth="yes"/>
      <point x="251.333" y="163"/>
      <point x="251" y="189.333"/>
      <point x="251" y="220" type="curve" smooth="yes"/>
      <point x="251" y="251.333"/>
      <point x="251" y="284.333"/>
      <point x="251" y="319" type="curve"/>
      <point x="255" y="329.667"/>
      <point x="256.333" y="334"/>
      <point x="267" y="334" type="curve" smooth="yes"/>
      <point x="271.667" y="334"/>
      <point x="277.167" y="331.667"/>
      <point x="283.5" y="327" type="curve" smooth="yes"/>
      <point x="289.833" y="322.333"/>
      <point x="301.667" y="310.333"/>
      <point x="319" y="291" type="curve" smooth="yes"/>
      <point x="360.333" y="245.667"/>
      <point x="400.167" y="200.833"/>
      <point x="438.5" y="156.5" type="curve" smooth="yes"/>
      <point x="476.833" y="112.167"/>
      <point x="517.333" y="65.333"/>
      <point x="560" y="16" type="curve" smooth="yes"/>
      <point x="568" y="6.667"/>
      <point x="574.667" y="2.667"/>
      <point x="580" y="0" type="curve"/>
      <point x="805" y="0" type="line"/>
      <point x="805" y="10" type="line"/>
      <point x="767.667" y="12.667"/>
      <point x="736.333" y="20.333"/>
      <point x="719" y="27" type="curve"/>
      <point x="707.866" y="30.711"/>
      <point x="653.272" y="78.673"/>
      <point x="638" y="97" type="curve" smooth="yes"/>
      <point x="582" y="159.667"/>
      <point x="518.333" y="231"/>
      <point x="465" y="291" type="curve" smooth="yes"/>
      <point x="421.919" y="339.466"/>
      <point x="372.977" y="395.529"/>
      <point x="359" y="413" type="curve"/>
      <point x="392.492" y="448.463"/>
      <point x="497.062" y="553.722"/>
      <point x="525" y="579" type="curve" smooth="yes"/>
      <point x="597" y="645.667"/>
      <point x="666" y="703.333"/>
      <point x="734" y="710" type="curve"/>
      <point x="734" y="720" type="line"/>
      <point x="466" y="720" type="line"/>
      <point x="466" y="710" type="line"/>
      <point x="500.667" y="704.667"/>
      <point x="532" y="689.667"/>
      <point x="532" y="651" type="curve" smooth="yes"/>
      <point x="532" y="628.333"/>
      <point x="510.667" y="598.667"/>
      <point x="488" y="572" type="curve"/>
      <point x="427.043" y="505.963"/>
      <point x="306.034" y="379.02"/>
      <point x="252" y="346" type="curve"/>
      <point x="252" y="383.333"/>
      <point x="252" y="414"/>
      <point x="252" y="438" type="curve" smooth="yes"/>
      <point x="252" y="462.667"/>
      <point x="252" y="483.667"/>
      <point x="252" y="501" type="curve" smooth="yes"/>
      <point x="252" y="535.667"/>
      <point x="252.667" y="559.333"/>
      <point x="254" y="590" type="curve" smooth="yes"/>
      <point x="256.374" y="689.695"/>
      <point x="294.479" y="703.419"/>
      <point x="357" y="710" type="curve"/>
      <point x="357" y="720" type="line"/>
      <point x="47" y="720" type="line"/>
      <point x="47" y="710" type="line"/>
      <point x="81.667" y="706"/>
      <point x="108.333" y="696.667"/>
      <point x="127" y="674" type="curve" smooth="yes"/>
      <point x="141.667" y="655.333"/>
      <point x="143" y="608.667"/>
      <point x="143" y="558" type="curve" smooth="yes"/>
      <point x="143" y="363" type="line" smooth="yes"/>
      <point x="143" y="345"/>
      <point x="143" y="325.667"/>
      <point x="143" y="305" type="curve" smooth="yes"/>
      <point x="143" y="285"/>
      <point x="143" y="265.333"/>
      <point x="143" y="246" type="curve" smooth="yes"/>
      <point x="143" y="227.333"/>
      <point x="142.833" y="210"/>
      <point x="142.5" y="194" type="curve" smooth="yes"/>
      <point x="142.167" y="178"/>
      <point x="142" y="165.333"/>
      <point x="142" y="156" type="curve" smooth="yes"/>
      <point x="142" y="118.832"/>
      <point x="140.28" y="59.936"/>
      <point x="127" y="44" type="curve" smooth="yes"/>
      <point x="111" y="25.333"/>
      <point x="77.333" y="15.333"/>
      <point x="44" y="10" type="curve"/>
    </contour>
  </outline>
</glyph>
<glyph name="L" format="2">
  <advance width="708"/>
  <unicode hex="004C"/>
  <note>
L
</note>
  <outline>
    <contour>
      <point x="34" y="0" type="line"/>
      <point x="676" y="0" type="line"/>
      <point x="713" y="206" type="line"/>
      <point x="703" y="209" type="line"/>
      <point x="668.987" y="123.968"/>
      <point x="635.213" y="57.834"/>
      <point x="534" y="30" type="curve" smooth="yes"/>
      <point x="494.906" y="18.502"/>
      <point x="411.496" y="15"/>
      <point x="388" y="15" type="curve" smooth="yes"/>
      <point x="343.926" y="15"/>
      <point x="277.823" y="27.221"/>
      <point x="266" y="42" type="curve"/>
      <point x="254" y="60.667"/>
      <point x="254.333" y="103.333"/>
      <point x="253" y="146" type="curve" smooth="yes"/>
      <point x="253" y="168.667"/>
      <point x="252.833" y="189.167"/>
      <point x="252.5" y="207.5" type="curve" smooth="yes"/>
      <point x="252.167" y="225.833"/>
      <point x="252" y="243.667"/>
      <point x="252" y="261" type="curve" smooth="yes"/>
      <point x="252" y="278.333"/>
      <point x="252" y="296"/>
      <point x="252" y="314" type="curve" smooth="yes"/>
      <point x="252" y="332.667"/>
      <point x="252" y="353.333"/>
      <point x="252" y="376" type="curve" smooth="yes"/>
      <point x="252" y="400.667"/>
      <point x="252" y="423"/>
      <point x="252" y="443" type="curve" smooth="yes"/>
      <point x="252" y="472.655"/>
      <point x="254.065" y="589.284"/>
      <point x="255" y="622" type="curve" smooth="yes"/>
      <point x="257.455" y="688.291"/>
      <point x="312.884" y="702.751"/>
      <point x="360" y="710" type="curve"/>
      <point x="360" y="720" type="line"/>
      <point x="41" y="720" type="line"/>
      <point x="41" y="710" type="line"/>
      <point x="75.667" y="706"/>
      <point x="109.333" y="694.667"/>
      <point x="128" y="672" type="curve" smooth="yes"/>
      <point x="139.17" y="658.968"/>
      <point x="143" y="620.972"/>
      <point x="143" y="592" type="curve" smooth="yes"/>
      <point x="143" y="580.667"/>
      <point x="143" y="569"/>
      <point x="143" y="557" type="curve" smooth="yes"/>
      <point x="143" y="363" type="line" smooth="yes"/>
      <point x="143" y="345"/>
      <point x="143" y="325.667"/>
      <point x="143" y="305" type="curve" smooth="yes"/>
      <point x="143" y="269.869"/>
      <point x="141" y="181.48"/>
      <point x="141" y="156" type="curve" smooth="yes"/>
      <point x="141" y="119.909"/>
      <point x="135.189" y="63.827"/>
      <point x="122" y="48" type="curve" smooth="yes"/>
      <point x="103.333" y="26.667"/>
      <point x="67.333" y="15.333"/>
      <point x="34" y="10" type="curve"/>
    </contour>
  </outline>
</glyph>
<glyph name="P" format="2">
  <advance width="656"/>
  <unicode hex="0050"/>
  <note>
P
</note>
  <outline>
    <contour>
      <point x="41" y="0" type="line"/>
      <point x="361" y="0" type="line"/>
      <point x="361" y="10" type="line"/>
      <point x="306.333" y="12.667"/>
      <point x="276.667" y="33.667"/>
      <point x="266" y="51" type="curve"/>
      <point x="252.667" y="71"/>
      <point x="254.333" y="101.333"/>
      <point x="253" y="144" type="curve" smooth="yes"/>
      <point x="253" y="155.333"/>
      <point x="252.833" y="165.833"/>
      <point x="252.5" y="175.5" type="curve" smooth="yes"/>
      <point x="252.167" y="185.167"/>
      <point x="252" y="195.667"/>
      <point x="252" y="207" type="curve" smooth="yes"/>
      <point x="252" y="218.333"/>
      <point x="252" y="231.333"/>
      <point x="252" y="246" type="curve" smooth="yes"/>
      <point x="252" y="261.333"/>
      <point x="252" y="279.667"/>
      <point x="252" y="301" type="curve"/>
      <point x="268" y="301"/>
      <point x="286" y="301"/>
      <point x="306" y="301" type="curve" smooth="yes"/>
      <point x="359.193" y="301"/>
      <point x="444.984" y="308.494"/>
      <point x="494" y="326" type="curve" smooth="yes"/>
      <point x="571.291" y="354.626"/>
      <point x="636" y="417.119"/>
      <point x="636" y="512" type="curve" smooth="yes"/>
      <point x="636" y="592"/>
      <point x="592.667" y="652"/>
      <point x="534" y="684" type="curve" smooth="yes"/>
      <point x="474" y="717.333"/>
      <point x="409" y="722"/>
      <point x="321" y="722" type="curve" smooth="yes"/>
      <point x="309" y="722"/>
      <point x="294" y="722"/>
      <point x="276" y="722" type="curve" smooth="yes"/>
      <point x="258.667" y="722"/>
      <point x="240.167" y="721.833"/>
      <point x="220.5" y="721.5" type="curve" smooth="yes"/>
      <point x="200.833" y="721.167"/>
      <point x="181" y="721"/>
      <point x="161" y="721" type="curve" smooth="yes"/>
      <point x="141" y="721"/>
      <point x="122.5" y="720.833"/>
      <point x="105.5" y="720.5" type="curve" smooth="yes"/>
      <point x="88.5" y="720.167"/>
      <point x="73.667" y="720"/>
      <point x="61" y="720" type="curve" smooth="yes"/>
      <point x="49" y="720"/>
      <point x="41" y="720"/>
      <point x="37" y="720" type="curve"/>
      <point x="37" y="710" type="line"/>
      <point x="73" y="704.667"/>
      <point x="106" y="700.333"/>
      <point x="126" y="679" type="curve" smooth="yes"/>
      <point x="142.103" y="662.897"/>
      <point x="143" y="596.302"/>
      <point x="143" y="558" type="curve" smooth="yes"/>
      <point x="143" y="363" type="line" smooth="yes"/>
      <point x="143" y="345"/>
      <point x="143" y="325.667"/>
      <point x="143" y="305" type="curve" smooth="yes"/>
      <point x="143" y="269.869"/>
      <point x="141" y="181.48"/>
      <point x="141" y="156" type="curve" smooth="yes"/>
      <point x="141" y="121.138"/>
      <point x="137.405" y="60.886"/>
      <point x="125" y="46" type="curve" smooth="yes"/>
      <point x="107.667" y="24.667"/>
      <point x="74.333" y="15.333"/>
      <point x="41" y="10" type="curve"/>
    </contour>
    <contour>
      <point x="252" y="315" type="curve"/>
      <point x="252" y="320.333"/>
      <point x="252" y="335"/>
      <point x="252" y="359" type="curve" smooth="yes"/>
      <point x="252" y="383"/>
      <point x="252" y="411"/>
      <point x="252" y="443" type="curve" smooth="yes"/>
      <point x="252" y="507"/>
      <point x="252.667" y="579.333"/>
      <point x="254" y="626" type="curve" smooth="yes"/>
      <point x="255.681" y="664.662"/>
      <point x="250.204" y="626.225"/>
      <point x="263" y="703" type="curve"/>
      <point x="267.667" y="703.667"/>
      <point x="273.833" y="704.5"/>
      <point x="281.5" y="705.5" type="curve" smooth="yes"/>
      <point x="289.167" y="706.5"/>
      <point x="300" y="707"/>
      <point x="314" y="707" type="curve" smooth="yes"/>
      <point x="352.667" y="707"/>
      <point x="389" y="702.667"/>
      <point x="421" y="688" type="curve" smooth="yes"/>
      <point x="485" y="657.333"/>
      <point x="528" y="594.333"/>
      <point x="528" y="517" type="curve" smooth="yes"/>
      <point x="528" y="433"/>
      <point x="481.333" y="360.333"/>
      <point x="396" y="331" type="curve" smooth="yes"/>
      <point x="354.667" y="316.333"/>
      <point x="306.667" y="315"/>
    </contour>
  </outline>
</glyph>
<glyph name="U" format="2">
  <advance width="834"/>
  <unicode hex="0055"/>
  <note>
U
</note>
  <outline>
    <contour>
      <point x="420" y="-10" type="curve" smooth="yes"/>
      <point x="468.667" y="-10"/>
      <point x="509.667" y="-4.833"/>
      <point x="543" y="5.5" type="curve" smooth="yes"/>
      <point x="609.667" y="26.167"/>
      <point x="651.167" y="63.167"/>
      <point x="674.5" y="106.5" type="curve" smooth="yes"/>
      <point x="707.535" y="167.851"/>
      <point x="708.936" y="222.787"/>
      <point x="712" y="281" type="curve" smooth="yes"/>
      <point x="718" y="497" type="line" smooth="yes"/>
      <point x="718" y="547.308"/>
      <point x="723.106" y="627.248"/>
      <point x="732" y="648" type="curve" smooth="yes"/>
      <point x="748" y="686.667"/>
      <point x="774.667" y="703.333"/>
      <point x="824" y="710" type="curve"/>
      <point x="824" y="720" type="line"/>
      <point x="576" y="720" type="line"/>
      <point x="576" y="710" type="line"/>
      <point x="640" y="700.667"/>
      <point x="669.667" y="677.333"/>
      <point x="683" y="640" type="curve" smooth="yes"/>
      <point x="692.856" y="615.36"/>
      <point x="694" y="539.176"/>
      <point x="694" y="497" type="curve" smooth="yes"/>
      <point x="694" y="483"/>
      <point x="694" y="469.333"/>
      <point x="694" y="456" type="curve" smooth="yes"/>
      <point x="694" y="417" type="line" smooth="yes"/>
      <point x="694" y="404.333"/>
      <point x="694" y="390.667"/>
      <point x="694" y="376" type="curve" smooth="yes"/>
      <point x="694" y="327" type="line" smooth="yes"/>
      <point x="694" y="261.45"/>
      <point x="688.168" y="181.421"/>
      <point x="658.5" y="124" type="curve" smooth="yes"/>
      <point x="632.711" y="74.085"/>
      <point x="534.337" y="22"/>
      <point x="454" y="22" type="curve" smooth="yes"/>
      <point x="320.778" y="22"/>
      <point x="243.663" y="114.872"/>
      <point x="241" y="256" type="curve" smooth="yes"/>
      <point x="241" y="272"/>
      <point x="240.833" y="287.167"/>
      <point x="240.5" y="301.5" type="curve" smooth="yes"/>
      <point x="240" y="346" type="line" smooth="yes"/>
      <point x="240" y="362"/>
      <point x="240" y="379"/>
      <point x="240" y="397" type="curve" smooth="yes"/>
      <point x="240" y="458" type="line" smooth="yes"/>
      <point x="240" y="476"/>
      <point x="240" y="491.667"/>
      <point x="240" y="505" type="curve" smooth="yes"/>
      <point x="240" y="545" type="line" smooth="yes"/>
      <point x="240" y="570.333"/>
      <point x="240.667" y="595.333"/>
      <point x="242" y="630" type="curve" smooth="yes"/>
      <point x="244.529" y="688.173"/>
      <point x="287.66" y="703.523"/>
      <point x="333" y="710" type="curve"/>
      <point x="333" y="720" type="line"/>
      <point x="35" y="720" type="line"/>
      <point x="35" y="710" type="line"/>
      <point x="69.667" y="706"/>
      <point x="97.333" y="697.667"/>
      <point x="116" y="675" type="curve" smooth="yes"/>
      <point x="127.257" y="661.866"/>
      <point x="131" y="622.204"/>
      <point x="131" y="594" type="curve" smooth="yes"/>
      <point x="131" y="558" type="line"/>
      <point x="131" y="425" type="line" smooth="yes"/>
      <point x="131" y="388.333"/>
      <point x="130.833" y="355"/>
      <point x="130.5" y="325" type="curve" smooth="yes"/>
      <point x="130" y="252" type="line" smooth="yes"/>
      <point x="130" y="212.713"/>
      <point x="134.982" y="158.173"/>
      <point x="167.5" y="101.5" type="curve" smooth="yes"/>
      <point x="179.167" y="81.167"/>
      <point x="195.667" y="62.5"/>
      <point x="217" y="45.5" type="curve" smooth="yes"/>
      <point x="259.667" y="11.5"/>
      <point x="324" y="-10"/>
    </contour>
  </outline>
</glyph>
<glyph name="Y" format="2">
  <advance width="649"/>
  <unicode hex="0059"/>
  <note>
Y
</note>
  <outline>
    <contour>
      <point x="165" y="0" type="line"/>
      <point x="473" y="0" type="line"/>
      <point x="473" y="10" type="line"/>
      <point x="443.667" y="15.333"/>
      <point x="408" y="20.667"/>
      <point x="388" y="50" type="curve" smooth="yes"/>
      <point x="377.333" y="64.667"/>
      <point x="377" y="106.333"/>
      <point x="377" y="145" type="curve" smooth="yes"/>
      <point x="377" y="346" type="line"/>
      <point x="395.857" y="374.285"/>
      <point x="500.448" y="533.626"/>
      <point x="531" y="582" type="curve" smooth="yes"/>
      <point x="576.893" y="653.39"/>
      <point x="608.417" y="699.488"/>
      <point x="682" y="710" type="curve"/>
      <point x="682" y="720" type="line"/>
      <point x="451" y="720" type="line"/>
      <point x="451" y="710" type="line"/>
      <point x="491.396" y="704.229"/>
      <point x="536" y="699.211"/>
      <point x="536" y="659" type="curve" smooth="yes"/>
      <point x="536" y="634.962"/>
      <point x="511.549" y="591.479"/>
      <point x="500" y="573" type="curve"/>
      <point x="476.954" y="532.029"/>
      <point x="396.895" y="407.155"/>
      <point x="366" y="362" type="curve"/>
      <point x="362.387" y="368.097"/>
      <point x="240.708" y="567.296"/>
      <point x="236" y="575" type="curve" smooth="yes"/>
      <point x="214.667" y="611"/>
      <point x="191" y="650.667"/>
      <point x="191" y="668" type="curve" smooth="yes"/>
      <point x="191" y="701.024"/>
      <point x="238.91" y="707.394"/>
      <point x="278" y="710" type="curve"/>
      <point x="278" y="720" type="line"/>
      <point x="-25" y="720" type="line"/>
      <point x="-25" y="710" type="line"/>
      <point x="29.537" y="707.273"/>
      <point x="65.161" y="643.386"/>
      <point x="108" y="578" type="curve" smooth="yes"/>
      <point x="126.309" y="550.536"/>
      <point x="172.916" y="475.054"/>
      <point x="199.5" y="431" type="curve" smooth="yes"/>
      <point x="220.49" y="396.217"/>
      <point x="260.597" y="331.104"/>
      <point x="268" y="320" type="curve"/>
      <point x="268" y="246.667"/>
      <point x="267.333" y="197.333"/>
      <point x="266" y="160" type="curve"/>
      <point x="266" y="125.787"/>
      <point x="264.767" y="63.767"/>
      <point x="252" y="51" type="curve"/>
      <point x="222.667" y="17.667"/>
      <point x="199.667" y="14"/>
      <point x="165" y="10" type="curve"/>
    </contour>
  </outline>
</glyph>
<glyph name="Z" format="2">
  <advance width="694"/>
  <unicode hex="005A"/>
  <note>
Z
</note>
  <outline>
    <contour>
      <point x="20" y="0" type="line"/>
      <point x="623" y="0" type="line"/>
      <point x="695" y="225" type="line"/>
      <point x="684" y="229" type="line"/>
      <point x="617.333" y="114.333"/>
      <point x="532" y="34"/>
      <point x="424" y="22" type="curve" smooth="yes"/>
      <point x="385.333" y="18"/>
      <point x="347.667" y="17"/>
      <point x="325" y="17" type="curve" smooth="yes"/>
      <point x="298.333" y="17"/>
      <point x="271.333" y="17"/>
      <point x="244" y="17" type="curve" smooth="yes"/>
      <point x="217.333" y="17"/>
      <point x="187.333" y="17.333"/>
      <point x="154" y="18" type="curve"/>
      <point x="659" y="712" type="line"/>
      <point x="656" y="718" type="line"/>
      <point x="631.333" y="718"/>
      <point x="601.333" y="718"/>
      <point x="566" y="718" type="curve" smooth="yes"/>
      <point x="531.333" y="718"/>
      <point x="494.333" y="718"/>
      <point x="455" y="718" type="curve" smooth="yes"/>
      <point x="415.667" y="718"/>
      <point x="376" y="718"/>
      <point x="336" y="718" type="curve" smooth="yes"/>
      <point x="250.988" y="718"/>
      <point x="123.394" y="718.4"/>
      <point x="87" y="721" type="curve"/>
      <point x="14" y="508" type="line"/>
      <point x="25" y="504" type="line"/>
      <point x="52.672" y="549.281"/>
      <point x="118.228" y="623.857"/>
      <point x="152" y="652" type="curve" smooth="yes"/>
      <point x="185.333" y="678.667"/>
      <point x="225.333" y="697.333"/>
      <point x="276" y="700" type="curve" smooth="yes"/>
      <point x="301.333" y="701.333"/>
      <point x="348" y="702"/>
      <point x="396" y="702" type="curve" smooth="yes"/>
      <point x="420" y="702"/>
      <point x="443.333" y="702"/>
      <point x="466" y="702" type="curve" smooth="yes"/>
      <point x="489.333" y="702"/>
      <point x="508" y="702"/>
      <point x="522" y="702" type="curve"/>
      <point x="16" y="7" type="line"/>
    </contour>
  </outline>
</glyph>
<glyph name="grave" format="2">
  <advance width="500"/>
  <unicode hex="0060"/>
  <note>
grave
</note>
  <outline>
    <contour>
      <point x="295" y="514" type="line"/>
      <point x="305" y="520" type="line"/>
      <point x="204" y="696" type="line"/>
      <point x="174.667" y="696"/>
      <point x="166" y="682.667"/>
      <point x="158" y="672" type="curve"/>
      <point x="158" y="667" type="line"/>
    </contour>
  </outline>
</glyph>
<glyph name="a" format="2">
  <advance width="448"/>
  <unicode hex="0061"/>
  <note>
a
</note>
  <outline>
    <contour>
      <point x="366" y="-1" type="curve" smooth="yes"/>
      <point x="420.265" y="-1"/>
      <point x="462.158" y="44.005"/>
      <point x="465" y="98" type="curve"/>
      <point x="459" y="98" type="line"/>
      <point x="453.667" y="78"/>
      <point x="440.667" y="64"/>
      <point x="410" y="64" type="curve" smooth="yes"/>
      <point x="383.333" y="64"/>
      <point x="359" y="78"/>
      <point x="359" y="138" type="curve" smooth="yes"/>
      <point x="359" y="160.667"/>
      <point x="359.167" y="181.5"/>
      <point x="359.5" y="200.5" type="curve" smooth="yes"/>
      <point x="359.833" y="219.5"/>
      <point x="360" y="238"/>
      <point x="360" y="256" type="curve" smooth="yes"/>
      <point x="360" y="274"/>
      <point x="360.167" y="292.667"/>
      <point x="360.5" y="312" type="curve" smooth="yes"/>
      <point x="360.833" y="331.333"/>
      <point x="361" y="353"/>
      <point x="361" y="377" type="curve" smooth="yes"/>
      <point x="361" y="399.667"/>
      <point x="360.333" y="426.667"/>
      <point x="355" y="436" type="curve"/>
      <point x="341.667" y="462.667"/>
      <point x="307.667" y="483"/>
      <point x="273" y="483" type="curve" smooth="yes"/>
      <point x="234.324" y="483"/>
      <point x="150" y="443"/>
      <point x="90" y="408" type="curve" smooth="yes"/>
      <point x="63" y="392"/>
      <point x="31" y="375.174"/>
      <point x="31" y="343" type="curve" smooth="yes"/>
      <point x="31" y="323"/>
      <point x="48.667" y="305"/>
      <point x="70" y="305" type="curve" smooth="yes"/>
      <point x="92.667" y="305"/>
      <point x="116" y="322.333"/>
      <point x="116" y="341" type="curve" smooth="yes"/>
      <point x="116" y="386" type="line" smooth="yes"/>
      <point x="116" y="405.428"/>
      <point x="162.853" y="437"/>
      <point x="201" y="437" type="curve" smooth="yes"/>
      <point x="246.644" y="437"/>
      <point x="279" y="409.312"/>
      <point x="279" y="391" type="curve" smooth="yes"/>
      <point x="279" y="288" type="line"/>
      <point x="263.336" y="278.602"/>
      <point x="205.763" y="248.214"/>
      <point x="176.5" y="231" type="curve" smooth="yes"/>
      <point x="122.289" y="199.111"/>
      <point x="40" y="152.246"/>
      <point x="40" y="94" type="curve" smooth="yes"/>
      <point x="40" y="28.594"/>
      <point x="84.719" y="0"/>
      <point x="133" y="0" type="curve" smooth="yes"/>
      <point x="200.233" y="0"/>
      <point x="250.435" y="46.831"/>
      <point x="277" y="90" type="curve"/>
      <point x="279" y="89" type="line"/>
      <point x="279" y="22.333"/>
      <point x="320.667" y="-1"/>
    </contour>
    <contour>
      <point x="184" y="61" type="curve" smooth="yes"/>
      <point x="145.333" y="61"/>
      <point x="119" y="94.333"/>
      <point x="119" y="129" type="curve" smooth="yes"/>
      <point x="119" y="196.14"/>
      <point x="218.953" y="228.633"/>
      <point x="279" y="272" type="curve"/>
      <point x="279" y="118" type="line" smooth="yes"/>
      <point x="279" y="106.667"/>
      <point x="275" y="97.333"/>
      <point x="267" y="90" type="curve"/>
      <point x="244.333" y="67.333"/>
      <point x="218.667" y="61"/>
    </contour>
  </outline>
</glyph>
<glyph name="b" format="2">
  <advance width="538"/>
  <unicode hex="0062"/>
  <note>
b
</note>
  <outline>
    <contour>
      <point x="284" y="-1" type="curve" smooth="yes"/>
      <point x="419.697" y="-1"/>
      <point x="519" y="105.045"/>
      <point x="519" y="242" type="curve" smooth="yes"/>
      <point x="519" y="368.568"/>
      <point x="447.252" y="483"/>
      <point x="324" y="483" type="curve" smooth="yes"/>
      <point x="252.294" y="483"/>
      <point x="172.601" y="426.401"/>
      <point x="148" y="369" type="curve"/>
      <point x="146" y="370" type="line"/>
      <point x="149" y="726" type="line"/>
      <point x="141" y="726" type="line"/>
      <point x="7" y="665" type="line"/>
      <point x="7" y="659" type="line"/>
      <point x="29.667" y="647"/>
      <point x="53" y="634"/>
      <point x="65" y="626" type="curve"/>
      <point x="65" y="3" type="line"/>
      <point x="72" y="3" type="line"/>
      <point x="96" y="57" type="line"/>
      <point x="101" y="57" type="line"/>
      <point x="143.667" y="21"/>
      <point x="208" y="-1"/>
    </contour>
    <contour>
      <point x="287" y="13" type="curve" smooth="yes"/>
      <point x="191.066" y="13"/>
      <point x="150.837" y="99.377"/>
      <point x="148" y="193" type="curve" smooth="yes"/>
      <point x="147.333" y="205.667"/>
      <point x="147" y="218.333"/>
      <point x="147" y="231" type="curve" smooth="yes"/>
      <point x="147" y="244.333"/>
      <point x="147" y="257.667"/>
      <point x="147" y="271" type="curve" smooth="yes"/>
      <point x="147" y="280.333"/>
      <point x="147" y="292.333"/>
      <point x="147" y="307" type="curve" smooth="yes"/>
      <point x="147" y="322.333"/>
      <point x="147.333" y="334"/>
      <point x="148" y="342" type="curve"/>
      <point x="148" y="368.195"/>
      <point x="199.759" y="420"/>
      <point x="268" y="420" type="curve" smooth="yes"/>
      <point x="374.471" y="420"/>
      <point x="427" y="331.389"/>
      <point x="427" y="228" type="curve" smooth="yes"/>
      <point x="427" y="111.446"/>
      <point x="375.577" y="13"/>
    </contour>
  </outline>
</glyph>
<glyph name="d" format="2">
  <advance width="546"/>
  <unicode hex="0064"/>
  <note>
d
</note>
  <outline>
    <contour>
      <point x="379" y="-3" type="line"/>
      <point x="385" y="-3" type="line"/>
      <point x="533" y="39" type="line"/>
      <point x="533" y="46" type="line"/>
      <point x="520.333" y="51.333"/>
      <point x="506.667" y="57"/>
      <point x="492" y="63" type="curve" smooth="yes"/>
      <point x="477.333" y="69"/>
      <point x="467.333" y="73.667"/>
      <point x="462" y="77" type="curve"/>
      <point x="462" y="726" type="line"/>
      <point x="454" y="726" type="line"/>
      <point x="295" y="682" type="line"/>
      <point x="295" y="676" type="line"/>
      <point x="377" y="645" type="line"/>
      <point x="377" y="637.667"/>
      <point x="377" y="626"/>
      <point x="377" y="610" type="curve" smooth="yes"/>
      <point x="377" y="594.667"/>
      <point x="377" y="578"/>
      <point x="377" y="560" type="curve" smooth="yes"/>
      <point x="377" y="524"/>
      <point x="377.667" y="486"/>
      <point x="379" y="466" type="curve"/>
      <point x="349.667" y="475.333"/>
      <point x="314" y="483"/>
      <point x="274" y="483" type="curve" smooth="yes"/>
      <point x="124.75" y="483"/>
      <point x="19" y="377.572"/>
      <point x="19" y="236" type="curve" smooth="yes"/>
      <point x="19" y="89.911"/>
      <point x="102.768" y="-1"/>
      <point x="211" y="-1" type="curve" smooth="yes"/>
      <point x="289.667" y="-1"/>
      <point x="339.333" y="30.333"/>
      <point x="378" y="97" type="curve"/>
      <point x="379" y="97" type="line"/>
    </contour>
    <contour>
      <point x="270" y="36" type="curve" smooth="yes"/>
      <point x="166.322" y="36"/>
      <point x="112" y="139.422"/>
      <point x="112" y="249" type="curve" smooth="yes"/>
      <point x="112" y="359.746"/>
      <point x="156.622" y="464"/>
      <point x="259" y="464" type="curve" smooth="yes"/>
      <point x="297.667" y="464"/>
      <point x="348.667" y="427.667"/>
      <point x="378" y="373" type="curve"/>
      <point x="378" y="135" type="line"/>
      <point x="367.333" y="77.667"/>
      <point x="324.667" y="36"/>
    </contour>
  </outline>
</glyph>
<glyph name="g" format="2">
  <advance width="525"/>
  <unicode hex="0067"/>
  <note>
g
</note>
  <outline>
    <contour>
      <point x="244" y="-250" type="curve" smooth="yes"/>
      <point x="386.788" y="-250"/>
      <point x="505" y="-166.09"/>
      <point x="505" y="-55" type="curve" smooth="yes"/>
      <point x="505" y="24.257"/>
      <point x="442.807" y="84"/>
      <point x="353" y="84" type="curve" smooth="yes"/>
      <point x="193" y="84" type="line" smooth="yes"/>
      <point x="147.283" y="84"/>
      <point x="90" y="94.195"/>
      <point x="90" y="137" type="curve" smooth="yes"/>
      <point x="90" y="163.667"/>
      <point x="117.333" y="182.333"/>
      <point x="160" y="185" type="curve"/>
      <point x="173.333" y="185"/>
      <point x="184.833" y="184.333"/>
      <point x="194.5" y="183" type="curve" smooth="yes"/>
      <point x="204.167" y="181.667"/>
      <point x="213.667" y="181"/>
      <point x="223" y="181" type="curve" smooth="yes"/>
      <point x="352.333" y="181"/>
      <point x="430" y="233.667"/>
      <point x="430" y="339" type="curve" smooth="yes"/>
      <point x="430" y="381.667"/>
      <point x="414" y="403.333"/>
      <point x="394" y="434" type="curve"/>
      <point x="398" y="438" type="line"/>
      <point x="424.66" y="422.448"/>
      <point x="482.352" y="390"/>
      <point x="499" y="390" type="curve" smooth="yes"/>
      <point x="519" y="390"/>
      <point x="535" y="408"/>
      <point x="535" y="428" type="curve" smooth="yes"/>
      <point x="535" y="450.667"/>
      <point x="518.667" y="469"/>
      <point x="496" y="469" type="curve" smooth="yes"/>
      <point x="467.252" y="469"/>
      <point x="448.829" y="446"/>
      <point x="419" y="446" type="curve" smooth="yes"/>
      <point x="403" y="446"/>
      <point x="394" y="446.667"/>
      <point x="378" y="452" type="curve"/>
      <point x="335.333" y="474.667"/>
      <point x="299.667" y="483"/>
      <point x="249" y="483" type="curve" smooth="yes"/>
      <point x="141.56" y="483"/>
      <point x="55" y="418.49"/>
      <point x="55" y="330" type="curve" smooth="yes"/>
      <point x="55" y="262"/>
      <point x="89.333" y="218.667"/>
      <point x="148" y="196" type="curve"/>
      <point x="148" y="193" type="line"/>
      <point x="84.758" y="185.411"/>
      <point x="30" y="141.498"/>
      <point x="30" y="90" type="curve" smooth="yes"/>
      <point x="30" y="39.333"/>
      <point x="68" y="8"/>
      <point x="136" y="0" type="curve"/>
      <point x="136" y="-2" type="line"/>
      <point x="83.034" y="-34.789"/>
      <point x="14" y="-74.099"/>
      <point x="14" y="-128" type="curve" smooth="yes"/>
      <point x="14" y="-204"/>
      <point x="98.667" y="-250"/>
    </contour>
    <contour>
      <point x="260" y="-227" type="curve" smooth="yes"/>
      <point x="188.678" y="-227"/>
      <point x="89" y="-179.198"/>
      <point x="89" y="-98" type="curve" smooth="yes"/>
      <point x="89" y="-56.667"/>
      <point x="109.333" y="-19"/>
      <point x="172" y="-3" type="curve"/>
      <point x="190.667" y="-0.333"/>
      <point x="223" y="3"/>
      <point x="251" y="3" type="curve" smooth="yes"/>
      <point x="328.333" y="3"/>
      <point x="367.667" y="-2.333"/>
      <point x="397" y="-17" type="curve" smooth="yes"/>
      <point x="419.667" y="-27.667"/>
      <point x="438" y="-57.333"/>
      <point x="438" y="-96" type="curve" smooth="yes"/>
      <point x="438" y="-153.333"/>
      <point x="396.667" y="-196.333"/>
      <point x="350" y="-215" type="curve"/>
      <point x="327.333" y="-223"/>
      <point x="300" y="-227"/>
    </contour>
    <contour>
      <point x="240" y="196" type="curve" smooth="yes"/>
      <point x="181.333" y="196"/>
      <point x="135" y="249"/>
      <point x="135" y="329" type="curve" smooth="yes"/>
      <point x="135" y="400.589"/>
      <point x="173.732" y="467"/>
      <point x="241" y="467" type="curve" smooth="yes"/>
      <point x="311.486" y="467"/>
      <point x="350" y="408.89"/>
      <point x="350" y="339" type="curve" smooth="yes"/>
      <point x="350" y="264.99"/>
      <point x="311.06" y="196"/>
    </contour>
  </outline>
</glyph>
<glyph name="h" format="2">
  <advance width="524"/>
  <unicode hex="0068"/>
  <note>
h
</note>
  <outline>
    <contour>
      <point x="25" y="0" type="line"/>
      <point x="224" y="0" type="line"/>
      <point x="224" y="10" type="line"/>
      <point x="197.111" y="15.378"/>
      <point x="168" y="13.483"/>
      <point x="168" y="38" type="curve" smooth="yes"/>
      <point x="168" y="345" type="line" smooth="yes"/>
      <point x="168" y="355.667"/>
      <point x="174.333" y="371"/>
      <point x="177" y="375" type="curve" smooth="yes"/>
      <point x="197" y="404.333"/>
      <point x="230" y="423"/>
      <point x="278" y="423" type="curve" smooth="yes"/>
      <point x="351.917" y="423"/>
      <point x="371" y="366.848"/>
      <point x="371" y="288" type="curve" smooth="yes"/>
      <point x="371" y="38" type="line" smooth="yes"/>
      <point x="371" y="16.667"/>
      <point x="344" y="13.667"/>
      <point x="308" y="11" type="curve"/>
      <point x="308" y="0" type="line"/>
      <point x="514" y="0" type="line"/>
      <point x="514" y="9" type="line"/>
      <point x="490.054" y="11.661"/>
      <point x="455" y="15.808"/>
      <point x="455" y="35" type="curve" smooth="yes"/>
      <point x="455" y="330" type="line" smooth="yes"/>
      <point x="455" y="419.933"/>
      <point x="426.845" y="483"/>
      <point x="339" y="483" type="curve" smooth="yes"/>
      <point x="256.281" y="483"/>
      <point x="190.364" y="422.727"/>
      <point x="168" y="378" type="curve"/>
      <point x="166" y="379" type="line"/>
      <point x="169" y="726" type="line"/>
      <point x="161" y="726" type="line"/>
      <point x="27" y="665" type="line"/>
      <point x="27" y="659" type="line"/>
      <point x="35.667" y="653.667"/>
      <point x="44.5" y="648.833"/>
      <point x="53.5" y="644.5" type="curve" smooth="yes"/>
      <point x="62.5" y="640.167"/>
      <point x="69.667" y="635.667"/>
      <point x="75" y="631" type="curve"/>
      <point x="84.333" y="624.333"/>
      <point x="85" y="620.667"/>
      <point x="85" y="610" type="curve" smooth="yes"/>
      <point x="85" y="42" type="line" smooth="yes"/>
      <point x="85" y="16.667"/>
      <point x="55.667" y="12.667"/>
      <point x="25" y="10" type="curve"/>
    </contour>
  </outline>
</glyph>
<glyph name="j" format="2">
  <advance width="246"/>
  <unicode hex="006A"/>
  <note>
j
</note>
  <outline>
    <contour>
      <point x="-18" y="-241" type="curve" smooth="yes"/>
      <point x="68.34" y="-241"/>
      <point x="172" y="-134.337"/>
      <point x="172" y="-61" type="curve" smooth="yes"/>
      <point x="172" y="-47.667"/>
      <point x="172" y="-27"/>
      <point x="172" y="1" type="curve" smooth="yes"/>
      <point x="172" y="30.333"/>
      <point x="172" y="63.667"/>
      <point x="172" y="101" type="curve" smooth="yes"/>
      <point x="172" y="139"/>
      <point x="171.833" y="178.333"/>
      <point x="171.5" y="219" type="curve" smooth="yes"/>
      <point x="171.167" y="259.667"/>
      <point x="171" y="298"/>
      <point x="171" y="334" type="curve" smooth="yes"/>
      <point x="171" y="370.667"/>
      <point x="171" y="402.333"/>
      <point x="171" y="429" type="curve" smooth="yes"/>
      <point x="171" y="455.667"/>
      <point x="171" y="473.667"/>
      <point x="171" y="483" type="curve"/>
      <point x="165" y="483" type="line"/>
      <point x="25" y="429" type="line"/>
      <point x="25" y="422" type="line"/>
      <point x="33" y="417.333"/>
      <point x="42.5" y="412"/>
      <point x="53.5" y="406" type="curve" smooth="yes"/>
      <point x="64.5" y="400"/>
      <point x="72.667" y="394.667"/>
      <point x="78" y="390" type="curve" smooth="yes"/>
      <point x="87.333" y="382"/>
      <point x="88" y="379.667"/>
      <point x="88" y="369" type="curve" smooth="yes"/>
      <point x="88" y="44" type="line" smooth="yes"/>
      <point x="88" y="18.667"/>
      <point x="87.667" y="-36"/>
      <point x="85" y="-88" type="curve" smooth="yes"/>
      <point x="82.149" y="-142.171"/>
      <point x="81.726" y="-203.321"/>
      <point x="31" y="-214" type="curve"/>
      <point x="-16.069" y="-211.231"/>
      <point x="3.274" y="-131"/>
      <point x="-52" y="-131" type="curve" smooth="yes"/>
      <point x="-85.333" y="-131"/>
      <point x="-102" y="-149.667"/>
      <point x="-102" y="-179" type="curve" smooth="yes"/>
      <point x="-102" y="-218.268"/>
      <point x="-58.328" y="-241"/>
    </contour>
    <contour>
      <point x="125" y="585" type="curve" smooth="yes"/>
      <point x="155.667" y="585"/>
      <point x="179" y="608.333"/>
      <point x="179" y="639" type="curve" smooth="yes"/>
      <point x="179" y="669.667"/>
      <point x="155.667" y="692"/>
      <point x="125" y="692" type="curve" smooth="yes"/>
      <point x="94.333" y="692"/>
      <point x="71" y="669.667"/>
      <point x="71" y="639" type="curve" smooth="yes"/>
      <point x="71" y="609.667"/>
      <point x="95.667" y="585"/>
    </contour>
  </outline>
</glyph>
<glyph name="l" format="2">
  <advance width="246"/>
  <unicode hex="006C"/>
  <note>
l
</note>
  <outline>
    <contour>
      <point x="7" y="0" type="line"/>
      <point x="240" y="0" type="line"/>
      <point x="240" y="11" type="line"/>
      <point x="200.398" y="15.169"/>
      <point x="166" y="8.762"/>
      <point x="166" y="38" type="curve" smooth="yes"/>
      <point x="166" y="723" type="line"/>
      <point x="159" y="723" type="line"/>
      <point x="16" y="676" type="line"/>
      <point x="16" y="670" type="line"/>
      <point x="24" y="666.667"/>
      <point x="34" y="661.5"/>
      <point x="46" y="654.5" type="curve" smooth="yes"/>
      <point x="58" y="647.5"/>
      <point x="67" y="642.333"/>
      <point x="73" y="639" type="curve"/>
      <point x="82.333" y="632.333"/>
      <point x="83" y="628.667"/>
      <point x="83" y="618" type="curve" smooth="yes"/>
      <point x="83" y="43" type="line" smooth="yes"/>
      <point x="83" y="32.333"/>
      <point x="78" y="24.833"/>
      <point x="68" y="20.5" type="curve" smooth="yes"/>
      <point x="58" y="16.167"/>
      <point x="37.667" y="13"/>
      <point x="7" y="11" type="curve"/>
    </contour>
  </outline>
</glyph>
<glyph name="n" format="2">
  <advance width="521"/>
  <unicode hex="006E"/>
  <note>
n
</note>
  <outline>
    <contour>
      <point x="28" y="0" type="line"/>
      <point x="221" y="0" type="line"/>
      <point x="221" y="10" type="line"/>
      <point x="194.954" y="15.209"/>
      <point x="172.192" y="10.04"/>
      <point x="167" y="36" type="curve"/>
      <point x="167" y="364" type="line"/>
      <point x="203" y="400"/>
      <point x="227" y="419"/>
      <point x="271" y="419" type="curve" smooth="yes"/>
      <point x="340.333" y="419"/>
      <point x="367" y="367.333"/>
      <point x="367" y="290" type="curve" smooth="yes"/>
      <point x="367" y="38" type="line" smooth="yes"/>
      <point x="367" y="16.667"/>
      <point x="344" y="13.667"/>
      <point x="308" y="11" type="curve"/>
      <point x="308" y="0" type="line"/>
      <point x="512" y="0" type="line"/>
      <point x="512" y="9" type="line"/>
      <point x="488.474" y="11.614"/>
      <point x="451" y="15.933"/>
      <point x="451" y="35" type="curve" smooth="yes"/>
      <point x="451" y="329" type="line" smooth="yes"/>
      <point x="451" y="419.667"/>
      <point x="408.333" y="483"/>
      <point x="331" y="483" type="curve" smooth="yes"/>
      <point x="260.317" y="483"/>
      <point x="200.491" y="424.213"/>
      <point x="168" y="374" type="curve"/>
      <point x="166" y="375" type="line"/>
      <point x="166" y="483" type="line"/>
      <point x="160" y="483" type="line"/>
      <point x="29" y="436" type="line"/>
      <point x="29" y="430" type="line"/>
      <point x="45" y="423.333"/>
      <point x="62" y="413.667"/>
      <point x="74" y="407" type="curve"/>
      <point x="83.333" y="400.333"/>
      <point x="84" y="396.667"/>
      <point x="84" y="386" type="curve" smooth="yes"/>
      <point x="84" y="42" type="line" smooth="yes"/>
      <point x="84" y="20.667"/>
      <point x="58.667" y="12.667"/>
      <point x="28" y="10" type="curve"/>
    </contour>
  </outline>
</glyph>
<glyph name="o" format="2">
  <advance width="573"/>
  <unicode hex="006F"/>
  <note>
o
</note>
  <outline>
    <contour>
      <point x="289" y="-3" type="curve" smooth="yes"/>
      <point x="416" y="-3"/>
      <point x="523" y="109"/>
      <point x="523" y="245" type="curve" smooth="yes"/>
      <point x="523" y="393"/>
      <point x="408" y="483"/>
      <point x="291" y="483" type="curve" smooth="yes"/>
      <point x="152" y="483"/>
      <point x="50" y="372"/>
      <point x="50" y="245" type="curve" smooth="yes"/>
      <point x="50" y="85"/>
      <point x="169" y="-3"/>
    </contour>
    <contour>
      <point x="290" y="11" type="curve" smooth="yes"/>
      <point x="184" y="11"/>
      <point x="143" y="118"/>
      <point x="143" y="239" type="curve" smooth="yes"/>
      <point x="143" y="347"/>
      <point x="194" y="467"/>
      <point x="284" y="467" type="curve" smooth="yes"/>
      <point x="389" y="467"/>
      <point x="430" y="346"/>
      <point x="430" y="246" type="curve" smooth="yes"/>
      <point x="430" y="146"/>
      <point x="390" y="11"/>
    </contour>
  </outline>
</glyph>
<glyph name="q" format="2">
  <advance width="548"/>
  <unicode hex="0071"/>
  <note>
q
</note>
  <outline>
    <contour>
      <point x="303" y="-230" type="line"/>
      <point x="543" y="-230" type="line"/>
      <point x="543" y="-219" type="line"/>
      <point x="513.739" y="-216.562"/>
      <point x="471" y="-206.262"/>
      <point x="471" y="-185" type="curve" smooth="yes"/>
      <point x="471" y="483" type="line"/>
      <point x="464" y="483" type="line"/>
      <point x="433" y="428" type="line"/>
      <point x="430" y="428" type="line"/>
      <point x="395.333" y="458.667"/>
      <point x="332.333" y="483"/>
      <point x="255" y="483" type="curve" smooth="yes"/>
      <point x="118.447" y="483"/>
      <point x="19" y="370.632"/>
      <point x="19" y="238" type="curve" smooth="yes"/>
      <point x="19" y="111.039"/>
      <point x="95.717" y="0"/>
      <point x="215" y="0" type="curve" smooth="yes"/>
      <point x="296.633" y="0"/>
      <point x="363.946" y="50.864"/>
      <point x="388" y="111" type="curve"/>
      <point x="390" y="110" type="line"/>
      <point x="390" y="87.811"/>
      <point x="388" y="3.782"/>
      <point x="388" y="-37" type="curve" smooth="yes"/>
      <point x="388" y="-59"/>
      <point x="387.833" y="-80.167"/>
      <point x="387.5" y="-100.5" type="curve" smooth="yes"/>
      <point x="387.167" y="-120.833"/>
      <point x="387" y="-139"/>
      <point x="387" y="-155" type="curve" smooth="yes"/>
      <point x="387" y="-171.667"/>
      <point x="387" y="-184"/>
      <point x="387" y="-192" type="curve"/>
      <point x="381.777" y="-212.892"/>
      <point x="330.838" y="-216.216"/>
      <point x="303" y="-219" type="curve"/>
    </contour>
    <contour>
      <point x="270" y="60" type="curve" smooth="yes"/>
      <point x="165.353" y="60"/>
      <point x="110" y="149.717"/>
      <point x="110" y="252" type="curve" smooth="yes"/>
      <point x="110" y="369.643"/>
      <point x="164.37" y="467"/>
      <point x="252" y="467" type="curve" smooth="yes"/>
      <point x="348.827" y="467"/>
      <point x="385.14" y="381.39"/>
      <point x="388" y="287" type="curve" smooth="yes"/>
      <point x="388.667" y="275.667"/>
      <point x="389" y="264"/>
      <point x="389" y="252" type="curve" smooth="yes"/>
      <point x="389" y="240.667"/>
      <point x="389" y="229.333"/>
      <point x="389" y="218" type="curve" smooth="yes"/>
      <point x="389" y="202.667"/>
      <point x="389" y="188"/>
      <point x="389" y="174" type="curve" smooth="yes"/>
      <point x="389" y="160"/>
      <point x="388.667" y="148"/>
      <point x="388" y="138" type="curve"/>
      <point x="388" y="111.422"/>
      <point x="336.508" y="60"/>
    </contour>
  </outline>
</glyph>
<glyph name="t" format="2">
  <advance width="324"/>
  <unicode hex="0074"/>
  <note>
t
</note>
  <outline>
    <contour>
      <point x="193" y="-2" type="curve" smooth="yes"/>
      <point x="272.212" y="-2"/>
      <point x="313.602" y="37.004"/>
      <point x="334" y="88" type="curve"/>
      <point x="328" y="91" type="line"/>
      <point x="309.333" y="64.333"/>
      <point x="285.667" y="52"/>
      <point x="247" y="52" type="curve" smooth="yes"/>
      <point x="200.333" y="52"/>
      <point x="168" y="81"/>
      <point x="168" y="149" type="curve" smooth="yes"/>
      <point x="168" y="412" type="line"/>
      <point x="320" y="412" type="line"/>
      <point x="351" y="473" type="line"/>
      <point x="166" y="473" type="line"/>
      <point x="166" y="560" type="line"/>
      <point x="158" y="560" type="line"/>
      <point x="13" y="423" type="line"/>
      <point x="13" y="412" type="line"/>
      <point x="86" y="412" type="line"/>
      <point x="86" y="368"/>
      <point x="85.667" y="317.833"/>
      <point x="85" y="261.5" type="curve" smooth="yes"/>
      <point x="84.333" y="205.167"/>
      <point x="84" y="145.667"/>
      <point x="84" y="83" type="curve" smooth="yes"/>
      <point x="84" y="36.792"/>
      <point x="140.102" y="-2"/>
    </contour>
  </outline>
</glyph>
<glyph name="u" format="2">
  <advance width="523"/>
  <unicode hex="0075"/>
  <note>
u
</note>
  <outline>
    <contour>
      <point x="196" y="-3" type="curve" smooth="yes"/>
      <point x="269.117" y="-3"/>
      <point x="321.276" y="47.336"/>
      <point x="356" y="101" type="curve"/>
      <point x="357" y="100" type="line"/>
      <point x="357" y="-1" type="line"/>
      <point x="364" y="-1" type="line"/>
      <point x="506" y="25" type="line"/>
      <point x="506" y="31" type="line"/>
      <point x="490" y="37.667"/>
      <point x="462" y="50.333"/>
      <point x="450" y="57" type="curve"/>
      <point x="440.667" y="63.667"/>
      <point x="440" y="67.333"/>
      <point x="440" y="78" type="curve" smooth="yes"/>
      <point x="440" y="473" type="line"/>
      <point x="272" y="473" type="line"/>
      <point x="272" y="462" type="line"/>
      <point x="301.333" y="459.333"/>
      <point x="331" y="455.667"/>
      <point x="347" y="449" type="curve"/>
      <point x="355" y="438.333"/>
      <point x="357" y="413.333"/>
      <point x="357" y="400" type="curve" smooth="yes"/>
      <point x="357" y="115" type="line"/>
      <point x="332.303" y="82.07"/>
      <point x="299.508" y="53"/>
      <point x="250" y="53" type="curve" smooth="yes"/>
      <point x="176.667" y="53"/>
      <point x="155" y="94"/>
      <point x="155" y="182" type="curve" smooth="yes"/>
      <point x="155" y="473" type="line"/>
      <point x="0" y="473" type="line"/>
      <point x="0" y="462" type="line"/>
      <point x="24.407" y="459.288"/>
      <point x="56.312" y="460.798"/>
      <point x="66" y="439" type="curve"/>
      <point x="68.661" y="435.009"/>
      <point x="71" y="409.997"/>
      <point x="71" y="401" type="curve" smooth="yes"/>
      <point x="71" y="396.333"/>
      <point x="71" y="392.667"/>
      <point x="71" y="390" type="curve" smooth="yes"/>
      <point x="71" y="146" type="line" smooth="yes"/>
      <point x="71" y="48.667"/>
      <point x="110.667" y="-3"/>
    </contour>
  </outline>
</glyph>
<glyph name="v" format="2">
  <advance width="443"/>
  <unicode hex="0076"/>
  <note>
v
</note>
  <outline>
    <contour>
      <point x="212" y="-4" type="curve" smooth="yes"/>
      <point x="216.667" y="-4"/>
      <point x="220" y="-2"/>
      <point x="222" y="2" type="curve" smooth="yes"/>
      <point x="227.132" y="13.119"/>
      <point x="259.859" y="86.183"/>
      <point x="266" y="100" type="curve"/>
      <point x="281.848" y="139.62"/>
      <point x="310.935" y="213.898"/>
      <point x="330" y="261" type="curve" smooth="yes"/>
      <point x="352.667" y="317"/>
      <point x="374" y="369.667"/>
      <point x="390" y="407" type="curve" smooth="yes"/>
      <point x="409.625" y="451.156"/>
      <point x="457.965" y="462"/>
      <point x="493" y="462" type="curve"/>
      <point x="493" y="473" type="line"/>
      <point x="299" y="473" type="line"/>
      <point x="299" y="463" type="line"/>
      <point x="305" y="462.333"/>
      <point x="312" y="462"/>
      <point x="320" y="462" type="curve" smooth="yes"/>
      <point x="344.466" y="462"/>
      <point x="369" y="453.487"/>
      <point x="369" y="427" type="curve" smooth="yes"/>
      <point x="369" y="409.254"/>
      <point x="345.508" y="348.104"/>
      <point x="326" y="295" type="curve" smooth="yes"/>
      <point x="302" y="229.667"/>
      <point x="273" y="156.333"/>
      <point x="253" y="107" type="curve"/>
      <point x="238.131" y="146.651"/>
      <point x="193.151" y="257.375"/>
      <point x="178" y="297" type="curve" smooth="yes"/>
      <point x="163.112" y="335.938"/>
      <point x="131" y="415.681"/>
      <point x="131" y="430" type="curve" smooth="yes"/>
      <point x="131" y="456.189"/>
      <point x="178.569" y="458.73"/>
      <point x="208" y="462" type="curve"/>
      <point x="208" y="473" type="line"/>
      <point x="-33" y="473" type="line"/>
      <point x="-33" y="462" type="line"/>
      <point x="-11" y="460.667"/>
      <point x="4.167" y="457.5"/>
      <point x="12.5" y="452.5" type="curve" smooth="yes"/>
      <point x="20.833" y="447.5"/>
      <point x="27" y="443"/>
      <point x="31" y="439" type="curve"/>
      <point x="39.715" y="423.313"/>
      <point x="65.818" y="358.817"/>
      <point x="74" y="337" type="curve" smooth="yes"/>
      <point x="102" y="263.667"/>
      <point x="124" y="206.833"/>
      <point x="144" y="155.5" type="curve" smooth="yes"/>
      <point x="158.959" y="117.106"/>
      <point x="186.663" y="44.863"/>
      <point x="203" y="3" type="curve"/>
      <point x="204.333" y="0.333"/>
      <point x="206.667" y="-4"/>
    </contour>
  </outline>
</glyph>
<glyph name="w" format="2">
  <advance width="739"/>
  <unicode hex="0077"/>
  <note>
w
</note>
  <outline>
    <contour>
      <point x="223" y="-2" type="curve" smooth="yes"/>
      <point x="227" y="-2"/>
      <point x="230.333" y="0"/>
      <point x="233" y="4" type="curve"/>
      <point x="239.667" y="18.667"/>
      <point x="245.333" y="32.333"/>
      <point x="250" y="45" type="curve" smooth="yes"/>
      <point x="254.667" y="57.667"/>
      <point x="261.667" y="73"/>
      <point x="271" y="91" type="curve"/>
      <point x="366" y="339" type="line"/>
      <point x="386.22" y="280.363"/>
      <point x="415.495" y="192.475"/>
      <point x="429" y="153" type="curve" smooth="yes"/>
      <point x="446.333" y="102.333"/>
      <point x="461.667" y="57"/>
      <point x="479" y="5" type="curve" smooth="yes"/>
      <point x="480.333" y="1"/>
      <point x="481.333" y="-2"/>
      <point x="488" y="-2" type="curve" smooth="yes"/>
      <point x="491.333" y="-2"/>
      <point x="494.333" y="0"/>
      <point x="497" y="4" type="curve"/>
      <point x="502.425" y="14.849"/>
      <point x="536.258" y="88.767"/>
      <point x="543" y="103" type="curve"/>
      <point x="559.153" y="143.382"/>
      <point x="590.522" y="215.537"/>
      <point x="609.5" y="260" type="curve" smooth="yes"/>
      <point x="628.877" y="305.398"/>
      <point x="658.058" y="371.468"/>
      <point x="672" y="404" type="curve" smooth="yes"/>
      <point x="694.292" y="456.015"/>
      <point x="722.696" y="458.475"/>
      <point x="765" y="462" type="curve"/>
      <point x="765" y="473" type="line"/>
      <point x="582" y="473" type="line"/>
      <point x="582" y="462" type="line"/>
      <point x="613.007" y="458.555"/>
      <point x="645" y="458.058"/>
      <point x="645" y="423" type="curve" smooth="yes"/>
      <point x="645" y="402.844"/>
      <point x="615.805" y="323.404"/>
      <point x="596.5" y="275.5" type="curve" smooth="yes"/>
      <point x="577.681" y="228.801"/>
      <point x="538.952" y="134.395"/>
      <point x="530" y="115" type="curve"/>
      <point x="515.029" y="154.924"/>
      <point x="479.892" y="251.092"/>
      <point x="462.5" y="301" type="curve" smooth="yes"/>
      <point x="449.31" y="338.85"/>
      <point x="422" y="415.708"/>
      <point x="422" y="430" type="curve" smooth="yes"/>
      <point x="422" y="455.558"/>
      <point x="467.655" y="458.707"/>
      <point x="494" y="462" type="curve"/>
      <point x="494" y="473" type="line"/>
      <point x="266" y="473" type="line"/>
      <point x="266" y="462" type="line"/>
      <point x="304.929" y="459.837"/>
      <point x="305.702" y="456.298"/>
      <point x="323" y="439" type="curve"/>
      <point x="336.333" y="415"/>
      <point x="346.667" y="390.667"/>
      <point x="356" y="364" type="curve"/>
      <point x="326.929" y="283.496"/>
      <point x="279.805" y="159.512"/>
      <point x="260" y="110" type="curve"/>
      <point x="237.727" y="163.923"/>
      <point x="198.614" y="257.145"/>
      <point x="175" y="315" type="curve" smooth="yes"/>
      <point x="153.443" y="367.815"/>
      <point x="130.124" y="426.503"/>
      <point x="126" y="443" type="curve"/>
      <point x="138.231" y="455.231"/>
      <point x="173.032" y="459.147"/>
      <point x="193" y="462" type="curve"/>
      <point x="193" y="473" type="line"/>
      <point x="-32" y="473" type="line"/>
      <point x="-32" y="462" type="line"/>
      <point x="-10" y="461.333"/>
      <point x="4.833" y="458.5"/>
      <point x="12.5" y="453.5" type="curve" smooth="yes"/>
      <point x="20.167" y="448.5"/>
      <point x="26" y="444.333"/>
      <point x="30" y="441" type="curve"/>
      <point x="40.667" y="423.667"/>
      <point x="51" y="399.667"/>
      <point x="59" y="381" type="curve" smooth="yes"/>
      <point x="115" y="246.333"/>
      <point x="162" y="131.667"/>
      <point x="214" y="5" type="curve"/>
      <point x="216.667" y="0.333"/>
      <point x="219.667" y="-2"/>
    </contour>
  </outline>
</glyph>
<glyph name="x" format="2">
  <advance width="458"/>
  <unicode hex="0078"/>
  <note>
x
</note>
  <outline>
    <contour>
      <point x="-8" y="0" type="line"/>
      <point x="187" y="0" type="line"/>
      <point x="187" y="11" type="line"/>
      <point x="152.333" y="12.333"/>
      <point x="135.333" y="15.667"/>
      <point x="126" y="45" type="curve"/>
      <point x="126" y="70.754"/>
      <point x="187.153" y="150.729"/>
      <point x="218" y="197" type="curve"/>
      <point x="244.693" y="148.062"/>
      <point x="289.782" y="71.838"/>
      <point x="292" y="43" type="curve"/>
      <point x="287.381" y="12.979"/>
      <point x="263.609" y="11"/>
      <point x="245" y="11" type="curve"/>
      <point x="245" y="0" type="line"/>
      <point x="478" y="0" type="line"/>
      <point x="478" y="11" type="line"/>
      <point x="422.868" y="14.063"/>
      <point x="410.769" y="20.62"/>
      <point x="367" y="96" type="curve" smooth="yes"/>
      <point x="333.234" y="153.884"/>
      <point x="301.181" y="203.638"/>
      <point x="271" y="264" type="curve"/>
      <point x="286.764" y="286.333"/>
      <point x="332.501" y="348.501"/>
      <point x="355" y="377" type="curve" smooth="yes"/>
      <point x="410.034" y="446.302"/>
      <point x="422.675" y="458.23"/>
      <point x="483" y="462" type="curve"/>
      <point x="483" y="473" type="line"/>
      <point x="292" y="473" type="line"/>
      <point x="292" y="462" type="line"/>
      <point x="329.333" y="459.333"/>
      <point x="349" y="454"/>
      <point x="353" y="426" type="curve"/>
      <point x="353" y="405.972"/>
      <point x="295.227" y="320.34"/>
      <point x="265" y="275" type="curve"/>
      <point x="239.193" y="316.936"/>
      <point x="187.502" y="413.987"/>
      <point x="184" y="435" type="curve"/>
      <point x="193.499" y="456.372"/>
      <point x="220.203" y="462"/>
      <point x="235" y="462" type="curve"/>
      <point x="235" y="473" type="line"/>
      <point x="-4" y="473" type="line"/>
      <point x="-4" y="462" type="line"/>
      <point x="21.333" y="458"/>
      <point x="47.667" y="456.667"/>
      <point x="73" y="438" type="curve"/>
      <point x="82.333" y="427.333"/>
      <point x="94.667" y="409.667"/>
      <point x="104" y="395" type="curve" smooth="yes"/>
      <point x="117.622" y="372.013"/>
      <point x="197.378" y="232.987"/>
      <point x="211" y="210" type="curve"/>
      <point x="189.667" y="179.333"/>
      <point x="157.667" y="133.667"/>
      <point x="119" y="87" type="curve" smooth="yes"/>
      <point x="62.371" y="16.78"/>
      <point x="37.363" y="11"/>
      <point x="-8" y="11" type="curve"/>
    </contour>
  </outline>
</glyph>
<glyph name="currency" format="2">
  <advance width="659"/>
  <unicode hex="00A4"/>
  <note>
currency
</note>
  <outline>
    <contour>
      <point x="65" y="76" type="line"/>
      <point x="188" y="198" type="line"/>
      <point x="231.333" y="166.667"/>
      <point x="278.667" y="151"/>
      <point x="330" y="151" type="curve" smooth="yes"/>
      <point x="379.333" y="151"/>
      <point x="426.333" y="166.667"/>
      <point x="471" y="198" type="curve"/>
      <point x="594" y="76" type="line"/>
      <point x="631" y="113" type="line"/>
      <point x="508" y="234" type="line"/>
      <point x="540.667" y="276.667"/>
      <point x="557" y="324"/>
      <point x="557" y="376" type="curve" smooth="yes"/>
      <point x="557" y="429.333"/>
      <point x="541" y="475.333"/>
      <point x="509" y="514" type="curve"/>
      <point x="632" y="637" type="line"/>
      <point x="593" y="674" type="line"/>
      <point x="471" y="554" type="line"/>
      <point x="426.333" y="588.667"/>
      <point x="379.333" y="606"/>
      <point x="330" y="606" type="curve" smooth="yes"/>
      <point x="280" y="606"/>
      <point x="232.667" y="588.667"/>
      <point x="188" y="554" type="curve"/>
      <point x="66" y="674" type="line"/>
      <point x="27" y="637" type="line"/>
      <point x="150" y="514" type="line"/>
      <point x="118.667" y="474.667"/>
      <point x="103" y="428.667"/>
      <point x="103" y="376" type="curve" smooth="yes"/>
      <point x="103" y="324.667"/>
      <point x="119" y="277.333"/>
      <point x="151" y="234" type="curve"/>
      <point x="28" y="113" type="line"/>
    </contour>
    <contour>
      <point x="330" y="205" type="curve" smooth="yes"/>
      <point x="281.333" y="205"/>
      <point x="240" y="222"/>
      <point x="206" y="256" type="curve" smooth="yes"/>
      <point x="172.667" y="290.667"/>
      <point x="156" y="331.667"/>
      <point x="156" y="379" type="curve" smooth="yes"/>
      <point x="156" y="426.333"/>
      <point x="172.667" y="467.333"/>
      <point x="206" y="502" type="curve" smooth="yes"/>
      <point x="240" y="536"/>
      <point x="281.333" y="553"/>
      <point x="330" y="553" type="curve" smooth="yes"/>
      <point x="424.667" y="553"/>
      <point x="503" y="475"/>
      <point x="503" y="379" type="curve" smooth="yes"/>
      <point x="503" y="283"/>
      <point x="424.667" y="205"/>
    </contour>
  </outline>
</glyph>
<glyph name="section" format="2">
  <advance width="468"/>
  <unicode hex="00A7"/>
  <note>
section
</note>
  <outline>
    <contour>
      <point x="148" y="-192" type="curve" smooth="yes"/>
      <point x="198.667" y="-192"/>
      <point x="264" y="-162.5"/>
      <point x="316" y="-108.5" type="curve" smooth="yes"/>
      <point x="368" y="-54.5"/>
      <point x="407" y="23"/>
      <point x="407" y="123" type="curve" smooth="yes"/>
      <point x="407" y="189.667"/>
      <point x="397.667" y="248"/>
      <point x="355" y="312" type="curve" smooth="yes"/>
      <point x="324.028" y="358.457"/>
      <point x="286.789" y="401.75"/>
      <point x="247" y="449" type="curve" smooth="yes"/>
      <point x="208.333" y="495.667"/>
      <point x="176" y="536"/>
      <point x="176" y="588" type="curve" smooth="yes"/>
      <point x="176" y="623.951"/>
      <point x="216.813" y="658"/>
      <point x="254" y="658" type="curve" smooth="yes"/>
      <point x="263.333" y="658"/>
      <point x="268.667" y="657.333"/>
      <point x="278" y="656" type="curve"/>
      <point x="294" y="629.333"/>
      <point x="308.667" y="606"/>
      <point x="342" y="606" type="curve" smooth="yes"/>
      <point x="368.667" y="606"/>
      <point x="395" y="633"/>
      <point x="395" y="665" type="curve" smooth="yes"/>
      <point x="395" y="698.333"/>
      <point x="373.667" y="728"/>
      <point x="339" y="728" type="curve" smooth="yes"/>
      <point x="276.333" y="728"/>
      <point x="209.833" y="679"/>
      <point x="158.5" y="607" type="curve" smooth="yes"/>
      <point x="107.167" y="535"/>
      <point x="71" y="438.667"/>
      <point x="71" y="344" type="curve" smooth="yes"/>
      <point x="71" y="284"/>
      <point x="82" y="246.333"/>
      <point x="110" y="193" type="curve" smooth="yes"/>
      <point x="149.793" y="119.099"/>
      <point x="179.302" y="100.613"/>
      <point x="233" y="32" type="curve" smooth="yes"/>
      <point x="265" y="-8"/>
      <point x="298" y="-43.667"/>
      <point x="298" y="-85" type="curve" smooth="yes"/>
      <point x="298" y="-122.466"/>
      <point x="243.198" y="-151.073"/>
      <point x="211" y="-154" type="curve"/>
      <point x="164.996" y="-126.939"/>
      <point x="159.247" y="-69"/>
      <point x="113" y="-69" type="curve" smooth="yes"/>
      <point x="85" y="-69"/>
      <point x="64" y="-94.667"/>
      <point x="64" y="-124" type="curve" smooth="yes"/>
      <point x="64" y="-168"/>
      <point x="102.667" y="-192"/>
    </contour>
    <contour>
      <point x="352" y="-17" type="line"/>
      <point x="341.333" y="31"/>
      <point x="313.667" y="63.667"/>
      <point x="279" y="109" type="curve" smooth="yes"/>
      <point x="240.985" y="159.02"/>
      <point x="181.707" y="224.94"/>
      <point x="149" y="274" type="curve" smooth="yes"/>
      <point x="118.333" y="320.667"/>
      <point x="104" y="354.667"/>
      <point x="104" y="412" type="curve" smooth="yes"/>
      <point x="104" y="444"/>
      <point x="109.333" y="466.667"/>
      <point x="120" y="496" type="curve"/>
      <point x="128" y="496" type="line"/>
      <point x="146.667" y="446.667"/>
      <point x="170.667" y="418.667"/>
      <point x="204" y="376" type="curve" smooth="yes"/>
      <point x="247.532" y="320.376"/>
      <point x="292.031" y="264.75"/>
      <point x="325" y="212" type="curve" smooth="yes"/>
      <point x="357.696" y="159.184"/>
      <point x="380" y="116.674"/>
      <point x="380" y="54" type="curve" smooth="yes"/>
      <point x="380" y="24.667"/>
      <point x="368" y="-6.333"/>
      <point x="360" y="-17" type="curve"/>
    </contour>
  </outline>
</glyph>
<glyph name="dieresis" format="2">
  <advance width="500"/>
  <unicode hex="00A8"/>
  <note>
dieresis
</note>
  <outline>
    <contour>
      <point x="334" y="554" type="curve" smooth="yes"/>
      <point x="359.333" y="554"/>
      <point x="380" y="574.667"/>
      <point x="380" y="600" type="curve" smooth="yes"/>
      <point x="380" y="625.333"/>
      <point x="359.333" y="646"/>
      <point x="334" y="646" type="curve" smooth="yes"/>
      <point x="308.667" y="646"/>
      <point x="288" y="625.333"/>
      <point x="288" y="600" type="curve" smooth="yes"/>
      <point x="288" y="574.667"/>
      <point x="308.667" y="554"/>
    </contour>
    <contour>
      <point x="167" y="554" type="curve" smooth="yes"/>
      <point x="192.333" y="554"/>
      <point x="213" y="574.667"/>
      <point x="213" y="600" type="curve" smooth="yes"/>
      <point x="213" y="625.333"/>
      <point x="192.333" y="646"/>
      <point x="167" y="646" type="curve" smooth="yes"/>
      <point x="141.667" y="646"/>
      <point x="121" y="625.333"/>
      <point x="121" y="600" type="curve" smooth="yes"/>
      <point x="121" y="574.667"/>
      <point x="141.667" y="554"/>
    </contour>
  </outline>
</glyph>
<glyph name="acute" format="2">
  <advance width="500"/>
  <unicode hex="00B4"/>
  <note>
acute
</note>
  <outline>
    <contour>
      <point x="206" y="514" type="line"/>
      <point x="346" y="667" type="line"/>
      <point x="346" y="672" type="line"/>
      <point x="338" y="682.667"/>
      <point x="329.333" y="696"/>
      <point x="300" y="696" type="curve"/>
      <point x="196" y="520" type="line"/>
    </contour>
  </outline>
</glyph>
<glyph name="cedilla" format="2">
  <advance width="500"/>
  <unicode hex="00B8"/>
  <note>
cedilla
</note>
  <outline>
    <contour>
      <point x="225" y="-222" type="curve" smooth="yes"/>
      <point x="268.836" y="-222"/>
      <point x="330" y="-188.893"/>
      <point x="330" y="-132" type="curve" smooth="yes"/>
      <point x="330" y="-105.584"/>
      <point x="313.531" y="-64.012"/>
      <point x="256" y="-41" type="curve"/>
      <point x="301" y="6" type="line"/>
      <point x="281" y="6" type="line"/>
      <point x="201" y="-75" type="line"/>
      <point x="249" y="-91"/>
      <point x="274" y="-120.333"/>
      <point x="274" y="-155" type="curve" smooth="yes"/>
      <point x="274" y="-191"/>
      <point x="254" y="-210"/>
      <point x="230" y="-210" type="curve" smooth="yes"/>
      <point x="215.333" y="-210"/>
      <point x="208" y="-199.667"/>
      <point x="208" y="-179" type="curve" smooth="yes"/>
      <point x="208" y="-176.333"/>
      <point x="208.167" y="-173.333"/>
      <point x="208.5" y="-170" type="curve" smooth="yes"/>
      <point x="208.833" y="-166.667"/>
      <point x="209" y="-163"/>
      <point x="209" y="-159" type="curve"/>
      <point x="203" y="-151.667"/>
      <point x="193.333" y="-148"/>
      <point x="180" y="-148" type="curve" smooth="yes"/>
      <point x="157.333" y="-148"/>
      <point x="149" y="-163.667"/>
      <point x="149" y="-177" type="curve" smooth="yes"/>
      <point x="149" y="-209"/>
      <point x="179.667" y="-222"/>
    </contour>
  </outline>
</glyph>
<glyph name="onesuperior" format="2">
  <advance width="201"/>
  <unicode hex="00B9"/>
  <note>
onesuperior
</note>
  <outline>
    <contour>
      <point x="32" y="394" type="line"/>
      <point x="189" y="394" type="line"/>
      <point x="189" y="404" type="line"/>
      <point x="177.088" y="404"/>
      <point x="145.899" y="409.101"/>
      <point x="140" y="415" type="curve"/>
      <point x="136" y="420.333"/>
      <point x="136" y="431.667"/>
      <point x="136" y="445" type="curve" smooth="yes"/>
      <point x="136" y="526" type="line" smooth="yes"/>
      <point x="136" y="540"/>
      <point x="136.167" y="553.5"/>
      <point x="136.5" y="566.5" type="curve" smooth="yes"/>
      <point x="136.833" y="579.5"/>
      <point x="137" y="590.333"/>
      <point x="137" y="599" type="curve" smooth="yes"/>
      <point x="137" y="604.333"/>
      <point x="137" y="609.667"/>
      <point x="137" y="615" type="curve" smooth="yes"/>
      <point x="137" y="621"/>
      <point x="138.333" y="626"/>
      <point x="141" y="630" type="curve" smooth="yes"/>
      <point x="144.333" y="635.333"/>
      <point x="151.833" y="638.667"/>
      <point x="163.5" y="640" type="curve" smooth="yes"/>
      <point x="175.167" y="641.333"/>
      <point x="183.667" y="642.333"/>
      <point x="189" y="643" type="curve"/>
      <point x="189" y="653" type="line"/>
      <point x="33" y="653" type="line"/>
      <point x="33" y="643" type="line"/>
      <point x="45" y="641.667"/>
      <point x="73.333" y="639.667"/>
      <point x="80" y="633" type="curve"/>
      <point x="85.333" y="626.333"/>
      <point x="85" y="610.667"/>
      <point x="85" y="596" type="curve" smooth="yes"/>
      <point x="85" y="524" type="line" smooth="yes"/>
      <point x="85" y="511.333"/>
      <point x="84.833" y="497.333"/>
      <point x="84.5" y="482" type="curve" smooth="yes"/>
      <point x="84.167" y="466.667"/>
      <point x="84" y="455.667"/>
      <point x="84" y="449" type="curve" smooth="yes"/>
      <point x="84" y="435.667"/>
      <point x="84.333" y="421.667"/>
      <point x="79" y="415" type="curve"/>
      <point x="72.333" y="408.333"/>
      <point x="44" y="405.333"/>
      <point x="32" y="404" type="curve"/>
    </contour>
  </outline>
</glyph>
<glyph name="onequarter" format="2">
  <advance width="500"/>
  <unicode hex="00BC"/>
  <note>
onequarter
</note>
  <outline>
    <contour>
      <point x="270" y="-192" type="line"/>
      <point x="336" y="-192" type="line"/>
      <point x="336" y="-76" type="line"/>
      <point x="430" y="-76" type="line"/>
      <point x="430" y="-29" type="line"/>
      <point x="334" y="-29" type="line"/>
      <point x="334" y="207" type="line"/>
      <point x="321" y="207" type="line"/>
      <point x="104" y="-27" type="line"/>
      <point x="74" y="-69" type="line"/>
      <point x="76" y="-76" type="line"/>
      <point x="270" y="-76" type="line"/>
    </contour>
    <contour>
      <point x="122" y="-29" type="line"/>
      <point x="270" y="128" type="line"/>
      <point x="270" y="-29" type="line"/>
    </contour>
    <contour>
      <point x="36" y="247" type="line"/>
      <point x="468" y="247" type="line"/>
      <point x="468" y="274" type="line"/>
      <point x="36" y="274" type="line"/>
    </contour>
    <contour>
      <point x="154" y="332" type="line"/>
      <point x="364" y="332" type="line"/>
      <point x="364" y="343" type="line"/>
      <point x="337.25" y="343"/>
      <point x="293" y="350.269"/>
      <point x="293" y="375" type="curve" smooth="yes"/>
      <point x="293" y="645" type="line" smooth="yes"/>
      <point x="293" y="667.793"/>
      <point x="337.531" y="678"/>
      <point x="364" y="678" type="curve"/>
      <point x="364" y="689" type="line"/>
      <point x="151" y="689" type="line"/>
      <point x="151" y="678" type="line"/>
      <point x="179.527" y="678"/>
      <point x="222" y="668.72"/>
      <point x="222" y="646" type="curve" smooth="yes"/>
      <point x="222" y="376" type="line" smooth="yes"/>
      <point x="222" y="353.329"/>
      <point x="181.906" y="343"/>
      <point x="154" y="343" type="curve"/>
    </contour>
  </outline>
</glyph>
<glyph name="threequarters" format="2">
  <advance width="500"/>
  <unicode hex="00BE"/>
  <note>
threequarters
</note>
  <outline>
    <contour>
      <point x="270" y="-192" type="line"/>
      <point x="336" y="-192" type="line"/>
      <point x="336" y="-76" type="line"/>
      <point x="430" y="-76" type="line"/>
      <point x="430" y="-29" type="line"/>
      <point x="334" y="-29" type="line"/>
      <point x="334" y="207" type="line"/>
      <point x="321" y="207" type="line"/>
      <point x="104" y="-27" type="line"/>
      <point x="74" y="-69" type="line"/>
      <point x="76" y="-76" type="line"/>
      <point x="270" y="-76" type="line"/>
    </contour>
    <contour>
      <point x="122" y="-29" type="line"/>
      <point x="270" y="128" type="line"/>
      <point x="270" y="-29" type="line"/>
    </contour>
    <contour>
      <point x="36" y="247" type="line"/>
      <point x="468" y="247" type="line"/>
      <point x="468" y="274" type="line"/>
      <point x="36" y="274" type="line"/>
    </contour>
    <contour>
      <point x="231" y="321" type="curve" smooth="yes"/>
      <point x="316.279" y="321"/>
      <point x="399" y="363.895"/>
      <point x="399" y="443" type="curve" smooth="yes"/>
      <point x="399" y="493.641"/>
      <point x="344.913" y="528.696"/>
      <point x="296" y="545" type="curve"/>
      <point x="342.667" y="573"/>
      <point x="372" y="588.667"/>
      <point x="372" y="622" type="curve" smooth="yes"/>
      <point x="372" y="670.573"/>
      <point x="321.779" y="706"/>
      <point x="266" y="706" type="curve" smooth="yes"/>
      <point x="209.309" y="706"/>
      <point x="151.536" y="667.932"/>
      <point x="149" y="602" type="curve"/>
      <point x="158" y="601" type="line"/>
      <point x="171.333" y="643.667"/>
      <point x="208.333" y="658"/>
      <point x="243" y="658" type="curve" smooth="yes"/>
      <point x="280.333" y="658"/>
      <point x="307" y="635.667"/>
      <point x="307" y="605" type="curve" smooth="yes"/>
      <point x="307" y="562.333"/>
      <point x="282" y="540.333"/>
      <point x="230" y="507" type="curve"/>
      <point x="231" y="500" type="line"/>
      <point x="297.667" y="490.667"/>
      <point x="333" y="460"/>
      <point x="333" y="412" type="curve" smooth="yes"/>
      <point x="333" y="365.49"/>
      <point x="285.274" y="337"/>
      <point x="259" y="337" type="curve" smooth="yes"/>
      <point x="206.679" y="337"/>
      <point x="194.034" y="373.939"/>
      <point x="174" y="410" type="curve"/>
      <point x="153.333" y="410"/>
      <point x="140" y="406.333"/>
      <point x="134" y="399" type="curve" smooth="yes"/>
      <point x="128" y="391.667"/>
      <point x="125" y="384.333"/>
      <point x="125" y="377" type="curve" smooth="yes"/>
      <point x="125" y="343.667"/>
      <point x="169.667" y="321"/>
    </contour>
  </outline>
</glyph>
<glyph name="Adieresis" format="2">
  <advance width="704"/>
  <unicode hex="00C4"/>
  <note>
Adieresis
</note>
  <outline>
    <contour>
      <point x="-32" y="0" type="line"/>
      <point x="181" y="0" type="line"/>
      <point x="181" y="10" type="line"/>
      <point x="144.682" y="15.587"/>
      <point x="98" y="23.116"/>
      <point x="98" y="58" type="curve" smooth="yes"/>
      <point x="98" y="72.667"/>
      <point x="105" y="98"/>
      <point x="119" y="134" type="curve" smooth="yes"/>
      <point x="128.333" y="157.333"/>
      <point x="137.667" y="180.5"/>
      <point x="147" y="203.5" type="curve" smooth="yes"/>
      <point x="156.333" y="226.5"/>
      <point x="166" y="250.667"/>
      <point x="176" y="276" type="curve"/>
      <point x="442" y="276" type="line"/>
      <point x="462" y="224"/>
      <point x="479.667" y="174.833"/>
      <point x="493" y="135.5" type="curve" smooth="yes"/>
      <point x="503.554" y="104.366"/>
      <point x="514" y="68.972"/>
      <point x="514" y="56" type="curve" smooth="yes"/>
      <point x="514" y="22.53"/>
      <point x="462.032" y="10"/>
      <point x="444" y="10" type="curve"/>
      <point x="444" y="0" type="line"/>
      <point x="736" y="0" type="line"/>
      <point x="736" y="12" type="line"/>
      <point x="683.262" y="14.293"/>
      <point x="651.008" y="51.985"/>
      <point x="640" y="74" type="curve" smooth="yes"/>
      <point x="632" y="91.333"/>
      <point x="624.833" y="106.833"/>
      <point x="618.5" y="120.5" type="curve" smooth="yes"/>
      <point x="612.167" y="134.167"/>
      <point x="605.333" y="151.333"/>
      <point x="598" y="172" type="curve" smooth="yes"/>
      <point x="566" y="256"/>
      <point x="534.5" y="341"/>
      <point x="500.5" y="433" type="curve" smooth="yes"/>
      <point x="472.98" y="507.467"/>
      <point x="420.03" y="648.241"/>
      <point x="388" y="734" type="curve"/>
      <point x="380" y="734" type="line"/>
      <point x="365.705" y="708.983"/>
      <point x="335.658" y="670.403"/>
      <point x="292" y="651" type="curve"/>
      <point x="302" y="629" type="line"/>
      <point x="275.074" y="566.173"/>
      <point x="227.134" y="451.237"/>
      <point x="196.5" y="380.5" type="curve" smooth="yes"/>
      <point x="159.833" y="295.833"/>
      <point x="124" y="212.667"/>
      <point x="96" y="150" type="curve" smooth="yes"/>
      <point x="80.667" y="116"/>
      <point x="67.667" y="90.333"/>
      <point x="57" y="73" type="curve" smooth="yes"/>
      <point x="46.333" y="55.667"/>
      <point x="38.667" y="44.667"/>
      <point x="34" y="40" type="curve"/>
      <point x="32" y="37.333"/>
      <point x="24.833" y="32.333"/>
      <point x="12.5" y="25" type="curve" smooth="yes"/>
      <point x="0.167" y="17.667"/>
      <point x="-14.667" y="13"/>
      <point x="-32" y="11" type="curve"/>
    </contour>
    <contour>
      <point x="185" y="297" type="line"/>
      <point x="210.437" y="359.532"/>
      <point x="247.687" y="451.557"/>
      <point x="267" y="497" type="curve" smooth="yes"/>
      <point x="284.789" y="538.856"/>
      <point x="305.439" y="589.618"/>
      <point x="313" y="606" type="curve"/>
      <point x="324.007" y="579.093"/>
      <point x="347.6" y="518.521"/>
      <point x="365.5" y="473.5" type="curve" smooth="yes"/>
      <point x="387.5" y="418.167"/>
      <point x="411.333" y="357"/>
      <point x="434" y="297" type="curve"/>
    </contour>
    <contour>
      <point x="274" y="769" type="curve" smooth="yes"/>
      <point x="299.333" y="769"/>
      <point x="320" y="789.667"/>
      <point x="320" y="815" type="curve" smooth="yes"/>
      <point x="320" y="840.333"/>
      <point x="299.333" y="861"/>
      <point x="274" y="861" type="curve" smooth="yes"/>
      <point x="248.667" y="861"/>
      <point x="228" y="840.333"/>
      <point x="228" y="815" type="curve" smooth="yes"/>
      <point x="228" y="789.667"/>
      <point x="248.667" y="769"/>
    </contour>
    <contour>
      <point x="450" y="769" type="curve" smooth="yes"/>
      <point x="475.333" y="769"/>
      <point x="496" y="789.667"/>
      <point x="496" y="815" type="curve" smooth="yes"/>
      <point x="496" y="840.333"/>
      <point x="475.333" y="861"/>
      <point x="450" y="861" type="curve" smooth="yes"/>
      <point x="424.667" y="861"/>
      <point x="404" y="840.333"/>
      <point x="404" y="815" type="curve" smooth="yes"/>
      <point x="404" y="789.667"/>
      <point x="424.667" y="769"/>
    </contour>
  </outline>
</glyph>
<glyph name="Ccedilla" format="2">
  <advance width="776"/>
  <unicode hex="00C7"/>
  <note>
Ccedilla
</note>
  <outline>
    <contour>
      <point x="396" y="-233" type="curve" smooth="yes"/>
      <point x="441.625" y="-233"/>
      <point x="508" y="-196.337"/>
      <point x="508" y="-137" type="curve" smooth="yes"/>
      <point x="508" y="-99.913"/>
      <point x="476.016" y="-56.924"/>
      <point x="418" y="-43" type="curve"/>
      <point x="446" y="-3" type="line"/>
      <point x="516.667" y="-1.667"/>
      <point x="570.667" y="14"/>
      <point x="608" y="30" type="curve" smooth="yes"/>
      <point x="634.912" y="41.534"/>
      <point x="664.981" y="61"/>
      <point x="668" y="61" type="curve" smooth="yes"/>
      <point x="671.333" y="61"/>
      <point x="677.333" y="56.333"/>
      <point x="686" y="47" type="curve" smooth="yes"/>
      <point x="694.667" y="37.667"/>
      <point x="703" y="27.333"/>
      <point x="711" y="16" type="curve"/>
      <point x="723" y="16" type="line"/>
      <point x="726" y="236" type="line"/>
      <point x="714" y="236" type="line"/>
      <point x="689.144" y="117.243"/>
      <point x="575.337" y="12"/>
      <point x="442" y="12" type="curve" smooth="yes"/>
      <point x="354" y="12"/>
      <point x="280.667" y="50.5"/>
      <point x="230" y="112.5" type="curve" smooth="yes"/>
      <point x="179.333" y="174.5"/>
      <point x="151" y="261"/>
      <point x="151" y="357" type="curve" smooth="yes"/>
      <point x="151" y="447.667"/>
      <point x="177.833" y="537"/>
      <point x="226.5" y="605" type="curve" smooth="yes"/>
      <point x="275.167" y="673"/>
      <point x="348" y="718"/>
      <point x="440" y="718" type="curve" smooth="yes"/>
      <point x="572.161" y="718"/>
      <point x="680.185" y="616.549"/>
      <point x="715" y="488" type="curve"/>
      <point x="727" y="489" type="line"/>
      <point x="727" y="713" type="line"/>
      <point x="716" y="713" type="line"/>
      <point x="707.59" y="700.385"/>
      <point x="678.317" y="665"/>
      <point x="670" y="665" type="curve" smooth="yes"/>
      <point x="668.216" y="665"/>
      <point x="632.261" y="688.62"/>
      <point x="606" y="700" type="curve" smooth="yes"/>
      <point x="566" y="717.333"/>
      <point x="506" y="735"/>
      <point x="426" y="735" type="curve" smooth="yes"/>
      <point x="264.307" y="735"/>
      <point x="149.145" y="664.615"/>
      <point x="87" y="564" type="curve" smooth="yes"/>
      <point x="43.568" y="494.026"/>
      <point x="28" y="416.502"/>
      <point x="28" y="362" type="curve" smooth="yes"/>
      <point x="28" y="255.333"/>
      <point x="66.833" y="163.167"/>
      <point x="135.5" y="98.5" type="curve" smooth="yes"/>
      <point x="204.167" y="33.833"/>
      <point x="305" y="-3"/>
      <point x="429" y="-3" type="curve"/>
      <point x="363" y="-83" type="line"/>
      <point x="419" y="-93.667"/>
      <point x="449" y="-122.333"/>
      <point x="449" y="-161" type="curve" smooth="yes"/>
      <point x="449" y="-199.667"/>
      <point x="427.667" y="-220"/>
      <point x="401" y="-220" type="curve" smooth="yes"/>
      <point x="383" y="-220"/>
      <point x="374" y="-209"/>
      <point x="374" y="-187" type="curve" smooth="yes"/>
      <point x="374" y="-184.333"/>
      <point x="374.167" y="-181.333"/>
      <point x="374.5" y="-178" type="curve" smooth="yes"/>
      <point x="374.833" y="-174.667"/>
      <point x="375" y="-170.667"/>
      <point x="375" y="-166" type="curve"/>
      <point x="368.333" y="-159.333"/>
      <point x="360" y="-154"/>
      <point x="344" y="-154" type="curve" smooth="yes"/>
      <point x="321.333" y="-154"/>
      <point x="312" y="-170.333"/>
      <point x="312" y="-185" type="curve" smooth="yes"/>
      <point x="312" y="-219.667"/>
      <point x="348" y="-233"/>
    </contour>
  </outline>
</glyph>
<glyph name="Ecircumflex" format="2">
  <advance width="711"/>
  <unicode hex="00CA"/>
  <note>
Ecircumflex
</note>
  <outline>
    <contour>
      <point x="41" y="0" type="line"/>
      <point x="653" y="0" type="line"/>
      <point x="703" y="191" type="line"/>
      <point x="692" y="194" type="line"/>
      <point x="631.211" y="89.444"/>
      <point x="573.718" y="32.215"/>
      <point x="484" y="21" type="curve" smooth="yes"/>
      <point x="445.333" y="15.667"/>
      <point x="407.667" y="15"/>
      <point x="385" y="15" type="curve" smooth="yes"/>
      <point x="265.674" y="15"/>
      <point x="256.834" y="21.296"/>
      <point x="253" y="144" type="curve" smooth="yes"/>
      <point x="253" y="155.333"/>
      <point x="252.833" y="168.833"/>
      <point x="252.5" y="184.5" type="curve" smooth="yes"/>
      <point x="252.167" y="200.167"/>
      <point x="252" y="217.333"/>
      <point x="252" y="236" type="curve" smooth="yes"/>
      <point x="252" y="255.333"/>
      <point x="252" y="275.333"/>
      <point x="252" y="296" type="curve" smooth="yes"/>
      <point x="252" y="317.333"/>
      <point x="252" y="338.667"/>
      <point x="252" y="360" type="curve"/>
      <point x="262.667" y="360"/>
      <point x="271.667" y="360"/>
      <point x="279" y="360" type="curve" smooth="yes"/>
      <point x="286.333" y="360"/>
      <point x="293" y="360"/>
      <point x="299" y="360" type="curve" smooth="yes"/>
      <point x="312.333" y="360"/>
      <point x="325" y="359.333"/>
      <point x="345" y="358" type="curve" smooth="yes"/>
      <point x="385" y="355.333"/>
      <point x="414.667" y="342.667"/>
      <point x="436" y="324" type="curve"/>
      <point x="460" y="301.333"/>
      <point x="484.333" y="249.667"/>
      <point x="495" y="207" type="curve"/>
      <point x="507" y="207" type="line"/>
      <point x="507" y="522" type="line"/>
      <point x="495" y="522" type="line"/>
      <point x="478.527" y="445.128"/>
      <point x="458.234" y="402.488"/>
      <point x="379" y="384" type="curve" smooth="yes"/>
      <point x="353.385" y="378.511"/>
      <point x="294.777" y="376"/>
      <point x="270" y="376" type="curve" smooth="yes"/>
      <point x="260" y="376"/>
      <point x="254" y="376"/>
      <point x="252" y="376" type="curve"/>
      <point x="252" y="381.333"/>
      <point x="252" y="393"/>
      <point x="252" y="411" type="curve" smooth="yes"/>
      <point x="252" y="429.667"/>
      <point x="252" y="451"/>
      <point x="252" y="475" type="curve" smooth="yes"/>
      <point x="252" y="524.333"/>
      <point x="252.667" y="582.333"/>
      <point x="254" y="629" type="curve" smooth="yes"/>
      <point x="255.624" y="658.237"/>
      <point x="259.594" y="686.566"/>
      <point x="262" y="701" type="curve"/>
      <point x="274" y="705"/>
      <point x="305" y="706"/>
      <point x="333" y="706" type="curve" smooth="yes"/>
      <point x="377" y="706"/>
      <point x="414.333" y="704"/>
      <point x="445" y="700" type="curve" smooth="yes"/>
      <point x="475.667" y="696"/>
      <point x="496.667" y="691.333"/>
      <point x="508" y="686" type="curve" smooth="yes"/>
      <point x="555.333" y="662.667"/>
      <point x="606" y="617.333"/>
      <point x="660" y="550" type="curve"/>
      <point x="670" y="555" type="line"/>
      <point x="602" y="720" type="line"/>
      <point x="50" y="720" type="line"/>
      <point x="50" y="710" type="line"/>
      <point x="86" y="704.667"/>
      <point x="106" y="702.333"/>
      <point x="126" y="681" type="curve" smooth="yes"/>
      <point x="142.15" y="664.85"/>
      <point x="143" y="597.599"/>
      <point x="143" y="558" type="curve" smooth="yes"/>
      <point x="143" y="363" type="line" smooth="yes"/>
      <point x="143" y="345"/>
      <point x="143" y="325.667"/>
      <point x="143" y="305" type="curve" smooth="yes"/>
      <point x="143" y="269.869"/>
      <point x="141" y="181.48"/>
      <point x="141" y="156" type="curve" smooth="yes"/>
      <point x="141" y="120.988"/>
      <point x="136.201" y="63.841"/>
      <point x="123" y="48" type="curve" smooth="yes"/>
      <point x="104.333" y="26.667"/>
      <point x="74.333" y="15.333"/>
      <point x="41" y="10" type="curve"/>
    </contour>
    <contour>
      <point x="280" y="764" type="line"/>
      <point x="380" y="868" type="line"/>
      <point x="481" y="764" type="line"/>
      <point x="494" y="771" type="line"/>
      <point x="388" y="934" type="line"/>
      <point x="373" y="934" type="line"/>
      <point x="267" y="771" type="line"/>
    </contour>
  </outline>
</glyph>
<glyph name="Edieresis" format="2">
  <advance width="711"/>
  <unicode hex="00CB"/>
  <note>
Edieresis
</note>
  <outline>
    <contour>
      <point x="41" y="0" type="line"/>
      <point x="653" y="0" type="line"/>
      <point x="703" y="191" type="line"/>
      <point x="692" y="194" type="line"/>
      <point x="631.211" y="89.444"/>
      <point x="573.718" y="32.215"/>
      <point x="484" y="21" type="curve" smooth="yes"/>
      <point x="445.333" y="15.667"/>
      <point x="407.667" y="15"/>
      <point x="385" y="15" type="curve" smooth="yes"/>
      <point x="265.674" y="15"/>
      <point x="256.834" y="21.296"/>
      <point x="253" y="144" type="curve" smooth="yes"/>
      <point x="253" y="155.333"/>
      <point x="252.833" y="168.833"/>
      <point x="252.5" y="184.5" type="curve" smooth="yes"/>
      <point x="252.167" y="200.167"/>
      <point x="252" y="217.333"/>
      <point x="252" y="236" type="curve" smooth="yes"/>
      <point x="252" y="255.333"/>
      <point x="252" y="275.333"/>
      <point x="252" y="296" type="curve" smooth="yes"/>
      <point x="252" y="317.333"/>
      <point x="252" y="338.667"/>
      <point x="252" y="360" type="curve"/>
      <point x="262.667" y="360"/>
      <point x="271.667" y="360"/>
      <point x="279" y="360" type="curve" smooth="yes"/>
      <point x="286.333" y="360"/>
      <point x="293" y="360"/>
      <point x="299" y="360" type="curve" smooth="yes"/>
      <point x="312.333" y="360"/>
      <point x="325" y="359.333"/>
      <point x="345" y="358" type="curve" smooth="yes"/>
      <point x="385" y="355.333"/>
      <point x="414.667" y="342.667"/>
      <point x="436" y="324" type="curve"/>
      <point x="460" y="301.333"/>
      <point x="484.333" y="249.667"/>
      <point x="495" y="207" type="curve"/>
      <point x="507" y="207" type="line"/>
      <point x="507" y="522" type="line"/>
      <point x="495" y="522" type="line"/>
      <point x="478.527" y="445.128"/>
      <point x="458.234" y="402.488"/>
      <point x="379" y="384" type="curve" smooth="yes"/>
      <point x="353.369" y="378.508"/>
      <point x="298.446" y="376"/>
      <point x="273" y="376" type="curve" smooth="yes"/>
      <point x="263" y="376"/>
      <point x="256" y="376"/>
      <point x="252" y="376" type="curve"/>
      <point x="252" y="381.333"/>
      <point x="252" y="393"/>
      <point x="252" y="411" type="curve" smooth="yes"/>
      <point x="252" y="429"/>
      <point x="252" y="450.333"/>
      <point x="252" y="475" type="curve" smooth="yes"/>
      <point x="252" y="524.333"/>
      <point x="252.667" y="582.333"/>
      <point x="254" y="629" type="curve" smooth="yes"/>
      <point x="255.624" y="658.237"/>
      <point x="259.594" y="686.566"/>
      <point x="262" y="701" type="curve"/>
      <point x="274" y="705"/>
      <point x="305" y="706"/>
      <point x="333" y="706" type="curve" smooth="yes"/>
      <point x="377" y="706"/>
      <point x="414.333" y="704"/>
      <point x="445" y="700" type="curve" smooth="yes"/>
      <point x="475.667" y="696"/>
      <point x="496.667" y="691.333"/>
      <point x="508" y="686" type="curve" smooth="yes"/>
      <point x="555.333" y="662.667"/>
      <point x="606" y="617.333"/>
      <point x="660" y="550" type="curve"/>
      <point x="670" y="555" type="line"/>
      <point x="602" y="720" type="line"/>
      <point x="50" y="720" type="line"/>
      <point x="50" y="710" type="line"/>
      <point x="86" y="704.667"/>
      <point x="106" y="702.333"/>
      <point x="126" y="681" type="curve" smooth="yes"/>
      <point x="142.15" y="664.85"/>
      <point x="143" y="597.599"/>
      <point x="143" y="558" type="curve" smooth="yes"/>
      <point x="143" y="363" type="line" smooth="yes"/>
      <point x="143" y="345"/>
      <point x="143" y="325.667"/>
      <point x="143" y="305" type="curve" smooth="yes"/>
      <point x="143" y="269.869"/>
      <point x="141" y="181.48"/>
      <point x="141" y="156" type="curve" smooth="yes"/>
      <point x="141" y="120.988"/>
      <point x="136.201" y="63.841"/>
      <point x="123" y="48" type="curve" smooth="yes"/>
      <point x="104.333" y="26.667"/>
      <point x="74.333" y="15.333"/>
      <point x="41" y="10" type="curve"/>
    </contour>
    <contour>
      <point x="297" y="784" type="curve" smooth="yes"/>
      <point x="322.333" y="784"/>
      <point x="343" y="804.667"/>
      <point x="343" y="830" type="curve" smooth="yes"/>
      <point x="343" y="855.333"/>
      <point x="322.333" y="876"/>
      <point x="297" y="876" type="curve" smooth="yes"/>
      <point x="271.667" y="876"/>
      <point x="251" y="855.333"/>
      <point x="251" y="830" type="curve" smooth="yes"/>
      <point x="251" y="804.667"/>
      <point x="271.667" y="784"/>
    </contour>
    <contour>
      <point x="474" y="784" type="curve" smooth="yes"/>
      <point x="499.333" y="784"/>
      <point x="520" y="804.667"/>
      <point x="520" y="830" type="curve" smooth="yes"/>
      <point x="520" y="855.333"/>
      <point x="499.333" y="876"/>
      <point x="474" y="876" type="curve" smooth="yes"/>
      <point x="448.667" y="876"/>
      <point x="428" y="855.333"/>
      <point x="428" y="830" type="curve" smooth="yes"/>
      <point x="428" y="804.667"/>
      <point x="448.667" y="784"/>
    </contour>
  </outline>
</glyph>
<glyph name="Idieresis" format="2">
  <advance width="399"/>
  <unicode hex="00CF"/>
  <note>
Idieresis
</note>
  <outline>
    <contour>
      <point x="46" y="0" type="line"/>
      <point x="349" y="0" type="line"/>
      <point x="349" y="10" type="line"/>
      <point x="321" y="12.667"/>
      <point x="280" y="24.333"/>
      <point x="264" y="47" type="curve" smooth="yes"/>
      <point x="253.333" y="61.667"/>
      <point x="254" y="102.333"/>
      <point x="254" y="141" type="curve" smooth="yes"/>
      <point x="254" y="367" type="line" smooth="yes"/>
      <point x="254" y="387.667"/>
      <point x="254" y="406.667"/>
      <point x="254" y="424" type="curve" smooth="yes"/>
      <point x="254" y="442"/>
      <point x="254" y="459.333"/>
      <point x="254" y="476" type="curve" smooth="yes"/>
      <point x="254" y="492.667"/>
      <point x="254.167" y="509.167"/>
      <point x="254.5" y="525.5" type="curve" smooth="yes"/>
      <point x="254.833" y="541.833"/>
      <point x="255" y="558.333"/>
      <point x="255" y="575" type="curve"/>
      <point x="255.667" y="590.333"/>
      <point x="256.167" y="606.667"/>
      <point x="256.5" y="624" type="curve" smooth="yes"/>
      <point x="256.833" y="641.333"/>
      <point x="260" y="655.667"/>
      <point x="266" y="667" type="curve" smooth="yes"/>
      <point x="283.333" y="699"/>
      <point x="320" y="706"/>
      <point x="348" y="710" type="curve"/>
      <point x="348" y="720" type="line"/>
      <point x="49" y="720" type="line"/>
      <point x="49" y="710" type="line"/>
      <point x="83.667" y="706"/>
      <point x="111.333" y="697.667"/>
      <point x="130" y="675" type="curve" smooth="yes"/>
      <point x="141.257" y="661.866"/>
      <point x="145" y="622.204"/>
      <point x="145" y="594" type="curve" smooth="yes"/>
      <point x="145" y="582"/>
      <point x="145" y="570"/>
      <point x="145" y="558" type="curve" smooth="yes"/>
      <point x="145" y="363" type="line" smooth="yes"/>
      <point x="145" y="345"/>
      <point x="145" y="325.667"/>
      <point x="145" y="305" type="curve" smooth="yes"/>
      <point x="145" y="269.869"/>
      <point x="143" y="181.48"/>
      <point x="143" y="156" type="curve" smooth="yes"/>
      <point x="143" y="119.286"/>
      <point x="141.92" y="64.504"/>
      <point x="129" y="49" type="curve" smooth="yes"/>
      <point x="109" y="26.333"/>
      <point x="79.333" y="15.333"/>
      <point x="46" y="10" type="curve"/>
    </contour>
    <contour>
      <point x="116" y="784" type="curve" smooth="yes"/>
      <point x="141.333" y="784"/>
      <point x="162" y="804.667"/>
      <point x="162" y="830" type="curve" smooth="yes"/>
      <point x="162" y="855.333"/>
      <point x="141.333" y="876"/>
      <point x="116" y="876" type="curve" smooth="yes"/>
      <point x="90.667" y="876"/>
      <point x="70" y="855.333"/>
      <point x="70" y="830" type="curve" smooth="yes"/>
      <point x="70" y="804.667"/>
      <point x="90.667" y="784"/>
    </contour>
    <contour>
      <point x="283" y="784" type="curve" smooth="yes"/>
      <point x="308.333" y="784"/>
      <point x="329" y="804.667"/>
      <point x="329" y="830" type="curve" smooth="yes"/>
      <point x="329" y="855.333"/>
      <point x="308.333" y="876"/>
      <point x="283" y="876" type="curve" smooth="yes"/>
      <point x="257.667" y="876"/>
      <point x="237" y="855.333"/>
      <point x="237" y="830" type="curve" smooth="yes"/>
      <point x="237" y="804.667"/>
      <point x="257.667" y="784"/>
    </contour>
  </outline>
</glyph>
<glyph name="Ntilde" format="2">
  <advance width="875"/>
  <unicode hex="00D1"/>
  <note>
Ntilde
</note>
  <outline>
    <contour>
      <point x="725" y="-3" type="curve" smooth="yes"/>
      <point x="731.667" y="-3"/>
      <point x="735" y="0.667"/>
      <point x="735" y="6" type="curve" smooth="yes"/>
      <point x="735" y="25.333"/>
      <point x="735" y="47"/>
      <point x="735" y="71" type="curve" smooth="yes"/>
      <point x="735" y="95"/>
      <point x="734.833" y="119.167"/>
      <point x="734.5" y="143.5" type="curve" smooth="yes"/>
      <point x="734.167" y="167.833"/>
      <point x="734" y="191.667"/>
      <point x="734" y="215" type="curve" smooth="yes"/>
      <point x="734" y="239"/>
      <point x="734" y="260.333"/>
      <point x="734" y="279" type="curve" smooth="yes"/>
      <point x="734" y="368.333"/>
      <point x="736.333" y="448.667"/>
      <point x="739" y="506" type="curve" smooth="yes"/>
      <point x="741.667" y="567.333"/>
      <point x="742.667" y="628"/>
      <point x="752" y="648" type="curve"/>
      <point x="768" y="686.667"/>
      <point x="796.667" y="703.333"/>
      <point x="846" y="710" type="curve"/>
      <point x="846" y="720" type="line"/>
      <point x="598" y="720" type="line"/>
      <point x="598" y="710" type="line"/>
      <point x="662" y="700.667"/>
      <point x="693.667" y="677.333"/>
      <point x="707" y="640" type="curve" smooth="yes"/>
      <point x="717.667" y="612"/>
      <point x="717" y="559.333"/>
      <point x="717" y="506" type="curve" smooth="yes"/>
      <point x="717" y="166" type="line"/>
      <point x="243" y="720" type="line"/>
      <point x="40" y="720" type="line"/>
      <point x="40" y="710" type="line"/>
      <point x="91.79" y="703.526"/>
      <point x="138.541" y="684.1"/>
      <point x="146" y="612" type="curve"/>
      <point x="146.667" y="592.667"/>
      <point x="147" y="576.333"/>
      <point x="147" y="563" type="curve" smooth="yes"/>
      <point x="147" y="550.333"/>
      <point x="147" y="538"/>
      <point x="147" y="526" type="curve" smooth="yes"/>
      <point x="147" y="514"/>
      <point x="147" y="501.667"/>
      <point x="147" y="489" type="curve" smooth="yes"/>
      <point x="147" y="476.333"/>
      <point x="147" y="460.333"/>
      <point x="147" y="441" type="curve" smooth="yes"/>
      <point x="147" y="351.667"/>
      <point x="145.667" y="271.333"/>
      <point x="143" y="214" type="curve" smooth="yes"/>
      <point x="140.333" y="138"/>
      <point x="137.667" y="82"/>
      <point x="119" y="54" type="curve" smooth="yes"/>
      <point x="100.333" y="24.667"/>
      <point x="65" y="14"/>
      <point x="33" y="10" type="curve"/>
      <point x="33" y="0" type="line"/>
      <point x="279" y="0" type="line"/>
      <point x="279" y="10" type="line"/>
      <point x="224.333" y="16.667"/>
      <point x="194.667" y="30.333"/>
      <point x="180" y="61" type="curve" smooth="yes"/>
      <point x="166.667" y="87.667"/>
      <point x="165" y="146"/>
      <point x="165" y="214" type="curve" smooth="yes"/>
      <point x="165" y="636" type="line"/>
      <point x="255.667" y="534.667"/>
      <point x="333.833" y="442.833"/>
      <point x="418.5" y="343.5" type="curve" smooth="yes"/>
      <point x="503.167" y="244.167"/>
      <point x="593.667" y="137.667"/>
      <point x="707" y="7" type="curve"/>
      <point x="713.667" y="0.333"/>
      <point x="719.667" y="-3"/>
    </contour>
    <contour>
      <point x="315" y="764" type="curve"/>
      <point x="329" y="764" type="line"/>
      <point x="348.136" y="813.207"/>
      <point x="359.46" y="812"/>
      <point x="414" y="812" type="curve"/>
      <point x="521" y="791" type="line"/>
      <point x="592.565" y="791"/>
      <point x="623.737" y="838.096"/>
      <point x="638" y="898" type="curve"/>
      <point x="623" y="898" type="line"/>
      <point x="612.333" y="850"/>
      <point x="584.667" y="845"/>
      <point x="534" y="845" type="curve"/>
      <point x="429" y="866" type="line"/>
      <point x="365" y="866"/>
      <point x="329.667" y="824"/>
    </contour>
  </outline>
</glyph>
<glyph name="Ograve" format="2">
  <advance width="808"/>
  <unicode hex="00D2"/>
  <note>
Ograve
</note>
  <outline>
    <contour>
      <point x="402" y="-5" type="curve" smooth="yes"/>
      <point x="504.667" y="-5"/>
      <point x="598.833" y="32.333"/>
      <point x="667.5" y="99" type="curve" smooth="yes"/>
      <point x="736.167" y="165.667"/>
      <point x="779" y="258.333"/>
      <point x="779" y="365" type="curve" smooth="yes"/>
      <point x="779" y="461"/>
      <point x="744.667" y="552.167"/>
      <point x="682" y="619.5" type="curve" smooth="yes"/>
      <point x="619.333" y="686.833"/>
      <point x="528.333" y="730"/>
      <point x="415" y="730" type="curve" smooth="yes"/>
      <point x="311" y="730"/>
      <point x="213.5" y="694.833"/>
      <point x="143.5" y="631.5" type="curve" smooth="yes"/>
      <point x="73.5" y="568.167"/>
      <point x="29" y="475.667"/>
      <point x="29" y="361" type="curve" smooth="yes"/>
      <point x="29" y="253"/>
      <point x="71" y="161.167"/>
      <point x="139" y="96.5" type="curve" smooth="yes"/>
      <point x="207" y="31.833"/>
      <point x="300.667" y="-5"/>
    </contour>
    <contour>
      <point x="406" y="10" type="curve" smooth="yes"/>
      <point x="322" y="10"/>
      <point x="258.5" y="52"/>
      <point x="216.5" y="116" type="curve" smooth="yes"/>
      <point x="174.5" y="180"/>
      <point x="153" y="267.333"/>
      <point x="153" y="358" type="curve" smooth="yes"/>
      <point x="153" y="444.667"/>
      <point x="171.833" y="533.333"/>
      <point x="212.5" y="600" type="curve" smooth="yes"/>
      <point x="253.167" y="666.667"/>
      <point x="316.333" y="713"/>
      <point x="403" y="713" type="curve" smooth="yes"/>
      <point x="569.104" y="713"/>
      <point x="655" y="532.116"/>
      <point x="655" y="364" type="curve" smooth="yes"/>
      <point x="655" y="280"/>
      <point x="634.333" y="191.833"/>
      <point x="593" y="124.5" type="curve" smooth="yes"/>
      <point x="551.667" y="57.167"/>
      <point x="490" y="10"/>
    </contour>
    <contour>
      <point x="480" y="760" type="line"/>
      <point x="491" y="767" type="line"/>
      <point x="355" y="934" type="line"/>
      <point x="325.667" y="934"/>
      <point x="310.667" y="918.667"/>
      <point x="304" y="908" type="curve"/>
      <point x="304" y="903" type="line"/>
    </contour>
  </outline>
</glyph>
<glyph name="Otilde" format="2">
  <advance width="808"/>
  <unicode hex="00D5"/>
  <note>
Otilde
</note>
  <outline>
    <contour>
      <point x="402" y="-5" type="curve" smooth="yes"/>
      <point x="504.667" y="-5"/>
      <point x="598.833" y="32.333"/>
      <point x="667.5" y="99" type="curve" smooth="yes"/>
      <point x="736.167" y="165.667"/>
      <point x="779" y="258.333"/>
      <point x="779" y="365" type="curve" smooth="yes"/>
      <point x="779" y="461"/>
      <point x="744.667" y="552.167"/>
      <point x="682" y="619.5" type="curve" smooth="yes"/>
      <point x="619.333" y="686.833"/>
      <point x="528.333" y="730"/>
      <point x="415" y="730" type="curve" smooth="yes"/>
      <point x="311" y="730"/>
      <point x="213.5" y="694.833"/>
      <point x="143.5" y="631.5" type="curve" smooth="yes"/>
      <point x="73.5" y="568.167"/>
      <point x="29" y="475.667"/>
      <point x="29" y="361" type="curve" smooth="yes"/>
      <point x="29" y="253"/>
      <point x="71" y="161.167"/>
      <point x="139" y="96.5" type="curve" smooth="yes"/>
      <point x="207" y="31.833"/>
      <point x="300.667" y="-5"/>
    </contour>
    <contour>
      <point x="406" y="10" type="curve" smooth="yes"/>
      <point x="322" y="10"/>
      <point x="258.5" y="52"/>
      <point x="216.5" y="116" type="curve" smooth="yes"/>
      <point x="174.5" y="180"/>
      <point x="153" y="267.333"/>
      <point x="153" y="358" type="curve" smooth="yes"/>
      <point x="153" y="444.667"/>
      <point x="171.833" y="533.333"/>
      <point x="212.5" y="600" type="curve" smooth="yes"/>
      <point x="253.167" y="666.667"/>
      <point x="316.333" y="713"/>
      <point x="403" y="713" type="curve" smooth="yes"/>
      <point x="569.104" y="713"/>
      <point x="655" y="532.116"/>
      <point x="655" y="364" type="curve" smooth="yes"/>
      <point x="655" y="280"/>
      <point x="634.333" y="191.833"/>
      <point x="593" y="124.5" type="curve" smooth="yes"/>
      <point x="551.667" y="57.167"/>
      <point x="490" y="10"/>
    </contour>
    <contour>
      <point x="247" y="764" type="curve"/>
      <point x="261" y="764" type="line"/>
      <point x="280.136" y="813.207"/>
      <point x="291.46" y="812"/>
      <point x="346" y="812" type="curve"/>
      <point x="453" y="791" type="line"/>
      <point x="524.565" y="791"/>
      <point x="555.737" y="838.096"/>
      <point x="570" y="898" type="curve"/>
      <point x="555" y="898" type="line"/>
      <point x="544.333" y="850"/>
      <point x="516.667" y="845"/>
      <point x="466" y="845" type="curve"/>
      <point x="361" y="866" type="line"/>
      <point x="297" y="866"/>
      <point x="261.667" y="824"/>
    </contour>
  </outline>
</glyph>
<glyph name="Odieresis" format="2">
  <advance width="808"/>
  <unicode hex="00D6"/>
  <note>
Odieresis
</note>
  <outline>
    <contour>
      <point x="402" y="-5" type="curve" smooth="yes"/>
      <point x="504.667" y="-5"/>
      <point x="598.833" y="32.333"/>
      <point x="667.5" y="99" type="curve" smooth="yes"/>
      <point x="736.167" y="165.667"/>
      <point x="779" y="258.333"/>
      <point x="779" y="365" type="curve" smooth="yes"/>
      <point x="779" y="461"/>
      <point x="744.667" y="552.167"/>
      <point x="682" y="619.5" type="curve" smooth="yes"/>
      <point x="619.333" y="686.833"/>
      <point x="528.333" y="730"/>
      <point x="415" y="730" type="curve" smooth="yes"/>
      <point x="311" y="730"/>
      <point x="213.5" y="694.833"/>
      <point x="143.5" y="631.5" type="curve" smooth="yes"/>
      <point x="73.5" y="568.167"/>
      <point x="29" y="475.667"/>
      <point x="29" y="361" type="curve" smooth="yes"/>
      <point x="29" y="253"/>
      <point x="71" y="161.167"/>
      <point x="139" y="96.5" type="curve" smooth="yes"/>
      <point x="207" y="31.833"/>
      <point x="300.667" y="-5"/>
    </contour>
    <contour>
      <point x="406" y="10" type="curve" smooth="yes"/>
      <point x="322" y="10"/>
      <point x="258.5" y="52"/>
      <point x="216.5" y="116" type="curve" smooth="yes"/>
      <point x="174.5" y="180"/>
      <point x="153" y="267.333"/>
      <point x="153" y="358" type="curve" smooth="yes"/>
      <point x="153" y="444.667"/>
      <point x="171.833" y="533.333"/>
      <point x="212.5" y="600" type="curve" smooth="yes"/>
      <point x="253.167" y="666.667"/>
      <point x="316.333" y="713"/>
      <point x="403" y="713" type="curve" smooth="yes"/>
      <point x="569.104" y="713"/>
      <point x="655" y="532.116"/>
      <point x="655" y="364" type="curve" smooth="yes"/>
      <point x="655" y="280"/>
      <point x="634.333" y="191.833"/>
      <point x="593" y="124.5" type="curve" smooth="yes"/>
      <point x="551.667" y="57.167"/>
      <point x="490" y="10"/>
    </contour>
    <contour>
      <point x="319" y="784" type="curve" smooth="yes"/>
      <point x="344.333" y="784"/>
      <point x="365" y="804.667"/>
      <point x="365" y="830" type="curve" smooth="yes"/>
      <point x="365" y="855.333"/>
      <point x="344.333" y="876"/>
      <point x="319" y="876" type="curve" smooth="yes"/>
      <point x="293.667" y="876"/>
      <point x="273" y="855.333"/>
      <point x="273" y="830" type="curve" smooth="yes"/>
      <point x="273" y="804.667"/>
      <point x="293.667" y="784"/>
    </contour>
    <contour>
      <point x="496" y="784" type="curve" smooth="yes"/>
      <point x="521.333" y="784"/>
      <point x="542" y="804.667"/>
      <point x="542" y="830" type="curve" smooth="yes"/>
      <point x="542" y="855.333"/>
      <point x="521.333" y="876"/>
      <point x="496" y="876" type="curve" smooth="yes"/>
      <point x="470.667" y="876"/>
      <point x="450" y="855.333"/>
      <point x="450" y="830" type="curve" smooth="yes"/>
      <point x="450" y="804.667"/>
      <point x="470.667" y="784"/>
    </contour>
  </outline>
</glyph>
<glyph name="Ucircumflex" format="2">
  <advance width="834"/>
  <unicode hex="00DB"/>
  <note>
Ucircumflex
</note>
  <outline>
    <contour>
      <point x="420" y="-10" type="curve" smooth="yes"/>
      <point x="468.667" y="-10"/>
      <point x="509.667" y="-4.833"/>
      <point x="543" y="5.5" type="curve" smooth="yes"/>
      <point x="609.667" y="26.167"/>
      <point x="651.167" y="63.167"/>
      <point x="674.5" y="106.5" type="curve" smooth="yes"/>
      <point x="707.535" y="167.851"/>
      <point x="708.936" y="222.787"/>
      <point x="712" y="281" type="curve" smooth="yes"/>
      <point x="714.667" y="370.333"/>
      <point x="716.667" y="439.667"/>
      <point x="718" y="497" type="curve" smooth="yes"/>
      <point x="718" y="547.308"/>
      <point x="723.106" y="627.248"/>
      <point x="732" y="648" type="curve" smooth="yes"/>
      <point x="748" y="686.667"/>
      <point x="774.667" y="703.333"/>
      <point x="824" y="710" type="curve"/>
      <point x="824" y="720" type="line"/>
      <point x="576" y="720" type="line"/>
      <point x="576" y="710" type="line"/>
      <point x="640" y="700.667"/>
      <point x="669.667" y="677.333"/>
      <point x="683" y="640" type="curve"/>
      <point x="692.856" y="615.36"/>
      <point x="694" y="539.176"/>
      <point x="694" y="497" type="curve" smooth="yes"/>
      <point x="694" y="483"/>
      <point x="694" y="469.333"/>
      <point x="694" y="456" type="curve" smooth="yes"/>
      <point x="694" y="443.333"/>
      <point x="694" y="430.333"/>
      <point x="694" y="417" type="curve" smooth="yes"/>
      <point x="694" y="404.333"/>
      <point x="694" y="390.667"/>
      <point x="694" y="376" type="curve" smooth="yes"/>
      <point x="694" y="361.333"/>
      <point x="694" y="345"/>
      <point x="694" y="327" type="curve" smooth="yes"/>
      <point x="694" y="261.45"/>
      <point x="688.168" y="181.421"/>
      <point x="658.5" y="124" type="curve" smooth="yes"/>
      <point x="632.711" y="74.085"/>
      <point x="534.337" y="22"/>
      <point x="454" y="22" type="curve" smooth="yes"/>
      <point x="320.778" y="22"/>
      <point x="243.663" y="114.872"/>
      <point x="241" y="256" type="curve" smooth="yes"/>
      <point x="241" y="272"/>
      <point x="240.833" y="287.167"/>
      <point x="240.5" y="301.5" type="curve" smooth="yes"/>
      <point x="240.167" y="315.833"/>
      <point x="240" y="330.667"/>
      <point x="240" y="346" type="curve" smooth="yes"/>
      <point x="240" y="362"/>
      <point x="240" y="379"/>
      <point x="240" y="397" type="curve" smooth="yes"/>
      <point x="240" y="415"/>
      <point x="240" y="435.333"/>
      <point x="240" y="458" type="curve" smooth="yes"/>
      <point x="240" y="482.667"/>
      <point x="240" y="503"/>
      <point x="240" y="519" type="curve" smooth="yes"/>
      <point x="240" y="535"/>
      <point x="240" y="548.667"/>
      <point x="240" y="560" type="curve" smooth="yes"/>
      <point x="240" y="584"/>
      <point x="240.667" y="602"/>
      <point x="242" y="630" type="curve" smooth="yes"/>
      <point x="244.529" y="688.173"/>
      <point x="287.66" y="703.523"/>
      <point x="333" y="710" type="curve"/>
      <point x="333" y="720" type="line"/>
      <point x="35" y="720" type="line"/>
      <point x="35" y="710" type="line"/>
      <point x="69.667" y="706"/>
      <point x="97.333" y="697.667"/>
      <point x="116" y="675" type="curve" smooth="yes"/>
      <point x="127.257" y="661.866"/>
      <point x="131" y="622.204"/>
      <point x="131" y="594" type="curve" smooth="yes"/>
      <point x="131" y="582"/>
      <point x="131" y="570"/>
      <point x="131" y="558" type="curve" smooth="yes"/>
      <point x="131" y="425" type="line" smooth="yes"/>
      <point x="131" y="388.333"/>
      <point x="130.833" y="355"/>
      <point x="130.5" y="325" type="curve" smooth="yes"/>
      <point x="130.167" y="295"/>
      <point x="130" y="270.667"/>
      <point x="130" y="252" type="curve" smooth="yes"/>
      <point x="130" y="212.713"/>
      <point x="134.982" y="158.173"/>
      <point x="167.5" y="101.5" type="curve" smooth="yes"/>
      <point x="179.167" y="81.167"/>
      <point x="195.667" y="62.5"/>
      <point x="217" y="45.5" type="curve" smooth="yes"/>
      <point x="259.667" y="11.5"/>
      <point x="324" y="-10"/>
    </contour>
    <contour>
      <point x="350" y="764" type="line"/>
      <point x="450" y="868" type="line"/>
      <point x="551" y="764" type="line"/>
      <point x="564" y="771" type="line"/>
      <point x="458" y="934" type="line"/>
      <point x="443" y="934" type="line"/>
      <point x="337" y="771" type="line"/>
    </contour>
  </outline>
</glyph>
<glyph name="Udieresis" format="2">
  <advance width="834"/>
  <unicode hex="00DC"/>
  <note>
Udieresis
</note>
  <outline>
    <contour>
      <point x="420" y="-10" type="curve" smooth="yes"/>
      <point x="468.667" y="-10"/>
      <point x="509.667" y="-4.833"/>
      <point x="543" y="5.5" type="curve" smooth="yes"/>
      <point x="609.667" y="26.167"/>
      <point x="651.167" y="63.167"/>
      <point x="674.5" y="106.5" type="curve" smooth="yes"/>
      <point x="707.535" y="167.851"/>
      <point x="708.936" y="222.787"/>
      <point x="712" y="281" type="curve" smooth="yes"/>
      <point x="714.667" y="370.333"/>
      <point x="716.667" y="439.667"/>
      <point x="718" y="497" type="curve" smooth="yes"/>
      <point x="718" y="547.308"/>
      <point x="723.106" y="627.248"/>
      <point x="732" y="648" type="curve" smooth="yes"/>
      <point x="748" y="686.667"/>
      <point x="774.667" y="703.333"/>
      <point x="824" y="710" type="curve"/>
      <point x="824" y="720" type="line"/>
      <point x="576" y="720" type="line"/>
      <point x="576" y="710" type="line"/>
      <point x="640" y="700.667"/>
      <point x="669.667" y="677.333"/>
      <point x="683" y="640" type="curve"/>
      <point x="692.856" y="615.36"/>
      <point x="694" y="539.176"/>
      <point x="694" y="497" type="curve" smooth="yes"/>
      <point x="694" y="483"/>
      <point x="694" y="469.333"/>
      <point x="694" y="456" type="curve" smooth="yes"/>
      <point x="694" y="443.333"/>
      <point x="694" y="430.333"/>
      <point x="694" y="417" type="curve" smooth="yes"/>
      <point x="694" y="404.333"/>
      <point x="694" y="390.667"/>
      <point x="694" y="376" type="curve" smooth="yes"/>
      <point x="694" y="361.333"/>
      <point x="694" y="345"/>
      <point x="694" y="327" type="curve" smooth="yes"/>
      <point x="694" y="261.45"/>
      <point x="688.168" y="181.421"/>
      <point x="658.5" y="124" type="curve" smooth="yes"/>
      <point x="632.711" y="74.085"/>
      <point x="534.337" y="22"/>
      <point x="454" y="22" type="curve" smooth="yes"/>
      <point x="320.778" y="22"/>
      <point x="243.663" y="114.872"/>
      <point x="241" y="256" type="curve" smooth="yes"/>
      <point x="241" y="272"/>
      <point x="240.833" y="287.167"/>
      <point x="240.5" y="301.5" type="curve" smooth="yes"/>
      <point x="240.167" y="315.833"/>
      <point x="240" y="330.667"/>
      <point x="240" y="346" type="curve" smooth="yes"/>
      <point x="240" y="362"/>
      <point x="240" y="379"/>
      <point x="240" y="397" type="curve" smooth="yes"/>
      <point x="240" y="415"/>
      <point x="240" y="435.333"/>
      <point x="240" y="458" type="curve" smooth="yes"/>
      <point x="240" y="478.667"/>
      <point x="240" y="495.667"/>
      <point x="240" y="509" type="curve" smooth="yes"/>
      <point x="240" y="523"/>
      <point x="240" y="535.667"/>
      <point x="240" y="547" type="curve" smooth="yes"/>
      <point x="240" y="569.667"/>
      <point x="240.667" y="592.667"/>
      <point x="242" y="630" type="curve" smooth="yes"/>
      <point x="244.529" y="688.173"/>
      <point x="287.66" y="703.523"/>
      <point x="333" y="710" type="curve"/>
      <point x="333" y="720" type="line"/>
      <point x="35" y="720" type="line"/>
      <point x="35" y="710" type="line"/>
      <point x="69.667" y="706"/>
      <point x="97.333" y="697.667"/>
      <point x="116" y="675" type="curve" smooth="yes"/>
      <point x="127.257" y="661.866"/>
      <point x="131" y="622.204"/>
      <point x="131" y="594" type="curve" smooth="yes"/>
      <point x="131" y="582"/>
      <point x="131" y="570"/>
      <point x="131" y="558" type="curve" smooth="yes"/>
      <point x="131" y="425" type="line" smooth="yes"/>
      <point x="131" y="388.333"/>
      <point x="130.833" y="355"/>
      <point x="130.5" y="325" type="curve" smooth="yes"/>
      <point x="130.167" y="295"/>
      <point x="130" y="270.667"/>
      <point x="130" y="252" type="curve" smooth="yes"/>
      <point x="130" y="212.713"/>
      <point x="134.982" y="158.173"/>
      <point x="167.5" y="101.5" type="curve" smooth="yes"/>
      <point x="179.167" y="81.167"/>
      <point x="195.667" y="62.5"/>
      <point x="217" y="45.5" type="curve" smooth="yes"/>
      <point x="259.667" y="11.5"/>
      <point x="324" y="-10"/>
    </contour>
    <contour>
      <point x="362" y="784" type="curve" smooth="yes"/>
      <point x="387.333" y="784"/>
      <point x="408" y="804.667"/>
      <point x="408" y="830" type="curve" smooth="yes"/>
      <point x="408" y="855.333"/>
      <point x="387.333" y="876"/>
      <point x="362" y="876" type="curve" smooth="yes"/>
      <point x="336.667" y="876"/>
      <point x="316" y="855.333"/>
      <point x="316" y="830" type="curve" smooth="yes"/>
      <point x="316" y="804.667"/>
      <point x="336.667" y="784"/>
    </contour>
    <contour>
      <point x="539" y="784" type="curve" smooth="yes"/>
      <point x="564.333" y="784"/>
      <point x="585" y="804.667"/>
      <point x="585" y="830" type="curve" smooth="yes"/>
      <point x="585" y="855.333"/>
      <point x="564.333" y="876"/>
      <point x="539" y="876" type="curve" smooth="yes"/>
      <point x="513.667" y="876"/>
      <point x="493" y="855.333"/>
      <point x="493" y="830" type="curve" smooth="yes"/>
      <point x="493" y="804.667"/>
      <point x="513.667" y="784"/>
    </contour>
  </outline>
</glyph>
<glyph name="Thorn" format="2">
  <advance width="656"/>
  <unicode hex="00DE"/>
  <note>
Thorn
</note>
  <outline>
    <contour>
      <point x="41" y="0" type="line"/>
      <point x="363" y="0" type="line"/>
      <point x="363" y="10" type="line"/>
      <point x="308.333" y="12.667"/>
      <point x="275.667" y="33.667"/>
      <point x="265" y="51" type="curve"/>
      <point x="254.139" y="67.291"/>
      <point x="252" y="115.689"/>
      <point x="252" y="141" type="curve" smooth="yes"/>
      <point x="252" y="151.667"/>
      <point x="252" y="160"/>
      <point x="252" y="166" type="curve"/>
      <point x="268" y="166"/>
      <point x="286" y="166"/>
      <point x="306" y="166" type="curve" smooth="yes"/>
      <point x="356.437" y="166"/>
      <point x="442.241" y="173.586"/>
      <point x="491" y="191" type="curve" smooth="yes"/>
      <point x="568.354" y="219.649"/>
      <point x="633" y="287.99"/>
      <point x="633" y="383" type="curve" smooth="yes"/>
      <point x="633" y="554.038"/>
      <point x="481.365" y="590"/>
      <point x="318" y="590" type="curve" smooth="yes"/>
      <point x="309.333" y="590"/>
      <point x="300.167" y="589.833"/>
      <point x="290.5" y="589.5" type="curve" smooth="yes"/>
      <point x="280.833" y="589.167"/>
      <point x="268" y="589"/>
      <point x="252" y="589" type="curve"/>
      <point x="252" y="617"/>
      <point x="253.333" y="637.5"/>
      <point x="256" y="650.5" type="curve" smooth="yes"/>
      <point x="258.667" y="663.5"/>
      <point x="262.333" y="672.667"/>
      <point x="267" y="678" type="curve"/>
      <point x="284.333" y="699.333"/>
      <point x="316" y="706"/>
      <point x="352" y="710" type="curve"/>
      <point x="352" y="720" type="line"/>
      <point x="37" y="720" type="line"/>
      <point x="37" y="710" type="line"/>
      <point x="73" y="704.667"/>
      <point x="106" y="700.333"/>
      <point x="126" y="679" type="curve" smooth="yes"/>
      <point x="142.103" y="662.897"/>
      <point x="143" y="596.302"/>
      <point x="143" y="558" type="curve" smooth="yes"/>
      <point x="143" y="363" type="line" smooth="yes"/>
      <point x="143" y="345"/>
      <point x="143" y="325.667"/>
      <point x="143" y="305" type="curve" smooth="yes"/>
      <point x="143" y="269.869"/>
      <point x="141" y="181.48"/>
      <point x="141" y="156" type="curve" smooth="yes"/>
      <point x="141" y="121.138"/>
      <point x="137.405" y="60.886"/>
      <point x="125" y="46" type="curve" smooth="yes"/>
      <point x="107.667" y="24.667"/>
      <point x="74.333" y="15.333"/>
      <point x="41" y="10" type="curve"/>
    </contour>
    <contour>
      <point x="252" y="180" type="curve"/>
      <point x="252" y="196.667"/>
      <point x="252" y="216.667"/>
      <point x="252" y="240" type="curve" smooth="yes"/>
      <point x="252" y="264"/>
      <point x="252" y="289.333"/>
      <point x="252" y="316" type="curve" smooth="yes"/>
      <point x="252" y="343.333"/>
      <point x="252" y="370.667"/>
      <point x="252" y="398" type="curve" smooth="yes"/>
      <point x="252" y="426"/>
      <point x="252" y="451.667"/>
      <point x="252" y="475" type="curve" smooth="yes"/>
      <point x="252" y="498.333"/>
      <point x="252.167" y="518.667"/>
      <point x="252.5" y="536" type="curve" smooth="yes"/>
      <point x="252.833" y="553.333"/>
      <point x="253" y="565"/>
      <point x="253" y="571" type="curve"/>
      <point x="262.333" y="572.333"/>
      <point x="279" y="574"/>
      <point x="307" y="574" type="curve" smooth="yes"/>
      <point x="345.667" y="574"/>
      <point x="386" y="569.667"/>
      <point x="418" y="555" type="curve" smooth="yes"/>
      <point x="482" y="524.333"/>
      <point x="522" y="461.333"/>
      <point x="522" y="384" type="curve" smooth="yes"/>
      <point x="522" y="300"/>
      <point x="478.333" y="225.333"/>
      <point x="393" y="196" type="curve" smooth="yes"/>
      <point x="351.667" y="181.333"/>
      <point x="306.667" y="180"/>
    </contour>
  </outline>
</glyph>
<glyph name="acircumflex" format="2">
  <advance width="448"/>
  <unicode hex="00E2"/>
  <note>
acircumflex
</note>
  <outline>
    <contour>
      <point x="366" y="-1" type="curve" smooth="yes"/>
      <point x="421.899" y="-1"/>
      <point x="465" y="43.66"/>
      <point x="465" y="98" type="curve"/>
      <point x="459" y="98" type="line"/>
      <point x="453.667" y="78"/>
      <point x="440.667" y="64"/>
      <point x="410" y="64" type="curve" smooth="yes"/>
      <point x="384.667" y="64"/>
      <point x="359" y="78"/>
      <point x="359" y="138" type="curve" smooth="yes"/>
      <point x="359" y="160.667"/>
      <point x="359.167" y="181.5"/>
      <point x="359.5" y="200.5" type="curve" smooth="yes"/>
      <point x="359.833" y="219.5"/>
      <point x="360" y="238"/>
      <point x="360" y="256" type="curve" smooth="yes"/>
      <point x="360" y="274"/>
      <point x="360.167" y="292.667"/>
      <point x="360.5" y="312" type="curve" smooth="yes"/>
      <point x="360.833" y="331.333"/>
      <point x="361" y="353"/>
      <point x="361" y="377" type="curve" smooth="yes"/>
      <point x="361" y="399.667"/>
      <point x="360.333" y="426.667"/>
      <point x="355" y="436" type="curve"/>
      <point x="341.667" y="462.667"/>
      <point x="307.667" y="483"/>
      <point x="273" y="483" type="curve" smooth="yes"/>
      <point x="234.324" y="483"/>
      <point x="150.109" y="442.678"/>
      <point x="90" y="408" type="curve"/>
      <point x="63.323" y="391.327"/>
      <point x="31" y="375.174"/>
      <point x="31" y="343" type="curve" smooth="yes"/>
      <point x="31" y="323"/>
      <point x="48.667" y="305"/>
      <point x="70" y="305" type="curve" smooth="yes"/>
      <point x="92.667" y="305"/>
      <point x="116" y="322.333"/>
      <point x="116" y="341" type="curve" smooth="yes"/>
      <point x="116" y="386" type="line" smooth="yes"/>
      <point x="116" y="405.428"/>
      <point x="162.853" y="437"/>
      <point x="201" y="437" type="curve" smooth="yes"/>
      <point x="246.644" y="437"/>
      <point x="279" y="409.312"/>
      <point x="279" y="391" type="curve" smooth="yes"/>
      <point x="279" y="288" type="line"/>
      <point x="263.336" y="278.602"/>
      <point x="205.763" y="248.214"/>
      <point x="176.5" y="231" type="curve" smooth="yes"/>
      <point x="122.289" y="199.111"/>
      <point x="40" y="152.246"/>
      <point x="40" y="94" type="curve" smooth="yes"/>
      <point x="40" y="28.594"/>
      <point x="84.719" y="0"/>
      <point x="133" y="0" type="curve" smooth="yes"/>
      <point x="200.233" y="0"/>
      <point x="250.435" y="46.831"/>
      <point x="277" y="90" type="curve"/>
      <point x="279" y="89" type="line"/>
      <point x="279" y="22.333"/>
      <point x="320.667" y="-1"/>
    </contour>
    <contour>
      <point x="184" y="61" type="curve" smooth="yes"/>
      <point x="145.333" y="61"/>
      <point x="119" y="94.333"/>
      <point x="119" y="129" type="curve" smooth="yes"/>
      <point x="119" y="196.14"/>
      <point x="218.953" y="228.633"/>
      <point x="279" y="272" type="curve"/>
      <point x="279" y="118" type="line" smooth="yes"/>
      <point x="279" y="106.667"/>
      <point x="275" y="97.333"/>
      <point x="267" y="90" type="curve"/>
      <point x="244.333" y="67.333"/>
      <point x="218.667" y="61"/>
    </contour>
    <contour>
      <point x="124" y="521" type="line"/>
      <point x="214" y="632" type="line"/>
      <point x="305" y="521" type="line"/>
      <point x="317" y="528" type="line"/>
      <point x="222" y="698" type="line"/>
      <point x="207" y="698" type="line"/>
      <point x="112" y="528" type="line"/>
    </contour>
  </outline>
</glyph>
<glyph name="atilde" format="2">
  <advance width="448"/>
  <unicode hex="00E3"/>
  <note>
atilde
</note>
  <outline>
    <contour>
      <point x="366" y="-1" type="curve" smooth="yes"/>
      <point x="421.899" y="-1"/>
      <point x="465" y="43.66"/>
      <point x="465" y="98" type="curve"/>
      <point x="459" y="98" type="line"/>
      <point x="453.667" y="78"/>
      <point x="440.667" y="64"/>
      <point x="410" y="64" type="curve" smooth="yes"/>
      <point x="384.667" y="64"/>
      <point x="359" y="78"/>
      <point x="359" y="138" type="curve" smooth="yes"/>
      <point x="359" y="160.667"/>
      <point x="359.167" y="181.5"/>
      <point x="359.5" y="200.5" type="curve" smooth="yes"/>
      <point x="359.833" y="219.5"/>
      <point x="360" y="238"/>
      <point x="360" y="256" type="curve" smooth="yes"/>
      <point x="360" y="274"/>
      <point x="360.167" y="292.667"/>
      <point x="360.5" y="312" type="curve" smooth="yes"/>
      <point x="360.833" y="331.333"/>
      <point x="361" y="353"/>
      <point x="361" y="377" type="curve" smooth="yes"/>
      <point x="361" y="399.667"/>
      <point x="360.333" y="426.667"/>
      <point x="355" y="436" type="curve"/>
      <point x="341.667" y="462.667"/>
      <point x="307.667" y="483"/>
      <point x="273" y="483" type="curve" smooth="yes"/>
      <point x="234.324" y="483"/>
      <point x="150.109" y="442.678"/>
      <point x="90" y="408" type="curve"/>
      <point x="63.323" y="391.327"/>
      <point x="31" y="375.174"/>
      <point x="31" y="343" type="curve" smooth="yes"/>
      <point x="31" y="323"/>
      <point x="48.667" y="305"/>
      <point x="70" y="305" type="curve" smooth="yes"/>
      <point x="92.667" y="305"/>
      <point x="116" y="322.333"/>
      <point x="116" y="341" type="curve" smooth="yes"/>
      <point x="116" y="386" type="line" smooth="yes"/>
      <point x="116" y="405.428"/>
      <point x="162.853" y="437"/>
      <point x="201" y="437" type="curve" smooth="yes"/>
      <point x="246.644" y="437"/>
      <point x="279" y="409.312"/>
      <point x="279" y="391" type="curve" smooth="yes"/>
      <point x="279" y="288" type="line"/>
      <point x="263.336" y="278.602"/>
      <point x="205.763" y="248.214"/>
      <point x="176.5" y="231" type="curve" smooth="yes"/>
      <point x="122.289" y="199.111"/>
      <point x="40" y="152.246"/>
      <point x="40" y="94" type="curve" smooth="yes"/>
      <point x="40" y="28.594"/>
      <point x="84.719" y="0"/>
      <point x="133" y="0" type="curve" smooth="yes"/>
      <point x="200.233" y="0"/>
      <point x="250.435" y="46.831"/>
      <point x="277" y="90" type="curve"/>
      <point x="279" y="89" type="line"/>
      <point x="279" y="22.333"/>
      <point x="320.667" y="-1"/>
    </contour>
    <contour>
      <point x="184" y="61" type="curve" smooth="yes"/>
      <point x="145.333" y="61"/>
      <point x="119" y="94.333"/>
      <point x="119" y="129" type="curve" smooth="yes"/>
      <point x="119" y="196.14"/>
      <point x="218.953" y="228.633"/>
      <point x="279" y="272" type="curve"/>
      <point x="279" y="118" type="line" smooth="yes"/>
      <point x="279" y="106.667"/>
      <point x="275" y="97.333"/>
      <point x="267" y="90" type="curve"/>
      <point x="244.333" y="67.333"/>
      <point x="218.667" y="61"/>
    </contour>
    <contour>
      <point x="69" y="535" type="curve"/>
      <point x="82" y="535" type="line"/>
      <point x="100.195" y="581.786"/>
      <point x="112.051" y="581"/>
      <point x="164" y="581" type="curve"/>
      <point x="251" y="562" type="line"/>
      <point x="320.508" y="562"/>
      <point x="349.495" y="606.98"/>
      <point x="364" y="665" type="curve"/>
      <point x="350" y="665" type="line"/>
      <point x="340.667" y="619.667"/>
      <point x="313.333" y="614"/>
      <point x="264" y="614" type="curve"/>
      <point x="179" y="633" type="line"/>
      <point x="116.333" y="633"/>
      <point x="83.667" y="592.333"/>
    </contour>
  </outline>
</glyph>
<glyph name="adieresis" format="2">
  <advance width="448"/>
  <unicode hex="00E4"/>
  <note>
adieresis
</note>
  <outline>
    <contour>
      <point x="366" y="-1" type="curve" smooth="yes"/>
      <point x="421.899" y="-1"/>
      <point x="465" y="43.66"/>
      <point x="465" y="98" type="curve"/>
      <point x="459" y="98" type="line"/>
      <point x="453.667" y="78"/>
      <point x="440.667" y="64"/>
      <point x="410" y="64" type="curve" smooth="yes"/>
      <point x="384.667" y="64"/>
      <point x="359" y="78"/>
      <point x="359" y="138" type="curve" smooth="yes"/>
      <point x="359" y="160.667"/>
      <point x="359.167" y="181.5"/>
      <point x="359.5" y="200.5" type="curve" smooth="yes"/>
      <point x="359.833" y="219.5"/>
      <point x="360" y="238"/>
      <point x="360" y="256" type="curve" smooth="yes"/>
      <point x="360" y="274"/>
      <point x="360.167" y="292.667"/>
      <point x="360.5" y="312" type="curve" smooth="yes"/>
      <point x="360.833" y="331.333"/>
      <point x="361" y="353"/>
      <point x="361" y="377" type="curve" smooth="yes"/>
      <point x="361" y="399.667"/>
      <point x="360.333" y="426.667"/>
      <point x="355" y="436" type="curve"/>
      <point x="341.667" y="462.667"/>
      <point x="307.667" y="483"/>
      <point x="273" y="483" type="curve" smooth="yes"/>
      <point x="234.324" y="483"/>
      <point x="150.109" y="442.678"/>
      <point x="90" y="408" type="curve"/>
      <point x="63.323" y="391.327"/>
      <point x="31" y="375.174"/>
      <point x="31" y="343" type="curve" smooth="yes"/>
      <point x="31" y="323"/>
      <point x="48.667" y="305"/>
      <point x="70" y="305" type="curve" smooth="yes"/>
      <point x="92.667" y="305"/>
      <point x="116" y="322.333"/>
      <point x="116" y="341" type="curve" smooth="yes"/>
      <point x="116" y="386" type="line" smooth="yes"/>
      <point x="116" y="405.428"/>
      <point x="162.853" y="437"/>
      <point x="201" y="437" type="curve" smooth="yes"/>
      <point x="246.644" y="437"/>
      <point x="279" y="409.312"/>
      <point x="279" y="391" type="curve" smooth="yes"/>
      <point x="279" y="288" type="line"/>
      <point x="263.336" y="278.602"/>
      <point x="205.763" y="248.214"/>
      <point x="176.5" y="231" type="curve" smooth="yes"/>
      <point x="122.289" y="199.111"/>
      <point x="40" y="152.246"/>
      <point x="40" y="94" type="curve" smooth="yes"/>
      <point x="40" y="28.594"/>
      <point x="84.719" y="0"/>
      <point x="133" y="0" type="curve" smooth="yes"/>
      <point x="200.233" y="0"/>
      <point x="250.435" y="46.831"/>
      <point x="277" y="90" type="curve"/>
      <point x="279" y="89" type="line"/>
      <point x="279" y="22.333"/>
      <point x="320.667" y="-1"/>
    </contour>
    <contour>
      <point x="184" y="61" type="curve" smooth="yes"/>
      <point x="145.333" y="61"/>
      <point x="119" y="94.333"/>
      <point x="119" y="129" type="curve" smooth="yes"/>
      <point x="119" y="196.14"/>
      <point x="218.953" y="228.633"/>
      <point x="279" y="272" type="curve"/>
      <point x="279" y="118" type="line" smooth="yes"/>
      <point x="279" y="106.667"/>
      <point x="275" y="97.333"/>
      <point x="267" y="90" type="curve"/>
      <point x="244.333" y="67.333"/>
      <point x="218.667" y="61"/>
    </contour>
    <contour>
      <point x="145" y="554" type="curve" smooth="yes"/>
      <point x="170.333" y="554"/>
      <point x="191" y="574.667"/>
      <point x="191" y="600" type="curve" smooth="yes"/>
      <point x="191" y="625.333"/>
      <point x="170.333" y="646"/>
      <point x="145" y="646" type="curve" smooth="yes"/>
      <point x="119.667" y="646"/>
      <point x="99" y="625.333"/>
      <point x="99" y="600" type="curve" smooth="yes"/>
      <point x="99" y="574.667"/>
      <point x="119.667" y="554"/>
    </contour>
    <contour>
      <point x="302" y="554" type="curve" smooth="yes"/>
      <point x="327.333" y="554"/>
      <point x="348" y="574.667"/>
      <point x="348" y="600" type="curve" smooth="yes"/>
      <point x="348" y="625.333"/>
      <point x="327.333" y="646"/>
      <point x="302" y="646" type="curve" smooth="yes"/>
      <point x="276.667" y="646"/>
      <point x="256" y="625.333"/>
      <point x="256" y="600" type="curve" smooth="yes"/>
      <point x="256" y="574.667"/>
      <point x="276.667" y="554"/>
    </contour>
  </outline>
</glyph>
<glyph name="aring" format="2">
  <advance width="448"/>
  <unicode hex="00E5"/>
  <note>
aring
</note>
  <outline>
    <contour>
      <point x="366" y="-1" type="curve" smooth="yes"/>
      <point x="421.899" y="-1"/>
      <point x="465" y="43.66"/>
      <point x="465" y="98" type="curve"/>
      <point x="459" y="98" type="line"/>
      <point x="453.667" y="78"/>
      <point x="440.667" y="64"/>
      <point x="410" y="64" type="curve" smooth="yes"/>
      <point x="384.667" y="64"/>
      <point x="359" y="78"/>
      <point x="359" y="138" type="curve" smooth="yes"/>
      <point x="359" y="160.667"/>
      <point x="359.167" y="181.5"/>
      <point x="359.5" y="200.5" type="curve" smooth="yes"/>
      <point x="359.833" y="219.5"/>
      <point x="360" y="238"/>
      <point x="360" y="256" type="curve" smooth="yes"/>
      <point x="360" y="274"/>
      <point x="360.167" y="292.667"/>
      <point x="360.5" y="312" type="curve" smooth="yes"/>
      <point x="360.833" y="331.333"/>
      <point x="361" y="353"/>
      <point x="361" y="377" type="curve" smooth="yes"/>
      <point x="361" y="399.667"/>
      <point x="360.333" y="426.667"/>
      <point x="355" y="436" type="curve"/>
      <point x="341.667" y="462.667"/>
      <point x="307.667" y="483"/>
      <point x="273" y="483" type="curve" smooth="yes"/>
      <point x="234.324" y="483"/>
      <point x="150.109" y="442.678"/>
      <point x="90" y="408" type="curve"/>
      <point x="63.323" y="391.327"/>
      <point x="31" y="375.174"/>
      <point x="31" y="343" type="curve" smooth="yes"/>
      <point x="31" y="323"/>
      <point x="48.667" y="305"/>
      <point x="70" y="305" type="curve" smooth="yes"/>
      <point x="92.667" y="305"/>
      <point x="116" y="322.333"/>
      <point x="116" y="341" type="curve" smooth="yes"/>
      <point x="116" y="386" type="line" smooth="yes"/>
      <point x="116" y="405.428"/>
      <point x="162.853" y="437"/>
      <point x="201" y="437" type="curve" smooth="yes"/>
      <point x="246.644" y="437"/>
      <point x="279" y="409.312"/>
      <point x="279" y="391" type="curve" smooth="yes"/>
      <point x="279" y="288" type="line"/>
      <point x="263.336" y="278.602"/>
      <point x="205.763" y="248.214"/>
      <point x="176.5" y="231" type="curve" smooth="yes"/>
      <point x="122.289" y="199.111"/>
      <point x="40" y="152.246"/>
      <point x="40" y="94" type="curve" smooth="yes"/>
      <point x="40" y="28.594"/>
      <point x="84.719" y="0"/>
      <point x="133" y="0" type="curve" smooth="yes"/>
      <point x="200.233" y="0"/>
      <point x="250.435" y="46.831"/>
      <point x="277" y="90" type="curve"/>
      <point x="279" y="89" type="line"/>
      <point x="279" y="22.333"/>
      <point x="320.667" y="-1"/>
    </contour>
    <contour>
      <point x="184" y="61" type="curve" smooth="yes"/>
      <point x="145.333" y="61"/>
      <point x="119" y="94.333"/>
      <point x="119" y="129" type="curve" smooth="yes"/>
      <point x="119" y="196.14"/>
      <point x="218.953" y="228.633"/>
      <point x="279" y="272" type="curve"/>
      <point x="279" y="118" type="line" smooth="yes"/>
      <point x="279" y="106.667"/>
      <point x="275" y="97.333"/>
      <point x="267" y="90" type="curve"/>
      <point x="244.333" y="67.333"/>
      <point x="218.667" y="61"/>
    </contour>
    <contour>
      <point x="231" y="520" type="curve" smooth="yes"/>
      <point x="273.667" y="520"/>
      <point x="305" y="550.667"/>
      <point x="305" y="592" type="curve" smooth="yes"/>
      <point x="305" y="634.667"/>
      <point x="273.667" y="664"/>
      <point x="231" y="664" type="curve" smooth="yes"/>
      <point x="189.667" y="664"/>
      <point x="157" y="633.333"/>
      <point x="157" y="592" type="curve" smooth="yes"/>
      <point x="157" y="549.333"/>
      <point x="187" y="520"/>
    </contour>
    <contour>
      <point x="231" y="540" type="curve" smooth="yes"/>
      <point x="201.667" y="540"/>
      <point x="184" y="562.667"/>
      <point x="184" y="592" type="curve" smooth="yes"/>
      <point x="184" y="622.667"/>
      <point x="203" y="644"/>
      <point x="231" y="644" type="curve" smooth="yes"/>
      <point x="260.333" y="644"/>
      <point x="278" y="621.333"/>
      <point x="278" y="592" type="curve" smooth="yes"/>
      <point x="278" y="562.667"/>
      <point x="260.333" y="540"/>
    </contour>
  </outline>
</glyph>
<glyph name="ccedilla" format="2">
  <advance width="432"/>
  <unicode hex="00E7"/>
  <note>
ccedilla
</note>
  <outline>
    <contour>
      <point x="225" y="-222" type="curve" smooth="yes"/>
      <point x="268.836" y="-222"/>
      <point x="330" y="-188.893"/>
      <point x="330" y="-132" type="curve" smooth="yes"/>
      <point x="330" y="-105.647"/>
      <point x="313.545" y="-64.716"/>
      <point x="256" y="-44" type="curve"/>
      <point x="332" y="11" type="line" smooth="yes"/>
      <point x="373.272" y="41.266"/>
      <point x="424.658" y="91.25"/>
      <point x="441" y="143" type="curve"/>
      <point x="433" y="147" type="line"/>
      <point x="401" y="93.667"/>
      <point x="359" y="64"/>
      <point x="275" y="64" type="curve" smooth="yes"/>
      <point x="169.303" y="64"/>
      <point x="105" y="150.462"/>
      <point x="105" y="268" type="curve" smooth="yes"/>
      <point x="105" y="371.587"/>
      <point x="163.46" y="467"/>
      <point x="248" y="467" type="curve" smooth="yes"/>
      <point x="304" y="467"/>
      <point x="329" y="430.333"/>
      <point x="329" y="381" type="curve" smooth="yes"/>
      <point x="329" y="367.667"/>
      <point x="327.333" y="356.333"/>
      <point x="324" y="347" type="curve"/>
      <point x="329.333" y="327"/>
      <point x="349.333" y="312"/>
      <point x="372" y="312" type="curve" smooth="yes"/>
      <point x="400" y="312"/>
      <point x="424" y="336"/>
      <point x="424" y="364" type="curve" smooth="yes"/>
      <point x="424" y="440.445"/>
      <point x="332.942" y="483"/>
      <point x="246" y="483" type="curve" smooth="yes"/>
      <point x="116.805" y="483"/>
      <point x="20" y="369.68"/>
      <point x="20" y="242" type="curve" smooth="yes"/>
      <point x="20" y="103.68"/>
      <point x="111.471" y="-2"/>
      <point x="241" y="-2" type="curve" smooth="yes"/>
      <point x="263.667" y="-2"/>
      <point x="282.333" y="-0.333"/>
      <point x="297" y="3" type="curve"/>
      <point x="201" y="-75" type="line"/>
      <point x="249" y="-91"/>
      <point x="274" y="-120.333"/>
      <point x="274" y="-155" type="curve" smooth="yes"/>
      <point x="274" y="-191"/>
      <point x="254" y="-210"/>
      <point x="230" y="-210" type="curve" smooth="yes"/>
      <point x="215.333" y="-210"/>
      <point x="208" y="-199.667"/>
      <point x="208" y="-179" type="curve" smooth="yes"/>
      <point x="208" y="-176.333"/>
      <point x="208.167" y="-173.333"/>
      <point x="208.5" y="-170" type="curve" smooth="yes"/>
      <point x="208.833" y="-166.667"/>
      <point x="209" y="-163"/>
      <point x="209" y="-159" type="curve"/>
      <point x="203" y="-151.667"/>
      <point x="193.333" y="-148"/>
      <point x="180" y="-148" type="curve" smooth="yes"/>
      <point x="157.333" y="-148"/>
      <point x="149" y="-163.667"/>
      <point x="149" y="-177" type="curve" smooth="yes"/>
      <point x="149" y="-209"/>
      <point x="179.667" y="-222"/>
    </contour>
  </outline>
</glyph>
<glyph name="egrave" format="2">
  <advance width="435"/>
  <unicode hex="00E8"/>
  <note>
egrave
</note>
  <outline>
    <contour>
      <point x="245" y="-1" type="curve" smooth="yes"/>
      <point x="348.238" y="-1"/>
      <point x="419.868" y="79.772"/>
      <point x="433" y="152" type="curve"/>
      <point x="425" y="154" type="line"/>
      <point x="409" y="104.667"/>
      <point x="354.667" y="66"/>
      <point x="288" y="66" type="curve" smooth="yes"/>
      <point x="168.591" y="66"/>
      <point x="102" y="160.724"/>
      <point x="102" y="278" type="curve" smooth="yes"/>
      <point x="102" y="285.333"/>
      <point x="102.333" y="292.5"/>
      <point x="103" y="299.5" type="curve" smooth="yes"/>
      <point x="103.667" y="306.5"/>
      <point x="104" y="312.667"/>
      <point x="104" y="318" type="curve"/>
      <point x="425" y="318" type="line"/>
      <point x="417.12" y="428.321"/>
      <point x="337.569" y="483"/>
      <point x="231" y="483" type="curve" smooth="yes"/>
      <point x="105.938" y="483"/>
      <point x="19" y="367.847"/>
      <point x="19" y="251" type="curve" smooth="yes"/>
      <point x="19" y="108.701"/>
      <point x="107.763" y="-1"/>
    </contour>
    <contour>
      <point x="106" y="332" type="curve"/>
      <point x="113.064" y="374.383"/>
      <point x="162.917" y="466"/>
      <point x="232" y="466" type="curve" smooth="yes"/>
      <point x="289.333" y="466"/>
      <point x="326" y="425.333"/>
      <point x="326" y="376" type="curve" smooth="yes"/>
      <point x="326" y="357.333"/>
      <point x="321.333" y="350.667"/>
      <point x="312" y="340" type="curve"/>
      <point x="298.667" y="334.667"/>
      <point x="281" y="334"/>
      <point x="261" y="334" type="curve" smooth="yes"/>
      <point x="235.311" y="334"/>
      <point x="171.549" y="332"/>
      <point x="147" y="332" type="curve" smooth="yes"/>
      <point x="135" y="332"/>
      <point x="121.333" y="332"/>
    </contour>
    <contour>
      <point x="273" y="514" type="line"/>
      <point x="283" y="520" type="line"/>
      <point x="182" y="696" type="line"/>
      <point x="152.667" y="696"/>
      <point x="144" y="682.667"/>
      <point x="136" y="672" type="curve"/>
      <point x="136" y="667" type="line"/>
    </contour>
  </outline>
</glyph>
<glyph name="edieresis" format="2">
  <advance width="435"/>
  <unicode hex="00EB"/>
  <note>
edieresis
</note>
  <outline>
    <contour>
      <point x="245" y="-1" type="curve" smooth="yes"/>
      <point x="348.238" y="-1"/>
      <point x="419.868" y="79.772"/>
      <point x="433" y="152" type="curve"/>
      <point x="425" y="154" type="line"/>
      <point x="409" y="104.667"/>
      <point x="354.667" y="66"/>
      <point x="288" y="66" type="curve" smooth="yes"/>
      <point x="168.591" y="66"/>
      <point x="102" y="160.724"/>
      <point x="102" y="278" type="curve" smooth="yes"/>
      <point x="102" y="285.333"/>
      <point x="102.333" y="292.5"/>
      <point x="103" y="299.5" type="curve" smooth="yes"/>
      <point x="103.667" y="306.5"/>
      <point x="104" y="312.667"/>
      <point x="104" y="318" type="curve"/>
      <point x="425" y="318" type="line"/>
      <point x="417.12" y="428.321"/>
      <point x="337.569" y="483"/>
      <point x="231" y="483" type="curve" smooth="yes"/>
      <point x="105.938" y="483"/>
      <point x="19" y="367.847"/>
      <point x="19" y="251" type="curve" smooth="yes"/>
      <point x="19" y="108.701"/>
      <point x="107.763" y="-1"/>
    </contour>
    <contour>
      <point x="106" y="332" type="curve"/>
      <point x="113.064" y="374.383"/>
      <point x="162.917" y="466"/>
      <point x="232" y="466" type="curve" smooth="yes"/>
      <point x="289.333" y="466"/>
      <point x="326" y="425.333"/>
      <point x="326" y="376" type="curve" smooth="yes"/>
      <point x="326" y="357.333"/>
      <point x="321.333" y="350.667"/>
      <point x="312" y="340" type="curve"/>
      <point x="298.667" y="334.667"/>
      <point x="281" y="334"/>
      <point x="261" y="334" type="curve" smooth="yes"/>
      <point x="235.311" y="334"/>
      <point x="171.549" y="332"/>
      <point x="147" y="332" type="curve" smooth="yes"/>
      <point x="135" y="332"/>
      <point x="121.333" y="332"/>
    </contour>
    <contour>
      <point x="152" y="554" type="curve" smooth="yes"/>
      <point x="177.333" y="554"/>
      <point x="198" y="574.667"/>
      <point x="198" y="600" type="curve" smooth="yes"/>
      <point x="198" y="625.333"/>
      <point x="177.333" y="646"/>
      <point x="152" y="646" type="curve" smooth="yes"/>
      <point x="126.667" y="646"/>
      <point x="106" y="625.333"/>
      <point x="106" y="600" type="curve" smooth="yes"/>
      <point x="106" y="574.667"/>
      <point x="126.667" y="554"/>
    </contour>
    <contour>
      <point x="310" y="554" type="curve" smooth="yes"/>
      <point x="335.333" y="554"/>
      <point x="356" y="574.667"/>
      <point x="356" y="600" type="curve" smooth="yes"/>
      <point x="356" y="625.333"/>
      <point x="335.333" y="646"/>
      <point x="310" y="646" type="curve" smooth="yes"/>
      <point x="284.667" y="646"/>
      <point x="264" y="625.333"/>
      <point x="264" y="600" type="curve" smooth="yes"/>
      <point x="264" y="574.667"/>
      <point x="284.667" y="554"/>
    </contour>
  </outline>
</glyph>
<glyph name="igrave" format="2">
  <advance width="254"/>
  <unicode hex="00EC"/>
  <note>
igrave
</note>
  <outline>
    <contour>
      <point x="18" y="0" type="line"/>
      <point x="233" y="0" type="line"/>
      <point x="233" y="10" type="line"/>
      <point x="206.178" y="15.364"/>
      <point x="174.247" y="9.763"/>
      <point x="169" y="36" type="curve"/>
      <point x="169" y="483" type="line"/>
      <point x="163" y="483" type="line"/>
      <point x="28" y="439" type="line"/>
      <point x="28" y="432" type="line"/>
      <point x="45.333" y="425.333"/>
      <point x="64" y="416.667"/>
      <point x="76" y="410" type="curve"/>
      <point x="86.667" y="403.333"/>
      <point x="86" y="399.667"/>
      <point x="86" y="389" type="curve" smooth="yes"/>
      <point x="86" y="42" type="line" smooth="yes"/>
      <point x="86" y="16.974"/>
      <point x="47.53" y="12.461"/>
      <point x="18" y="10" type="curve"/>
    </contour>
    <contour>
      <point x="161" y="514" type="line"/>
      <point x="171" y="520" type="line"/>
      <point x="70" y="696" type="line"/>
      <point x="40.667" y="696"/>
      <point x="32" y="682.667"/>
      <point x="24" y="672" type="curve"/>
      <point x="24" y="667" type="line"/>
    </contour>
  </outline>
</glyph>
<glyph name="icircumflex" format="2">
  <advance width="254"/>
  <unicode hex="00EE"/>
  <note>
icircumflex
</note>
  <outline>
    <contour>
      <point x="18" y="0" type="line"/>
      <point x="233" y="0" type="line"/>
      <point x="233" y="10" type="line"/>
      <point x="206.178" y="15.364"/>
      <point x="174.247" y="9.763"/>
      <point x="169" y="36" type="curve"/>
      <point x="169" y="483" type="line"/>
      <point x="163" y="483" type="line"/>
      <point x="28" y="439" type="line"/>
      <point x="28" y="432" type="line"/>
      <point x="45.333" y="425.333"/>
      <point x="64" y="416.667"/>
      <point x="76" y="410" type="curve"/>
      <point x="86.667" y="403.333"/>
      <point x="86" y="399.667"/>
      <point x="86" y="389" type="curve" smooth="yes"/>
      <point x="86" y="42" type="line" smooth="yes"/>
      <point x="86" y="16.974"/>
      <point x="47.53" y="12.461"/>
      <point x="18" y="10" type="curve"/>
    </contour>
    <contour>
      <point x="206" y="520" type="line"/>
      <point x="218" y="527" type="line"/>
      <point x="129" y="698" type="line"/>
      <point x="114" y="698" type="line"/>
      <point x="23" y="528" type="line"/>
      <point x="35" y="521" type="line"/>
      <point x="121" y="633" type="line"/>
    </contour>
  </outline>
</glyph>
